<svg height="58" viewBox="0 0 275 58" width="275" xmlns="http://www.w3.org/2000/svg" xmlns:xlink="http://www.w3.org/1999/xlink"><mask id="a" fill="#fff"><path d="m1.06881443 1.28994845h12.10708767v14.21778355h-12.10708767z" fill="#fff" fill-rule="evenodd"/></mask><mask id="b" fill="#fff"><path d="m.08505155 1.20347938h39.47785595v39.60324992h-39.47785595z" fill="#fff" fill-rule="evenodd"/></mask><g fill="#fffffe" fill-rule="evenodd" transform="translate(0 -1)"><path d="m68.3346649 32.5832474c0 3.1398196 0 5.5935567.164433 6.9671392.1006444.9483247.2948454 1.6684278 1.2771908 1.7974227.4564433.0666237 1.1779639.1318299 1.6344072.1318299.4252577 0 .5570876.0992268.5570876.2622422 0 .2296392-.2296392.3274485-.7201031.3274485-2.0596649 0-4.1221649-.0978093-4.9712629-.0978093-.8505154 0-2.9115979.0978093-4.154768.0978093-.4592784 0-.6889175-.0666237-.6889175-.3274485 0-.1630154.1318299-.2622422.4918814-.2622422.4904639 0 .8845361-.0652062 1.1793814-.1318299.6534794-.1289949.8164949-.849098.9469073-1.7974227.164433-1.3735825.164433-3.8273196.164433-6.9671392v-5.7565721c0-4.9712629 0-5.8884021-.0666238-6.9345361-.0652061-1.1127578-.3260309-1.6358248-1.404768-1.8654639-.2622423-.0637887-.8193299-.0978093-1.2757732-.0978093-.3302835 0-.5585052-.0652062-.5585052-.2608248 0-.2622422.2650774-.3274484.7527062-.3274484.8533505 0 1.8002578.0326031 2.6507732.0326031.851933.0326031 1.6032217.0666237 2.0610825.0666237 1.2417526 0 7.8828608 0 8.635567-.0340206.6208763-.0326031 1.0135309-.0326031 1.3395619-.1304124.1970361-.0637887.3600515-.1970361.523067-.1970361.1318299 0 .2296392.1332474.2296392.2948454 0 .2282216-.164433.6208763-.2608248 1.4728093-.0340206.3260309-.0992268 2.256701-.1630155 2.6479381-.0340206.2622423-.1006443.4592783-.3288659.4592783-.2310567 0-.2962629-.1644329-.326031-.5244845 0-.2608247 0-.7853093-.1984536-1.2417526-.2282216-.4592783-.9143041-.9483247-2.1574742-.9823453l-5.0378866-.0978093c-.1927835 0-.2948454.0978093-.2948454.4578608v8.1777062c0 .1956186.0354382.2948454.2282217.2948454l4.1887887-.0340207c.5570876 0 1.0149484 0 1.4713917-.032603.6222938-.0326031 1.0801546-.1630155 1.4076031-.5882732.164433-.1956186.2310567-.326031.4224227-.326031.1318299 0 .1984536.0963918.1984536.2934279 0 .1956185-.1615979 1.0135309-.2622423 2.0270618-.0623711.6548969-.1275773 2.1588918-.1275773 2.388531 0 .2948453 0 .6222938-.3302835.6222938-.1956186 0-.2608247-.2282217-.2608247-.4592784 0-.2282216-.0652062-.6208763-.1956186-1.0135309-.164433-.4578608-.6548969-1.0447165-1.6684278-1.1779639-.8179124-.0949743-4.2851804-.0949743-4.8436856-.0949743-.1630155 0-.2282217.0652062-.2282217.2934279z"/><path d="m87.3720361 33.5315722c.1332474 0 .1658505-.0652062.1332474-.164433l-2.7159794-7.063531c-.0326031-.1006443-.0652062-.2622422-.1304123-.2622422-.0978093 0-.1318299.1615979-.164433.2622422l-2.7797681 7.0309279c-.0652062.1318299 0 .1970361.0978093.1970361zm-6.1478093 1.5380154c-.1630155 0-.1970361.0326031-.2622423.1956186l-1.5365979 3.7295103c-.2934278.6860825-.4252577 1.3735825-.4252577 1.7010309 0 .4904639.2608247.7838918 1.1439433.7838918h.4266752c.358634 0 .4252578.1304123.4252578.2934278 0 .2296392-.164433.2962629-.4578609.2962629-.9497422 0-2.2907216-.0978093-3.2064433-.0978093-.2948453 0-1.8300257.0978093-3.3354381.0978093-.3614691 0-.523067-.0666237-.523067-.2962629 0-.1630155.0963917-.2934278.3260309-.2934278.2608247 0 .5896907-.0311856.8505155-.0311856 1.3069587-.1970361 1.8002577-1.0475515 2.3871134-2.4537371l7.5242268-17.5007732c.3274484-.7838918.5542526-1.1113402.8490979-1.1113402.4252577 0 .5570876.2608247.851933.8831185.6860825 1.5380155 5.4943299 12.9207475 7.3257732 17.1407217 1.1127577 2.5175258 1.9306701 2.8775773 2.4537371 2.9753866.4252577.0666237.7512887.0978093 1.0801547.0978093.2608247 0 .3898195.0992268.3898195.2934278 0 .2296392-.1630154.2962629-1.240335.2962629-1.0149485 0-3.108634 0-5.5297681-.0666237-.523067-.0311856-.8505154-.0311856-.8505154-.2296392 0-.1630155.0652062-.2608247.3614691-.2934278.1956185-.0311856.3912371-.2934279.2594072-.6222938l-2.2226804-5.5921392c-.0652062-.1630155-.164433-.1956186-.2934279-.1956186z"/><path d="m103.665077 31.242268c0 .2934279.063789.3926547.259408.490464.620876.1956185 1.472809.2622422 2.192912.2622422 1.145361 0 1.536598-.0992268 2.025644-.4592783.884536-.6208763 1.865464-1.8286083 1.865464-4.1207474 0-3.9251289-2.681959-4.9400774-4.381572-4.9400774-.720103 0-1.409021.0354382-1.702448.0992268-.195619.0623712-.259408.164433-.259408.3926547zm-3.6657213-2.1588917c0-4.2199742 0-5.003866-.0311856-5.8884021-.0666237-.9483247-.3274485-1.2417526-1.2431701-1.5025773-.2282216-.0666237-.7201031-.1006443-1.1467784-.1006443-.2934278 0-.4904639-.0978093-.4904639-.2934279 0-.1956185.2310567-.2608247.6563145-.2608247 1.5039948 0 3.3354378.0652062 3.9237118.0652062.982345 0 3.59768-.0652062 4.480798-.0652062 1.832861 0 3.925129.1615979 5.463145 1.1779639.816495.5528351 2.028479 1.9618557 2.028479 3.8259021 0 2.0610825-1.177964 3.8939433-3.990335 6.1478093 2.550129 3.1412371 4.580026 5.6601804 6.312242 7.3938144 1.601805 1.6032216 2.616753 1.7322165 3.074614 1.8314433.293428.0652062.457861.0652062.6875.0652062s.360051.1630154.360051.2934278c0 .2296392-.197036.2962629-.557087.2962629h-2.748583c-1.601804 0-2.387113-.164433-3.138402-.5570876-1.244587-.6208763-2.323325-1.9292526-3.926546-4.0867268-1.143944-1.5068299-2.354511-3.3708763-2.714562-3.7947165-.163016-.164433-.326031-.1984536-.524485-.1984536l-2.582732-.0652062c-.130412 0-.226804.0652062-.226804.2296392v.3926546c0 2.5841495.031186 4.7430412.163016 5.9210051.096392.8179124.226804 1.3409794 1.109922 1.4713918.426676.0666237 1.04897.0978093 1.407604.0978093.231056 0 .358634.1630154.358634.2934278 0 .1984536-.22964.2962629-.586856.2962629-1.66701 0-4.056959-.0978093-4.482217-.0978093-.55567 0-2.387113.0978093-3.5324738.0978093-.358634 0-.5556701-.0978093-.5556701-.2962629 0-.1304124.0963917-.2934278.4578608-.2934278.4252577 0 .7512887-.0311856 1.0149485-.0978093.5882732-.1304124.7512886-.6534794.8490979-1.4713918.1304124-1.1779639.1304124-3.3694587.1304124-5.9210051z"/><path d="m123.518943 21.1338918c.065206-.4578609.327449-.7186856.55567-.7186856.294846 0 .491882.1318299.883119.8831185l7.718428 15.5034794 7.721263-15.6990979c.228221-.4592784.490464-.6875.749871-.6875.229639 0 .558505.2948453.654897.8831185l2.61817 17.1719073c.260825 1.733634.521649 2.4863402 1.406185 2.7485824.817913.2296392 1.275774.2608248 1.635825.2608248.260825 0 .456443.0992268.456443.2622422 0 .2296392-.32603.3274485-.749871.3274485-.720103 0-4.809665-.1318299-5.955025-.1956186-.686083-.0340206-.850516-.1644329-.850516-.3274484 0-.1318299.130412-.2310567.327449-.2948454.163015-.0652062.228221-.3940721.131829-1.1779639l-1.604639-12.0362113h-.096392l-6.183247 12.4274484c-.653479 1.3083763-.816495 1.5706186-1.143943 1.5706186-.360052 0-.6875-.5556701-1.143944-1.4061856-.6875-1.2743557-2.978221-5.526933-3.30567-6.3122423-.229639-.523067-1.927835-4.0229381-2.877577-5.9536082h-.097809l-1.373583 10.8596649c-.065206.490464-.099227.8505155-.099227 1.3083763 0 .5244846.392655.7201031.883119.8164949.491881.1006443.754124.1318299 1.014948.1318299.262243 0 .456444.1304123.456444.2622422 0 .2608248-.260825.3274485-.684665.3274485-1.211985 0-2.520361-.0978093-3.043428-.0978093-.554253 0-1.929253.0978093-2.846392.0978093-.293428 0-.521649-.0666237-.521649-.3274485 0-.1318299.163015-.2622422.456443-.2622422.229639 0 .425258 0 .884536-.0652062.783892-.0992268 1.046134-1.210567 1.177964-2.1262887z"/><path d="m163.589562 38.9621134c-3.206443-2.8137887-4.056959-6.4780928-4.056959-9.6505155 0-2.2240979.686083-6.0826031 3.82732-8.9615979 2.355928-2.1603093 5.463144-3.467268 10.336598-3.467268 2.027061 0 3.237628.1318299 4.743041.3288659 1.24317.161598 2.289304.4564433 3.270232.5542526.360051.0340206.491881.1970361.491881.3926547 0 .2622422-.100644.6534793-.16585 1.7988402-.062371 1.0801546-.031186 2.8775773-.09781 3.5324742-.031185.4904639-.096391.7512886-.391237.7512886-.262242 0-.327448-.2608247-.327448-.7186855-.034021-1.0121134-.457861-2.1588918-1.277191-3.0094072-1.075902-1.1453609-3.628866-2.0270619-6.638273-2.0270619-2.846392 0-4.710438.7186856-6.149227 2.0270619-2.387113 2.1900773-3.009407 5.3001288-3.009407 8.4725515 0 7.7864691 5.921005 11.6435567 10.30116 11.6435567 2.913015 0 4.679252-.3260309 5.989046-1.8300258.55567-.6222938.97951-1.5706185 1.11134-2.1588917.096392-.5259021.163016-.6548969.426676-.6548969.228221 0 .293427.2282216.293427.4904639 0 .3912371-.394072 3.2376289-.720103 4.3489691-.163015.5570876-.294845.7215206-.851933.9483247-1.306958.5244845-3.791881.7527062-5.886984.7527062-4.480799 0-8.242913-.9795103-11.218299-3.5636598"/><path d="m190.314175 31.242268c0 .2934279.066624.3926547.259407.490464.622294.1956185 1.47281.2622422 2.192913.2622422 1.143943 0 1.536598-.0992268 2.027062-.4592783.884536-.6208763 1.866881-1.8286083 1.866881-4.1207474 0-3.9251289-2.683376-4.9400774-4.384407-4.9400774-.720103 0-1.407603.0354382-1.702449.0992268-.192783.0623712-.259407.164433-.259407.3926547zm-3.664304-2.1588917c0-4.2199742 0-5.003866-.03402-5.8884021-.065207-.9483247-.326031-1.2417526-1.243171-1.5025773-.228221-.0666237-.718685-.1006443-1.143943-.1006443-.294845 0-.490464-.0978093-.490464-.2934279 0-.1956185.229639-.2608247.656315-.2608247 1.502577 0 3.33402.0652062 3.922293.0652062.982346 0 3.599098-.0652062 4.482217-.0652062 1.831443 0 3.925129.1615979 5.463144 1.1779639.816495.5528351 2.027062 1.9618557 2.027062 3.8259021 0 2.0610825-1.177964 3.8939433-3.988917 6.1478093 2.550128 3.1412371 4.575773 5.6601804 6.312242 7.3938144 1.601804 1.6032216 2.615335 1.7322165 3.073196 1.8314433.294845.0652062.459278.0652062.6875.0652062.229639 0 .360051.1630154.360051.2934278 0 .2296392-.197036.2962629-.557087.2962629h-2.747165c-1.603222 0-2.388531-.164433-3.13982-.5570876-1.24317-.6208763-2.321907-1.9292526-3.923711-4.0867268-1.146779-1.5068299-2.355928-3.3708763-2.71598-3.7947165-.163015-.164433-.328866-.1984536-.523067-.1984536l-2.584149-.0652062c-.13183 0-.228222.0652062-.228222.2296392v.3926546c0 2.5841495.029768 4.7430412.163016 5.9210051.096391.8179124.228221 1.3409794 1.112757 1.4713918.423841.0666237 1.044717.0978093 1.404768.0978093.22964 0 .36147.1630154.36147.2934278 0 .1984536-.22964.2962629-.589691.2962629-1.66701 0-4.056959-.0978093-4.480799-.0978093-.557088 0-2.388531.0978093-3.532474.0978093-.358634 0-.55567-.0978093-.55567-.2962629 0-.1304124.094974-.2934278.456443-.2934278.425258 0 .754124-.0311856 1.013531-.0978093.58969-.1304124.752706-.6534794.851933-1.4713918.130412-1.1779639.130412-3.3694587.130412-5.9210051z"/><path d="m207.127448 29.0833763c0-4.2199742 0-5.003866-.032603-5.8884021-.066623-.9483247-.328866-1.2417526-1.24317-1.5025773-.229639-.0666237-.718685-.1006443-1.143943-.1006443-.296263 0-.491881-.0978093-.491881-.2934279 0-.1956185.228221-.2608247.654896-.2608247 1.503995 0 3.335439.0652062 4.153351.0652062.917139 0 7.29317.0311856 7.850258 0 .523067-.0326031.982345-.1318299 1.209149-.164433.164433-.0326031.328866-.1304124.459279-.1304124.164432 0 .195618.1304124.195618.2622423 0 .1956185-.163015.5216495-.229639 1.7988402-.029768.2948454-.096392 1.5039948-.161598 1.8314433-.034021.1318299-.099227.4564433-.328866.4564433-.194201 0-.228222-.1289948-.228222-.358634 0-.1970361-.032603-.6875-.195618-1.013531-.228222-.4904639-.457861-.8831185-1.898067-1.0163659-.491882-.0652062-3.923712-.1318299-4.51482-.1318299-.130412 0-.192783.1020618-.192783.2650773v6.8664948c0 .1672681.029768.2962629.192783.2962629.654897 0 4.38299 0 5.039304-.0652062.686083-.0637886 1.109923-.1289948 1.373583-.4238402.229639-.1984536.326031-.3600515.457861-.3600515.130412 0 .228221.1304124.228221.2934278 0 .1630155-.065206.6194588-.228221 2.0270619-.065207.5570876-.13183 1.6698453-.13183 1.8640464 0 .2310567-.031186.6222938-.293428.6222938-.195619 0-.260825-.0978093-.260825-.2282217-.035438-.2948453-.035438-.6548969-.100644-1.0149484-.163016-.5542526-.523067-.9809279-1.601804-1.0787371-.523067-.0652062-3.793299-.1318299-4.513402-.1318299-.13183 0-.161598.1318299-.161598.2962629v2.2226804c0 .9483247-.035438 3.302835 0 4.1221649.062371 1.8966495.945489 2.3219072 3.891108 2.3219072.751289 0 1.961856-.0326031 2.714562-.3600515.718685-.3260309 1.046134-.9157217 1.24317-2.059665.065206-.2948453.130412-.4266752.326031-.4266752.228221 0 .260825.3614691.260825.6548969 0 .6222938-.226805 2.5175258-.391238 3.0746134-.195618.7201031-.45786.7201031-1.538015.7201031-2.157474 0-3.892526-.0326031-5.297294-.0992268-1.407603-.0326031-2.487758-.0637887-3.338273-.0637887-.326031 0-.948325.0311856-1.634407.0311856-.6875.0326031-1.406186.0666237-1.995877.0666237-.358634 0-.55567-.0978093-.55567-.2962629 0-.1304124.09781-.2934278.459279-.2934278.42384 0 .751288-.0311856 1.013531-.0978093.588273-.1304124.752706-.6534794.849098-1.4713918.131829-1.1779639.131829-3.3694587.131829-5.9210051z"/><path d="m227.064948 32.1594072c0 2.9427835.032604 5.0690722.065207 5.6247423.032603.6860825.099226 1.6684278.327448 1.9632732.360052.523067 1.505412 1.1099227 3.760696 1.1099227 2.616753 0 4.547423-.4564433 6.281057-1.895232 1.862629-1.5365979 2.453737-4.0243557 2.453737-6.901933 0-3.5324742-1.406186-5.8231959-2.683377-6.9345361-2.647938-2.3573453-5.787757-2.6507732-8.045876-2.6507732-.588273 0-1.53518.0666237-1.766237.1984536-.262242.0949743-.360051.2282217-.360051.5556701-.032604.9483248-.032604 3.2376289-.032604 5.4291238zm-3.859922-3.0760309c0-4.2199742 0-5.003866-.032603-5.8884021-.065207-.9483247-.326031-1.2417526-1.241753-1.5025773-.229639-.0666237-.720103-.1006443-1.143943-.1006443-.294846 0-.491882-.0978093-.491882-.2934279 0-.1956185.226804-.2608247.65348-.2608247 1.505412 0 3.336855.0652062 4.15335.0652062.884536 0 2.944201-.0652062 4.679253-.0652062 3.596263 0 8.438531 0 11.576933 3.1724227 1.438788 1.4387886 2.715979 3.7606959 2.715979 7.0649484 0 3.4998712-1.505412 6.1506444-3.141237 7.7524485-1.306959 1.3083763-4.350387 3.2702319-9.649098 3.2702319-1.046134 0-2.289304-.0978092-3.433247-.1630154-1.143944-.0992268-2.191495-.1630155-2.911598-.1630155-.327449 0-.948325.0311856-1.634407.0311856-.688918.0326031-1.409021.0666237-1.995877.0666237-.360051 0-.557087-.0978093-.557087-.2962629 0-.1304124.099226-.2934278.459278-.2934278.425258 0 .751289-.0311856 1.014948-.0978093.588274-.1304124.751289-.6534794.849098-1.4713918.130413-1.1779639.130413-3.3694587.130413-5.9210051z"/><path d="m246.78982 29.0833763c0-4.2199742 0-5.003866-.032604-5.8884021-.065206-.9483247-.360051-1.2743556-.980927-1.4713917-.328866-.0978093-.6875-.1318299-1.047552-.1318299-.294845 0-.456443-.0637887-.456443-.326031 0-.1630154.228221-.2282216.686082-.2282216 1.078737 0 3.043428.0652062 3.859923.0652062.718686 0 2.584149-.0652062 3.69549-.0652062.360051 0 .588273.0652062.588273.2282216 0 .2622423-.163016.326031-.457861.326031-.293428 0-.521649.0340206-.850515.1006443-.783892.1275773-1.013531.523067-1.078738 1.5025773-.065206.8845361-.065206 1.6684279-.065206 5.8884021v4.9060567c0 2.6819588 0 4.9060567.130413 6.0840206.097809.7512887.294845 1.1779639 1.143943 1.3083763.394072.0666237 1.047551.0978093 1.471392.0978093.330283 0 .459278.1630154.459278.2934278 0 .1984536-.229639.2962629-.55567.2962629-1.89665 0-3.858505-.0978093-4.643814-.0978093-.65348 0-2.618171.0978093-3.763531.0978093-.360052 0-.552835-.0978093-.552835-.2962629 0-.1304124.094974-.2934278.455025-.2934278.425258 0 .754124-.0311856 1.014949-.0978093.588273-.1304124.751288-.5244845.850515-1.3409794.130413-1.1453608.130413-3.3694587.130413-6.0514175z"/><path d="m262.622165 22.7385309-4.28518.0963918c-1.668428.0340206-2.355928.2282216-2.781186.8505154-.294845.3940722-.42384.7527062-.490464.9497423-.063789.2282217-.130412.358634-.326031.358634-.198453 0-.26366-.1615979-.26366-.4564433 0-.4578608.558505-3.1398196.622294-3.3694587.065206-.3600516.163016-.5244846.328866-.5244846.228222 0 .523067.2296392 1.241753.3274485.850515.0992268 1.93067.1318299 2.878995.1318299h11.674742c.917139 0 1.538015-.0652062 1.963273-.1318299.459278-.0652062.688918-.1304124.783892-.1304124.198453 0 .231056.1630155.231056.5882732 0 .5896907-.065206 2.6507732-.065206 3.3694588-.03402.2948453-.099227.4578608-.260824.4578608-.22964 0-.294846-.1304124-.327449-.5556701l-.034021-.2948454c-.065206-.7201031-.817912-1.5706185-3.400644-1.6018041l-3.631701-.0652062v11.2509021c0 2.5515464.034021 4.7430412.163016 5.9536082.099226.7853093.262242 1.3083763 1.114175 1.4387887.391237.0666237 1.044716.0978093 1.471392.0978093.327448 0 .45786.1630154.45786.2934278 0 .1984536-.229639.2962629-.557087.2962629-1.89665 0-3.825902-.0978093-4.643815-.0978093-.654897 0-2.61817.0978093-3.762113.0978093-.360052 0-.557088-.0978093-.557088-.2962629 0-.1304124.099227-.2934278.459279-.2934278.42384 0 .783891-.0311856 1.013531-.0978093.58969-.1304124.751288-.6534794.850515-1.4713918.13183-1.1779639.13183-3.3694587.13183-5.9210051z"/><path d="m35.9824742 54.6356959c.2962629 0 .5641753-.0170103.5641753-.3770619 0-.2863402-.2622423-.3416237-.5032217-.3416237h-.4805412v.7186856zm-.4195876 1.3012886h-.3515464v-2.3162371h.8845361c.5457474 0 .8179124.2055413.8179124.6591495 0 .4153351-.2622423.5953608-.5981959.6378866l.6563144 1.019201h-.3969072l-.606701-1.0036082h-.4054124zm.4238402.5159794c.9100516 0 1.6259021-.714433 1.6259021-1.6783505 0-.9483247-.7158505-1.6684278-1.6259021-1.6684278-.9185567 0-1.6329897.7201031-1.6329897 1.6684278 0 .9639175.714433 1.6783505 1.6329897 1.6783505zm-2.035567-1.6783505c0-1.153866.935567-1.9987113 2.035567-1.9987113 1.0943299 0 2.0284794.8448453 2.0284794 1.9987113 0 1.1623711-.9341495 2.0100515-2.0284794 2.0100515-1.1 0-2.035567-.8476804-2.035567-2.0100515z"/><path d="m29.0677835 43.8157216 6.7091495 6.516366c-.6520619.6563145-1.3197165 1.3367268-1.9746134 2.0100516l-5.0152062-5.0931701z"/><g transform="translate(19.845361 42.525773)"><path d="m7.77938144 1.28994845-6.71056701 6.51636598c.65914949.65631444 1.3253866 1.33672681 1.98028351 2.01005155l5.01378866-5.0931701z" mask="url(#a)"/><path d="m8.48389175 11.9213918-.42525773-5.50567015-4.13634021 4.30077315c2.5076031 2.6054124 4.59987114 4.8762887 4.59987114 4.8762887l4.65373715-4.8833763-4.31636602-4.27809277z" mask="url(#a)"/></g><path d="m29.2945876 38.2689433 9.3712629 9.0565722c-.2962629.4876288-1.3664948 1.5904639-2.0100515 2.1362113l-7.5766753-7.8417526z"/><path d="m27.2278351 38.2689433-9.3712629 9.0565722c.2976804.4876288 1.3679123 1.5904639 2.0043814 2.1362113l7.5795103-7.8417526z"/><path d="m29.7581186 31.9637887 8.1890463 7.975s2.4835052 3.0774484 1.3934279 6.1988402l-9.8305413-10.172165z"/><path d="m26.9811856 31.9652062-8.190464 7.840335s-2.4792525 3.078866-1.3920103 6.2045103l9.8418815-10.0587628z"/><path d="m56.6953608 29.7467784-9.1954897-9.3074743s-4.0768041-3.5735825-7.9877577-.6875c-3.9123711 2.8903351-8.8396907 8.6157217-8.8396907 8.6157217l20.7157216 1.2318299-20.7128866 1.5224227 7.8389176 8.1918814s4.7146907 3.8046392 8.3846649-.056701c3.6813144-3.8655928 9.7965206-9.5101804 9.7965206-9.5101804"/><path d="m28.3264175 1.20347938-9.3060567 9.19123712s-3.5792526 4.0824742-.6917526 7.9920103c2.8875 3.9137887 8.6157217 8.8396907 8.6157217 8.8396907l1.4175258-20.67744843 1.3367268 20.67461343 8.1904639-7.8403351s3.8046392-4.7118556-.0581186-8.3846649c-3.8641752-3.67564436-9.5045103-9.79510312-9.5045103-9.79510312" mask="url(#b)"/><path d="m0 29.6787371 9.19407216 9.3117268s4.07822164 3.5778351 7.98917524.6903351c3.9109536-2.8903351 8.8425258-8.6171392 8.8425258-8.6171392l-20.71713918-1.458634 20.71713918-1.291366-7.8431701-8.1947165s-4.7118557-3.8046392-8.38750001.0581186c-3.6798969 3.8613402-9.79510309 9.5016752-9.79510309 9.5016752" mask="url(#b)"/></g></svg>