<svg height="67" viewBox="0 0 228 67" width="228" xmlns="http://www.w3.org/2000/svg"><g fill="#fffffe" fill-rule="evenodd"><path d="m227.586 33.587c-51.029-.409-106.599-.973-156.068.179 0-.177 0-.354 0-.532 55.421-2.625 100.125-2.881 155.966-.169.034.174.069.349.102.522"/><path d="m82.206 17.222-.828 2.293c-.223.636-.318 1.082-.318 1.241 0 .956 1.655.605 1.655 2.007v.732h-6.178v-.732c0-.796.51-1.019 1.051-1.306.86-.446 1.242-1.051 1.752-2.388l5.509-14.394-.605-1.497c-.064-.127-.064-.223-.064-.287 0-.191.191-.382.573-.605l2.834-1.592c.224-.128.351-.223.606-.223.254 0 .382.223.541.605l7.133 18.63c.446 1.146.669 1.655 1.465 1.942.542.191.956.255.956 1.115v.732h-9.236v-.732c0-1.274 1.466-.892 1.466-1.943 0-.286-.064-.541-.16-.828l-.955-2.77zm.764-2.134h5.669l-2.803-7.674z"/><path d="m106.423 21.071c3.929 0 5.944 1.353 5.944 3.751 0 2.576-2.449 4.235-7.092 4.235-3.47 0-5.23-.868-5.23-2.373 0-1.046.842-1.786 1.964-1.786.995 0 1.633.561 1.633 1.429 0 .434-.23.791-.23.944 0 .23.74.459 1.99.459 1.965 0 3.164-.791 3.164-1.862 0-1.072-1.25-1.888-3.623-1.888-3.164 0-4.873.51-5.23.51s-.638-.306-.638-.689c0-.433.255-.765.613-1.199l2.449-3.112c-1.531-1.072-2.195-2.322-2.195-4.057 0-2.781 2.093-4.746 5.511-4.746 1.047 0 2.067.077 3.496.817.025-1.352.893-2.194 2.117-2.194 1.097 0 1.837.664 1.837 1.684 0 .765-.484 1.25-1.276 1.25-.739 0-.918-.51-1.352-.51-.204 0-.306.077-.306.281 0 .05.026.101.026.178 1.122 1.097 1.556 2.092 1.556 3.521 0 2.602-2.22 4.465-6.072 4.465-.561 0-1.148-.026-1.786-.204l-1.046 1.428c1.505-.178 2.755-.332 3.776-.332zm-2.373-5.74c0 2.398.536 3.546 1.684 3.546s1.684-1.122 1.684-3.495c0-2.347-.536-3.47-1.684-3.47-1.123 0-1.684 1.123-1.684 3.419z"/><path d="m127.366 23.877c-6.433 0-11.146-4.968-11.146-12.133 0-6.305 4.267-11.145 10.032-11.145 3.375 0 4.936 1.687 5.986 1.687.414 0 .606-.191.828-.668h1.434v6.209h-.766c-.7 0-1.05-.223-1.4-.923-1.306-2.484-2.165-4.331-4.713-4.331-3.439 0-5.701 3.312-5.701 8.821 0 6.497 2.707 10.095 6.847 10.095 2.07 0 3.44-.988 5.032-3.153l1.4 1.146c-1.592 2.898-4.234 4.395-7.833 4.395"/><path d="m147.652 23.725c-1.25 0-2.013-.485-2.703-1.709-1.148 1.25-2.297 1.785-3.929 1.785-2.679 0-4.415-1.556-4.415-3.572 0-2.474 2.655-4.286 7.731-4.821v-.332c0-2.016-.893-3.113-2.143-3.113-.664 0-1.072.434-1.072 1.046 0 .23.078.46.078.664 0 .892-.74 1.556-1.787 1.556-1.097 0-1.888-.765-1.888-1.76 0-1.48 1.812-2.782 5.027-2.782 1.889 0 3.265.358 4.439 1.404 1.377 1.224 1.479 2.602 1.479 4.719v4.083c0 .638.205.867.74.867.129 0 .332-.051.613-.179l.51.74c-.639.945-1.531 1.404-2.68 1.404zm-3.291-7.093c-2.269.332-3.468 1.557-3.468 3.444 0 1.174.611 1.94 1.48 1.94 1.25 0 1.988-1.251 1.988-3.7z"/><path d="m159.697 10.687c1.276 0 2.041.817 2.041 2.016s-.791 2.016-1.838 2.016c-1.07 0-1.173-.97-1.81-.97-.69 0-1.914 2.373-1.914 5.358v1.607c0 .791.025 1.072.562 1.378.409.229.791.306.791.791v.612h-6.609v-.612c0-.485.357-.562.791-.791.537-.306.562-.613.562-1.404v-7.423c0-.817-.078-.945-.537-1.123-.611-.255-.816-.127-.816-.638v-.536l4.898-.204v3.623c1.225-2.526 2.221-3.7 3.879-3.7"/><path d="m169.316 10.687c4.082 0 7.016 2.705 7.016 6.558 0 3.852-3.06 6.556-7.016 6.556-3.955 0-6.99-2.678-6.99-6.608 0-3.801 2.883-6.506 6.99-6.506zm-2.882 6.456c0 3.52 1.019 5.306 2.882 5.306 1.836 0 2.883-1.786 2.883-5.204 0-3.445-1.047-5.23-2.883-5.23-1.785 0-2.882 1.785-2.882 5.128z"/><path d="m178.502 6.58c-.611-.255-.816-.127-.816-.638v-.535l5.255-.23v15.792c0 1.556 1.379 1.021 1.379 1.914v.612h-6.634v-.612c0-.485.357-.562.791-.791.537-.306.562-.613.562-1.404v-12.985c0-.817-.078-.944-.537-1.123"/><path d="m190.621 20.969c0 1.556 1.379 1.021 1.379 1.914v.612h-6.635v-.612c0-.485.358-.562.791-.791.537-.306.563-.613.563-1.404v-7.423c0-.817-.078-.945-.537-1.123-.612-.255-.817-.127-.817-.638v-.536l5.256-.204zm.129-13.496c0 1.276-.996 2.271-2.195 2.271s-2.143-.97-2.143-2.271c0-1.276.969-2.296 2.143-2.296 1.148 0 2.195 1.046 2.195 2.296z"/><path d="m198.199 20.944c0 .612.026.893.51 1.199.332.204.563.306.563.74v.612h-6.225v-.612c0-.485.355-.562.791-.791.535-.306.56-.613.56-1.404v-7.423c0-.817-.076-.945-.535-1.123-.613-.255-.816-.127-.816-.638v-.536l4.898-.204v1.199c1.276-.893 2.703-1.326 4.336-1.326 3.598 0 4.108 1.735 4.108 5.179v4.898c0 .791.025 1.072.562 1.378.408.229.791.306.791.791v.612h-6.201v-.612c0-.867 1.072-.383 1.072-1.939v-5.868c0-1.811-.383-2.679-1.785-2.679-.945 0-1.863.383-2.629 1.097z"/><path d="m219.887 23.725c-1.25 0-2.016-.485-2.703-1.709-1.149 1.25-2.297 1.785-3.93 1.785-2.68 0-4.414-1.556-4.414-3.572 0-2.474 2.654-4.286 7.73-4.821v-.332c0-2.016-.892-3.113-2.142-3.113-.664 0-1.072.434-1.072 1.046 0 .23.076.46.076.664 0 .892-.739 1.556-1.785 1.556-1.098 0-1.889-.765-1.889-1.76 0-1.48 1.812-2.782 5.027-2.782 1.887 0 3.266.358 4.44 1.404 1.377 1.224 1.478 2.602 1.478 4.719v4.083c0 .638.205.867.74.867.127 0 .332-.051.614-.179l.509.74c-.638.945-1.531 1.404-2.679 1.404zm-3.291-7.093c-2.27.332-3.469 1.557-3.469 3.444 0 1.174.611 1.94 1.478 1.94 1.251 0 1.991-1.251 1.991-3.7z"/><path d="m86.323 48.148c0 2.001 0 3.567.104 4.444.063.604.189 1.062.814 1.146.292.042.751.084 1.043.084.273 0 .355.063.355.167 0 .147-.146.208-.459.208-1.314 0-2.628-.061-3.171-.061s-1.858.061-2.651.061c-.292 0-.438-.042-.438-.208 0-.104.084-.167.313-.167.314 0 .565-.042.751-.084.419-.084.522-.542.607-1.146.102-.877.102-2.443.102-4.444v-3.672c0-3.171 0-3.756-.041-4.426-.041-.707-.208-1.04-.896-1.188-.167-.042-.523-.061-.814-.061-.21 0-.355-.043-.355-.167 0-.168.167-.209.479-.209.543 0 1.148.02 1.692.02.542.021 1.021.042 1.313.042.793 0 5.029 0 5.508-.021.398-.021.648-.021.856-.082.125-.043.23-.126.334-.126.083 0 .146.083.146.187 0 .147-.105.396-.167.939-.02.209-.063 1.44-.104 1.69-.021.166-.062.292-.209.292-.144 0-.19-.103-.208-.334 0-.168 0-.501-.124-.792-.148-.293-.586-.606-1.379-.626l-3.213-.063c-.124 0-.188.063-.188.293v5.216c0 .124.021.187.147.187l2.67-.02c.355 0 .648 0 .938-.022.399-.021.69-.104.899-.376.104-.123.144-.209.268-.209.086 0 .127.063.127.19 0 .124-.103.646-.166 1.292-.041.417-.085 1.378-.085 1.524 0 .188 0 .395-.208.395-.125 0-.167-.145-.167-.292 0-.145-.042-.396-.125-.646-.104-.293-.417-.667-1.063-.751-.523-.063-2.734-.063-3.088-.063-.105 0-.147.042-.147.189z"/><path d="m94.543 49.732c-.106 0-.125.021-.168.126l-.979 2.378c-.189.439-.273.877-.273 1.086 0 .314.167.5.732.5h.27c.231 0 .272.084.272.189 0 .144-.105.186-.293.186-.605 0-1.46-.061-2.043-.061-.19 0-1.17.061-2.13.061-.229 0-.334-.042-.334-.186 0-.105.064-.189.209-.189.166 0 .376-.02.544-.02.832-.124 1.146-.668 1.521-1.566l4.799-11.162c.208-.501.357-.71.544-.71.269 0 .353.167.541.564.439.981 3.506 8.241 4.675 10.933.709 1.607 1.23 1.836 1.564 1.899.273.042.48.062.689.062.166 0 .25.063.25.189 0 .144-.104.186-.792.186-.647 0-1.984 0-3.527-.042-.334-.019-.544-.019-.544-.144 0-.105.042-.167.231-.189.125-.02.252-.186.167-.396l-1.419-3.568c-.041-.105-.104-.126-.187-.126zm3.921-.979c.085 0 .105-.042.085-.106l-1.734-4.505c-.02-.063-.041-.168-.084-.168-.061 0-.082.105-.102.168l-1.773 4.486c-.041.083 0 .125.061.125z"/><path d="m106.517 45.915c0-2.691 0-3.192-.021-3.756-.041-.605-.208-.793-.793-.96-.144-.042-.461-.062-.73-.062-.187 0-.313-.063-.313-.188s.147-.168.416-.168c.959 0 2.131.043 2.505.043.625 0 2.294-.043 2.859-.043 1.168 0 2.502.106 3.482.753.523.355 1.297 1.25 1.297 2.44 0 1.315-.753 2.484-2.547 3.922 1.628 2.003 2.922 3.611 4.026 4.717 1.024 1.023 1.669 1.106 1.962 1.167.188.042.291.042.439.042.144 0 .229.105.229.189 0 .144-.125.186-.355.186h-1.753c-1.022 0-1.523-.104-2.001-.353-.794-.398-1.484-1.231-2.505-2.609-.732-.96-1.503-2.149-1.733-2.421-.102-.103-.208-.125-.333-.125l-1.648-.042c-.082 0-.146.042-.146.147v.251c0 1.647.021 3.024.105 3.776.063.522.147.857.709.939.272.042.666.062.897.062.147 0 .23.105.23.189 0 .125-.147.186-.377.186-1.063 0-2.587-.061-2.858-.061-.353 0-1.525.061-2.253.061-.231 0-.355-.061-.355-.186 0-.084.063-.189.29-.189.273 0 .484-.02.65-.062.376-.082.479-.417.542-.939.083-.752.083-2.15.083-3.776zm2.337 1.377c0 .188.041.25.168.313.394.124.938.166 1.396.166.73 0 .981-.061 1.295-.291.563-.397 1.187-1.169 1.187-2.629 0-2.505-1.711-3.151-2.794-3.151-.459 0-.898.021-1.084.063-.127.041-.168.104-.168.25z"/><path d="m121.519 40.845c.038-.292.206-.46.351-.46.189 0 .314.085.563.564l4.925 9.89 4.925-10.015c.146-.293.313-.439.48-.439.144 0 .355.188.418.564l1.669 10.953c.166 1.107.333 1.586.897 1.752.522.148.815.168 1.042.168.167 0 .291.063.291.167 0 .147-.207.208-.477.208-.46 0-3.068-.083-3.8-.125-.438-.019-.54-.103-.54-.209 0-.083.083-.144.208-.185.105-.042.144-.252.083-.753l-1.022-7.678h-.063l-3.945 7.929c-.415.835-.521 1.002-.728 1.002-.231 0-.439-.356-.731-.898-.439-.814-1.9-3.527-2.108-4.026-.145-.335-1.23-2.567-1.835-3.798h-.063l-.874 6.927c-.044.312-.065.542-.065.833 0 .336.25.462.564.522.313.064.48.084.647.084.166 0 .291.084.291.167 0 .166-.165.208-.438.208-.772 0-1.607-.061-1.94-.061-.355 0-1.231.061-1.816.061-.188 0-.333-.042-.333-.208 0-.083.104-.167.292-.167.146 0 .271 0 .563-.042.5-.061.667-.771.749-1.356z"/><path d="m147.071 52.216c-2.044-1.794-2.589-4.131-2.589-6.156 0-1.416.441-3.88 2.444-5.716 1.501-1.377 3.486-2.212 6.597-2.212 1.291 0 2.061.084 3.022.209.792.104 1.46.293 2.087.355.229.021.312.124.312.249 0 .168-.063.417-.102 1.148-.043.688-.024 1.837-.063 2.253-.021.313-.065.481-.252.481-.165 0-.21-.168-.21-.459-.017-.647-.291-1.378-.813-1.92-.686-.729-2.317-1.294-4.237-1.294-1.814 0-3.002.46-3.92 1.294-1.523 1.398-1.92 3.381-1.92 5.404 0 4.966 3.774 7.428 6.571 7.428 1.859 0 2.987-.208 3.82-1.169.354-.396.625-1.001.709-1.377.066-.333.105-.418.272-.418.145 0 .188.147.188.314 0 .251-.251 2.065-.46 2.775-.101.355-.186.458-.542.606-.833.334-2.42.478-3.757.478-2.857 0-5.256-.626-7.157-2.273"/><path d="m161.782 45.915c0-2.691 0-3.192-.024-3.756-.041-.605-.208-.793-.792-.96-.148-.042-.46-.062-.729-.062-.191 0-.314-.063-.314-.188s.149-.168.416-.168c.961 0 2.131.043 2.506.043.625 0 2.295-.043 2.859-.043 1.165 0 2.501.106 3.482.753.521.355 1.293 1.25 1.293 2.44 0 1.315-.748 2.484-2.544 3.922 1.63 2.003 2.921 3.611 4.026 4.717 1.023 1.023 1.67 1.106 1.961 1.167.188.042.295.042.438.042.148 0 .23.105.23.189 0 .144-.123.186-.354.186h-1.753c-1.021 0-1.522-.104-2.004-.353-.791-.398-1.48-1.231-2.503-2.609-.73-.96-1.501-2.149-1.73-2.421-.106-.103-.21-.125-.336-.125l-1.648-.042c-.083 0-.146.042-.146.147v.251c0 1.647.02 3.024.104 3.776.063.522.148.857.71.939.268.042.67.062.898.062.145 0 .228.105.228.189 0 .125-.146.186-.373.186-1.066 0-2.588-.061-2.86-.061-.353 0-1.523.061-2.252.061-.232 0-.355-.061-.355-.186 0-.084.062-.189.29-.189.271 0 .481-.02.649-.062.375-.082.477-.417.542-.939.085-.752.085-2.15.085-3.776zm2.334 1.377c0 .188.043.25.167.313.397.124.94.166 1.4.166.73 0 .98-.061 1.291-.291.565-.397 1.19-1.169 1.19-2.629 0-2.505-1.709-3.151-2.794-3.151-.46 0-.9.021-1.087.063-.124.041-.167.104-.167.25z"/><path d="m174.84 45.915c0-2.691 0-3.192-.02-3.756-.044-.605-.213-.793-.794-.96-.145-.042-.46-.062-.731-.062-.187 0-.311-.063-.311-.188s.144-.168.415-.168c.958 0 2.13.043 2.649.043.586 0 4.655.021 5.009 0 .332-.02.625-.084.772-.104.105-.021.206-.084.291-.084.105 0 .126.084.126.168 0 .124-.104.333-.147 1.146-.02.188-.064.961-.103 1.167-.019.085-.062.294-.21.294-.122 0-.147-.084-.147-.23 0-.125-.02-.437-.124-.647-.146-.313-.293-.562-1.21-.645-.313-.043-2.502-.085-2.879-.085-.083 0-.124.063-.124.168v4.381c0 .105.021.188.124.188.416 0 2.796 0 3.215-.042.438-.041.707-.083.874-.27.149-.127.211-.23.295-.23.083 0 .143.083.143.186 0 .106-.041.398-.143 1.295-.043.355-.084 1.064-.084 1.189 0 .145-.023.396-.19.396-.126 0-.167-.063-.167-.146-.021-.188-.021-.416-.064-.647-.103-.353-.332-.626-1.02-.688-.332-.042-2.422-.084-2.882-.084-.08 0-.101.084-.101.188v1.418c0 .608-.02 2.107 0 2.63.041 1.21.603 1.48 2.484 1.48.477 0 1.249-.02 1.729-.229.462-.207.668-.584.794-1.313.039-.189.083-.272.211-.272.144 0 .167.23.167.417 0 .397-.148 1.607-.252 1.961-.126.458-.293.458-.983.458-1.378 0-2.479-.018-3.378-.06-.9-.023-1.586-.042-2.128-.042-.211 0-.607.019-1.044.019-.44.023-.895.042-1.275.042-.228 0-.352-.061-.352-.186 0-.084.061-.189.291-.189.274 0 .48-.02.647-.062.377-.082.479-.417.542-.939.085-.752.085-2.15.085-3.776z"/><path d="m184.99 45.915c0-2.691 0-3.192-.019-3.756-.041-.605-.206-.793-.79-.96-.15-.042-.46-.062-.731-.062-.189 0-.314-.063-.314-.188s.147-.168.418-.168c.959 0 2.126.043 2.649.043.564 0 1.879-.043 2.985-.043 2.293 0 5.384 0 7.384 2.025.918.918 1.732 2.399 1.732 4.506 0 2.235-.959 3.923-2.002 4.946-.833.834-2.778 2.087-6.153 2.087-.671 0-1.462-.064-2.193-.107-.731-.06-1.399-.102-1.857-.102-.208 0-.606.019-1.043.019-.439.023-.897.042-1.274.042-.228 0-.354-.061-.354-.186 0-.084.063-.189.293-.189.271 0 .479-.02.646-.062.373-.082.48-.417.538-.939.085-.752.085-2.15.085-3.776zm2.465 1.961c0 1.877.024 3.234.038 3.588.023.438.068 1.064.213 1.253.228.333.957.709 2.4.709 1.667 0 2.898-.292 4.004-1.21 1.192-.981 1.565-2.566 1.565-4.402 0-2.254-.897-3.714-1.71-4.424-1.69-1.501-3.694-1.69-5.135-1.69-.375 0-.978.041-1.124.124-.169.065-.227.148-.227.356-.024.604-.024 2.066-.024 3.464z"/><path d="m200.033 45.915c0-2.691 0-3.192-.019-3.756-.044-.605-.231-.813-.627-.938-.206-.064-.437-.084-.666-.084-.192 0-.295-.043-.295-.209 0-.104.147-.147.439-.147.691 0 1.943.043 2.463.043.458 0 1.649-.043 2.359-.043.229 0 .375.043.375.147 0 .166-.105.209-.291.209-.191 0-.336.02-.544.062-.502.084-.647.335-.691.96-.039.564-.039 1.065-.039 3.756v3.13c0 1.711 0 3.128.083 3.88.063.48.187.753.729.835.252.042.668.062.941.062.206 0 .291.105.291.189 0 .125-.147.186-.356.186-1.208 0-2.462-.061-2.961-.061-.416 0-1.668.061-2.4.061-.231 0-.355-.061-.355-.186 0-.084.06-.189.293-.189.271 0 .477-.02.648-.062.373-.082.478-.334.538-.854.085-.733.085-2.15.085-3.861z"/><path d="m210.134 41.867-2.736.063c-1.065.02-1.501.145-1.775.543-.187.25-.27.479-.309.604-.044.147-.084.229-.213.229-.126 0-.164-.104-.164-.292 0-.291.352-2.003.396-2.15.041-.228.103-.333.208-.333.146 0 .336.148.792.209.544.064 1.234.084 1.837.084h7.45c.581 0 .979-.043 1.25-.084.292-.041.44-.083.503-.083.124 0 .144.105.144.375 0 .376-.039 1.691-.039 2.149-.023.188-.064.294-.168.294-.148 0-.191-.085-.212-.358l-.018-.185c-.043-.459-.522-1.002-2.172-1.023l-2.314-.042v7.178c0 1.626.023 3.024.101 3.797.064.501.17.836.712.918.25.042.668.062.938.062.212 0 .295.105.295.189 0 .125-.148.186-.356.186-1.211 0-2.443-.061-2.964-.061-.419 0-1.668.061-2.399.061-.228 0-.356-.061-.356-.186 0-.084.065-.189.295-.189.269 0 .499-.02.645-.062.375-.082.481-.417.542-.939.087-.752.087-2.15.087-3.776z"/><path d="m55.317 44.284c4.555-4.388 11.464-10.992 11.464-10.992s-7.003-6.688-11.464-10.995c-4.482-4.326-9.082-.857-10.438.556l-8.559 8.926 24.247 1.513-24.247 1.51 8.559 8.927c1.337 1.362 5.953 4.877 10.438.555"/><path d="m11.889 44.284c-4.539-4.302-11.464-10.992-11.464-10.992s6.89-6.64 11.464-10.995c4.512-4.293 9.083-.857 10.438.556l8.558 8.926-24.247 1.513 24.247 1.51-8.558 8.927c-1.355 1.413-5.918 4.841-10.438.555"/><path d="m22.608 11.579c4.383-4.529 10.995-11.465 10.995-11.465s6.571 6.916 10.994 11.465c4.343 4.465.857 9.081-.556 10.435l-8.926 8.56-1.512-24.248-1.511 24.248-8.927-8.56c-1.413-1.354-4.889-5.96-.557-10.435"/><path d="m32.935 49.552-8.041 7.703c.952.959 1.926 1.964 2.862 2.943l5.494-5.616z"/><path d="m22.608 55.004c.618.592 1.273 1.235 1.946 1.909l8.311-8.499-.324-5.197-11.009 10.544c.29.417.645.832 1.076 1.243"/><path d="m42.311 57.255-8.04-7.703-.315 5.03 5.493 5.616c.936-.979 1.911-1.984 2.862-2.943"/><path d="m34.342 48.412 8.311 8.501c.67-.674 1.326-1.317 1.944-1.909.431-.411.786-.826 1.077-1.243l-11.009-10.544z"/><path d="m46.018 53.214c2.123-3.759-.758-7.477-1.977-8.647l-8.926-8.558-.356 5.693z"/><path d="m33.951 55.522-.042-.18-.306 4.913-.307-4.913-.041.18-5.204 4.985c3.008 3.154 5.552 5.962 5.552 5.962s2.545-2.808 5.552-5.962z"/><path d="m32.447 41.702-.355-5.693-8.927 8.558c-1.219 1.17-4.1 4.888-1.977 8.647z"/><path d="m40.467 62.074c0-.839.681-1.458 1.487-1.458.797 0 1.478.619 1.478 1.458 0 .848-.681 1.466-1.478 1.466-.806 0-1.487-.618-1.487-1.466zm1.487 1.223c.661 0 1.184-.518 1.184-1.223 0-.692-.523-1.215-1.184-1.215-.67 0-1.193.523-1.193 1.215 0 .705.523 1.223 1.193 1.223zm-.31-.375h-.256v-1.687h.643c.398 0 .596.147.596.48 0 .301-.19.433-.437.464l.479.743h-.286l-.445-.732h-.294zm.306-.948c.216 0 .41-.016.41-.275 0-.209-.19-.248-.368-.248h-.348v.523z"/></g></svg>