<svg height="59" viewBox="0 0 281 59" width="281" xmlns="http://www.w3.org/2000/svg" xmlns:xlink="http://www.w3.org/1999/xlink"><mask id="a" fill="#fff"><path d="m.708.653h7.388v8.287h-7.388z" fill="#fff" fill-rule="evenodd"/></mask><mask id="b" fill="#fff"><path d="m.684.653h17.084v8.287h-17.084z" fill="#fff" fill-rule="evenodd"/></mask><mask id="c" fill="#fff"><path d="m.971.653h12.669v8.287h-12.669z" fill="#fff" fill-rule="evenodd"/></mask><mask id="d" fill="#fff"><path d="m.543.653h14.396v8.287h-14.396z" fill="#fff" fill-rule="evenodd"/></mask><g fill="#fff" fill-rule="evenodd"><path d="m4.39 8.148c1.655 0 2.59-1.522 2.59-3.357 0-1.607-.839-3.286-2.578-3.286s-2.603 1.619-2.603 3.37c0 1.703.936 3.273 2.579 3.273zm-.048.852c-2.147 0-3.634-1.654-3.634-4.102 0-2.566 1.583-4.245 3.742-4.245 2.219 0 3.646 1.691 3.646 4.09 0 2.771-1.691 4.257-3.742 4.257z" mask="url(#a)" transform="translate(84 50)"/><path d="m95.724 50.785h4.353v.875h-3.298v2.688h3.047v.863h-3.047v3.658h-1.055z"/><g transform="translate(108 50)"><path d="m.684 8.869v-8.084h1.151l2.579 4.09c.587.947 1.067 1.787 1.439 2.627l.036-.013c-.097-1.079-.12-2.062-.12-3.309v-3.395h.983v8.084h-1.055l-2.567-4.101c-.564-.901-1.103-1.825-1.499-2.7l-.036.012c.06 1.02.072 1.991.072 3.334v3.455z" mask="url(#b)"/><path d="m14.062 8.148c1.655 0 2.59-1.522 2.59-3.357 0-1.607-.839-3.286-2.578-3.286s-2.603 1.619-2.603 3.37c0 1.703.936 3.273 2.579 3.273zm-.048.852c-2.147 0-3.634-1.654-3.634-4.102 0-2.566 1.583-4.245 3.742-4.245 2.219 0 3.646 1.691 3.646 4.09 0 2.771-1.691 4.257-3.742 4.257z" mask="url(#b)"/></g><path d="m130.451 54.575h1.068c1.115 0 1.822-.612 1.822-1.535 0-1.044-.755-1.499-1.859-1.499-.503 0-.851.048-1.031.096zm-1.043-3.67c.527-.108 1.295-.18 2.003-.18 1.115 0 1.846.216 2.35.671.396.348.636.901.636 1.536 0 1.055-.684 1.763-1.523 2.05v.037c.611.215.983.791 1.187 1.631.264 1.127.456 1.907.612 2.219h-1.08c-.132-.228-.312-.924-.528-1.932-.239-1.115-.683-1.535-1.63-1.57h-.984v3.502h-1.043z"/><path d="m139.74 51.673h-2.459v-.888h5.984v.888h-2.471v7.196h-1.054z"/><path d="m147.492 50.785v3.382h3.909v-3.382h1.056v8.084h-1.056v-3.791h-3.909v3.791h-1.057v-8.084z"/><path d="m157.871 58.869-2.051-8.084h1.103l.959 4.09c.241 1.02.457 2.015.6 2.795h.024c.132-.805.384-1.764.66-2.807l1.08-4.078h1.091l.983 4.102c.228.971.444 1.919.564 2.77h.024c.168-.887.396-1.787.648-2.794l1.067-4.078h1.068l-2.291 8.084h-1.092l-1.019-4.198c-.252-1.044-.42-1.835-.528-2.65h-.023c-.133.815-.324 1.594-.624 2.638l-1.152 4.21z"/><g transform="translate(168 50)"><path d="m5.157 5.078h-3.13v2.915h3.502v.876h-4.558v-8.084h4.378v.875h-3.322v2.555h3.13z" mask="url(#c)"/><path d="m9.035 7.598c.467.298 1.139.527 1.859.527 1.067 0 1.691-.552 1.691-1.379 0-.744-.431-1.187-1.523-1.596-1.319-.479-2.135-1.174-2.135-2.302 0-1.259 1.043-2.195 2.615-2.195.815 0 1.426.193 1.774.396l-.287.851c-.252-.156-.791-.383-1.524-.383-1.103 0-1.523.659-1.523 1.212 0 .754.492 1.126 1.607 1.558 1.368.539 2.051 1.188 2.051 2.375 0 1.247-.911 2.338-2.818 2.338-.78 0-1.631-.239-2.063-.527z" mask="url(#c)"/></g><path d="m186.898 51.673h-2.459v-.888h5.985v.888h-2.47v7.196h-1.056z"/><path d="m198.418 50.785h4.354v.875h-3.298v2.688h3.046v.863h-3.046v3.658h-1.056z"/><g transform="translate(206 50)"><path d="m.543.785h1.056v7.208h3.454v.876h-4.51z" mask="url(#d)"/><path d="m11.233 8.148c1.655 0 2.591-1.522 2.591-3.357 0-1.607-.839-3.286-2.578-3.286-1.74 0-2.603 1.619-2.603 3.37 0 1.703.936 3.273 2.578 3.273zm-.048.852c-2.146 0-3.634-1.654-3.634-4.102 0-2.566 1.583-4.245 3.742-4.245 2.219 0 3.646 1.691 3.646 4.09 0 2.771-1.69 4.257-3.741 4.257z" mask="url(#d)"/></g><path d="m225.624 54.575h1.067c1.115 0 1.823-.612 1.823-1.535 0-1.044-.756-1.499-1.859-1.499-.504 0-.852.048-1.031.096zm-1.044-3.67c.528-.108 1.295-.18 2.003-.18 1.116 0 1.847.216 2.35.671.397.348.636.901.636 1.536 0 1.055-.684 1.763-1.523 2.05v.037c.612.215.984.791 1.188 1.631.264 1.127.455 1.907.611 2.219h-1.079c-.133-.228-.312-.924-.528-1.932-.239-1.115-.684-1.535-1.631-1.57h-.983v3.502h-1.044z"/><g transform="translate(233 50)"><path d="m.303 8.869h1.056v-8.084h-1.056z"/><path d="m6.506 8.053c.264.049.648.049 1.056.049 2.23.011 3.441-1.248 3.441-3.431.013-1.931-1.067-3.118-3.273-3.118-.54 0-.948.048-1.224.107zm-1.055-7.16c.647-.096 1.403-.168 2.23-.168 1.5 0 2.568.336 3.275.996.731.66 1.151 1.607 1.151 2.914 0 1.319-.42 2.398-1.163 3.142-.768.756-2.015 1.163-3.586 1.163-.756 0-1.367-.024-1.907-.095z"/></g><path d="m252.693 55.511-.804-2.327c-.168-.528-.287-1.008-.407-1.475h-.036c-.109.467-.24.971-.396 1.463l-.792 2.339zm-2.651.815-.839 2.543h-1.079l2.746-8.084h1.259l2.759 8.084h-1.115l-.864-2.543z"/><path d="m70.144 32.83c0 3.217 0 5.731.169 7.14.099.969.3 1.707 1.307 1.841.468.066 1.205.134 1.674.134.436 0 .57.1.57.268 0 .234-.235.334-.737.334-2.111 0-4.222-.1-5.094-.1-.87 0-2.981.1-4.256.1-.468 0-.703-.067-.703-.334 0-.168.134-.268.503-.268.503 0 .905-.068 1.206-.134.671-.134.838-.872.972-1.841.167-1.409.167-3.923.167-7.14v-5.896c0-5.094 0-6.033-.066-7.105-.067-1.14-.336-1.676-1.441-1.91-.268-.066-.838-.101-1.307-.101-.336 0-.569-.066-.569-.267 0-.268.268-.335.77-.335.872 0 1.843.033 2.714.033.871.034 1.641.067 2.111.067 1.274 0 8.076 0 8.846-.033.636-.034 1.038-.034 1.375-.135.2-.066.369-.201.536-.201.133 0 .234.135.234.302 0 .235-.168.636-.268 1.509-.034.335-.102 2.31-.168 2.713-.034.268-.101.47-.334.47-.236 0-.302-.168-.337-.537 0-.268 0-.804-.201-1.273-.233-.469-.938-.972-2.21-1.007l-5.161-.099c-.201 0-.302.099-.302.469v8.377c0 .201.034.302.235.302l4.29-.033c.569 0 1.038 0 1.507-.035.636-.033 1.107-.167 1.44-.603.17-.199.235-.334.437-.334.133 0 .201.1.201.301s-.166 1.039-.267 2.078c-.07.67-.136 2.211-.136 2.445 0 .302 0 .637-.335.637-.202 0-.268-.235-.268-.469s-.066-.637-.201-1.039c-.168-.469-.67-1.072-1.709-1.205-.838-.1-4.39-.1-4.959-.1-.167 0-.235.066-.235.3z"/><path d="m89.643 33.803c.135 0 .168-.068.135-.168l-2.781-7.239c-.035-.1-.068-.267-.134-.267-.1 0-.135.167-.168.267l-2.847 7.206c-.069.133 0 .201.099.201zm-6.299 1.574c-.167 0-.202.033-.267.201l-1.576 3.82c-.301.703-.436 1.407-.436 1.743 0 .502.269.804 1.173.804h.436c.368 0 .435.133.435.301 0 .234-.168.301-.469.301-.971 0-2.345-.1-3.283-.1-.301 0-1.876.1-3.419.1-.368 0-.536-.067-.536-.301 0-.168.102-.301.336-.301.268 0 .604-.034.871-.034 1.341-.202 1.843-1.073 2.447-2.513l7.707-17.927c.335-.804.568-1.139.87-1.139.435 0 .571.268.873.904.702 1.576 5.627 13.237 7.504 17.559 1.139 2.58 1.976 2.949 2.513 3.049.436.067.772.101 1.106.101.268 0 .403.1.403.301 0 .234-.169.301-1.274.301-1.039 0-3.184 0-5.663-.067-.536-.033-.87-.033-.87-.234 0-.168.066-.268.367-.301.201-.034.403-.302.268-.636l-2.278-5.731c-.067-.168-.168-.201-.301-.201z"/><path d="m106.328 31.457c0 .301.067.401.268.502.636.201 1.508.268 2.245.268 1.173 0 1.574-.1 2.077-.469.905-.637 1.91-1.876 1.91-4.223 0-4.02-2.746-5.058-4.49-5.058-.737 0-1.441.033-1.742.099-.201.069-.268.168-.268.403zm-3.753-2.212c0-4.323 0-5.126-.033-6.032-.068-.971-.335-1.272-1.274-1.541-.235-.068-.737-.1-1.172-.1-.302 0-.504-.101-.504-.302 0-.202.236-.268.671-.268 1.541 0 3.417.066 4.02.066 1.006 0 3.687-.066 4.592-.066 1.875 0 4.021.168 5.595 1.205.839.571 2.078 2.012 2.078 3.922 0 2.111-1.207 3.987-4.088 6.301 2.613 3.216 4.69 5.796 6.466 7.57 1.642 1.643 2.682 1.777 3.151 1.877.301.068.468.068.703.068s.368.168.368.301c0 .234-.201.301-.568.301h-2.815c-1.642 0-2.447-.166-3.217-.569-1.274-.636-2.379-1.978-4.022-4.189-1.172-1.541-2.412-3.451-2.781-3.887-.167-.167-.335-.201-.536-.201l-2.647-.066c-.134 0-.234.066-.234.234v.402c0 2.647.033 4.86.168 6.067.1.836.234 1.371 1.139 1.506.436.067 1.071.101 1.44.101.235 0 .37.168.37.301 0 .201-.236.301-.604.301-1.709 0-4.154-.1-4.591-.1-.57 0-2.446.1-3.619.1-.368 0-.57-.1-.57-.301 0-.133.101-.301.47-.301.435 0 .77-.034 1.038-.101.604-.135.771-.67.872-1.506.134-1.207.134-3.453.134-6.067z"/><path d="m126.664 21.102c.067-.468.336-.737.569-.737.304 0 .504.134.907.905l7.906 15.882 7.909-16.084c.234-.468.503-.703.769-.703.235 0 .571.302.671.905l2.68 17.591c.269 1.776.537 2.547 1.441 2.816.839.234 1.307.268 1.676.268.268 0 .469.1.469.268 0 .234-.334.334-.77.334-.737 0-4.928-.133-6.099-.2-.704-.034-.872-.168-.872-.335 0-.135.135-.235.336-.303.167-.066.235-.4.134-1.205l-1.641-12.331h-.1l-6.334 12.732c-.671 1.341-.838 1.609-1.174 1.609-.369 0-.702-.569-1.173-1.441-.702-1.305-3.049-5.663-3.384-6.468-.233-.535-1.977-4.121-2.948-6.097h-.099l-1.41 11.125c-.066.503-.1.871-.1 1.34 0 .536.403.736.905.838.504.1.771.134 1.039.134.269 0 .47.133.47.268 0 .267-.27.334-.704.334-1.241 0-2.58-.1-3.117-.1-.57 0-1.977.1-2.915.1-.301 0-.537-.067-.537-.334 0-.135.169-.268.469-.268.236 0 .436 0 .905-.068.805-.1 1.074-1.24 1.206-2.178z"/><path d="m167.706 39.363c-3.285-2.881-4.156-6.633-4.156-9.884 0-2.278.703-6.232 3.92-9.181 2.414-2.211 5.598-3.552 10.59-3.552 2.078 0 3.316.135 4.857.336 1.275.167 2.348.469 3.353.569.368.035.502.202.502.402 0 .268-.101.672-.168 1.843-.067 1.106-.032 2.949-.101 3.619-.033.503-.1.771-.402.771-.268 0-.334-.268-.334-.737-.034-1.039-.47-2.213-1.308-3.083-1.106-1.171-3.719-2.077-6.801-2.077-2.914 0-4.826.735-6.3 2.077-2.446 2.245-3.083 5.428-3.083 8.679 0 7.974 6.065 11.928 10.556 11.928 2.981 0 4.792-.335 6.131-1.876.571-.636 1.006-1.608 1.139-2.211.1-.537.169-.672.436-.672.235 0 .302.236.302.503 0 .403-.402 3.319-.738 4.457-.168.57-.301.738-.871.972-1.34.535-3.887.77-6.031.77-4.591 0-8.444-1.004-11.493-3.653"/><path d="m195.078 31.457c0 .301.067.401.267.502.637.201 1.509.268 2.245.268 1.174 0 1.577-.1 2.077-.469.906-.637 1.911-1.876 1.911-4.223 0-4.02-2.747-5.058-4.49-5.058-.737 0-1.441.033-1.743.099-.2.069-.267.168-.267.403zm-3.753-2.212c0-4.323 0-5.126-.033-6.032-.068-.971-.335-1.272-1.273-1.541-.236-.068-.738-.1-1.174-.1-.301 0-.502-.101-.502-.302 0-.202.235-.268.67-.268 1.541 0 3.418.066 4.021.066 1.007 0 3.684-.066 4.591-.066 1.875 0 4.019.168 5.595 1.205.838.571 2.078 2.012 2.078 3.922 0 2.111-1.207 3.987-4.089 6.301 2.615 3.216 4.691 5.796 6.468 7.57 1.641 1.643 2.68 1.777 3.149 1.877.302.068.469.068.705.068.234 0 .368.168.368.301 0 .234-.2.301-.569.301h-2.815c-1.642 0-2.447-.166-3.217-.569-1.273-.636-2.38-1.978-4.021-4.189-1.173-1.541-2.412-3.451-2.781-3.887-.168-.167-.335-.201-.538-.201l-2.645-.066c-.135 0-.235.066-.235.234v.402c0 2.647.033 4.86.168 6.067.099.836.234 1.371 1.139 1.506.435.067 1.072.101 1.441.101.234 0 .369.168.369.301 0 .201-.237.301-.605.301-1.708 0-4.153-.1-4.59-.1-.569 0-2.446.1-3.619.1-.368 0-.568-.1-.568-.301 0-.133.101-.301.468-.301.435 0 .77-.034 1.039-.101.603-.135.771-.67.872-1.506.133-1.207.133-3.453.133-6.067z"/><path d="m212.298 29.245c0-4.323 0-5.126-.033-6.032-.068-.971-.335-1.272-1.274-1.541-.234-.068-.738-.1-1.173-.1-.301 0-.502-.101-.502-.302 0-.202.234-.268.67-.268 1.542 0 3.418.066 4.256.066.937 0 7.472.034 8.042 0 .536-.033 1.005-.132 1.24-.167.167-.033.334-.133.469-.133.167 0 .201.133.201.267 0 .201-.167.537-.236 1.843-.033.302-.1 1.543-.166 1.877-.034.134-.101.47-.335.47-.202 0-.234-.135-.234-.37 0-.201-.034-.703-.201-1.039-.235-.502-.47-.904-1.944-1.038-.503-.067-4.022-.133-4.624-.133-.135 0-.201.099-.201.267v7.035c0 .169.032.303.201.303.669 0 4.489 0 5.159-.066.703-.068 1.14-.135 1.409-.438.233-.199.333-.367.468-.367s.235.135.235.301c0 .167-.067.637-.235 2.078-.067.57-.135 1.709-.135 1.91 0 .234-.032.637-.302.637-.2 0-.266-.101-.266-.235-.034-.301-.034-.67-.102-1.039-.167-.569-.535-1.005-1.641-1.105-.536-.068-3.886-.135-4.625-.135-.134 0-.166.135-.166.303v2.277c0 .973-.035 3.385 0 4.223.066 1.943.97 2.379 3.987 2.379.771 0 2.01-.034 2.782-.369.736-.336 1.071-.938 1.272-2.111.067-.302.134-.434.336-.434.234 0 .268.367.268.67 0 .634-.236 2.58-.403 3.148-.201.738-.468.738-1.574.738-2.213 0-3.988-.034-5.429-.101-1.441-.034-2.547-.067-3.418-.067-.334 0-.972.033-1.676.033-.703.034-1.44.067-2.043.067-.369 0-.57-.1-.57-.301 0-.133.099-.301.468-.301.436 0 .772-.034 1.039-.101.604-.135.772-.67.872-1.506.134-1.207.134-3.453.134-6.067z"/><path d="m232.559 32.394c0 3.016.032 5.195.066 5.764.035.703.101 1.711.335 2.01.37.538 1.541 1.141 3.854 1.141 2.682 0 4.658-.471 6.434-1.946 1.91-1.574 2.513-4.121 2.513-7.069 0-3.618-1.441-5.964-2.748-7.103-2.715-2.413-5.93-2.714-8.243-2.714-.603 0-1.575.066-1.81.201-.267.1-.369.234-.369.569-.032.972-.032 3.317-.032 5.562zm-3.954-3.149c0-4.323 0-5.126-.033-6.032-.067-.971-.336-1.272-1.275-1.541-.235-.068-.737-.1-1.172-.1-.301 0-.502-.101-.502-.302 0-.202.234-.268.669-.268 1.541 0 3.418.066 4.255.066.906 0 3.016-.066 4.792-.066 3.688 0 8.645 0 11.862 3.249 1.474 1.476 2.781 3.854 2.781 7.239 0 3.584-1.541 6.299-3.217 7.942-1.34 1.339-4.455 3.349-9.884 3.349-1.072 0-2.345-.099-3.518-.166-1.174-.101-2.246-.168-2.982-.168-.337 0-.971.033-1.676.033-.704.034-1.442.067-2.043.067-.37 0-.571-.1-.571-.301 0-.133.102-.301.469-.301.436 0 .772-.034 1.039-.101.604-.135.771-.67.871-1.506.135-1.207.135-3.453.135-6.067z"/><path d="m252.761 29.245c0-4.323 0-5.126-.033-6.032-.068-.971-.371-1.307-1.006-1.508-.336-.101-.705-.133-1.072-.133-.301 0-.471-.068-.471-.336 0-.168.235-.234.705-.234 1.106 0 3.117.066 3.955.066.737 0 2.647-.066 3.786-.066.369 0 .603.066.603.234 0 .268-.168.336-.471.336-.3 0-.535.032-.871.1-.803.135-1.039.535-1.105 1.541-.067.906-.067 1.709-.067 6.032v5.026c0 2.749 0 5.026.133 6.233.102.77.303 1.205 1.174 1.34.402.067 1.072.101 1.508.101.336 0 .469.168.469.301 0 .201-.235.301-.571.301-1.941 0-3.951-.1-4.758-.1-.668 0-2.679.1-3.853.1-.367 0-.568-.1-.568-.301 0-.133.101-.301.468-.301.438 0 .77-.034 1.039-.101.602-.135.772-.535.871-1.374.135-1.173.135-3.45.135-6.199z"/><path d="m268.976 22.744-4.389.101c-1.709.033-2.414.235-2.847.871-.303.403-.438.772-.504.973-.067.233-.133.368-.334.368s-.27-.168-.27-.469c0-.469.571-3.218.637-3.452.068-.368.168-.536.336-.536.234 0 .537.234 1.273.336.872.099 1.977.132 2.948.132h11.963c.939 0 1.576-.066 2.011-.132.469-.068.703-.135.803-.135.203 0 .236.168.236.603 0 .604-.068 2.715-.068 3.451-.033.302-.102.469-.268.469-.234 0-.302-.133-.336-.569l-.033-.302c-.066-.737-.836-1.608-3.484-1.641l-3.719-.068v11.527c0 2.614.031 4.86.168 6.098.1.805.268 1.34 1.139 1.475.402.067 1.072.101 1.508.101.334 0 .468.168.468.301 0 .201-.234.301-.57.301-1.943 0-3.92-.1-4.758-.1-.67 0-2.679.1-3.853.1-.369 0-.571-.1-.571-.301 0-.133.102-.301.469-.301.438 0 .805-.034 1.041-.101.602-.135.772-.67.871-1.506.133-1.207.133-3.453.133-6.067z"/><path d="m48.13 39.416c3.995-3.848 10.053-9.639 10.053-9.639s-6.141-5.863-10.053-9.64c-3.929-3.793-7.963-.75-9.152.488l-7.504 7.826 21.26 1.326-21.26 1.325 7.504 7.828c1.173 1.195 5.219 4.275 9.152.486"/><path d="m10.052 39.416c-3.98-3.771-10.052-9.639-10.052-9.639s6.041-5.822 10.052-9.64c3.956-3.764 7.964-.75 9.152.488l7.504 7.826-21.26 1.326 21.26 1.325-7.504 7.828c-1.188 1.238-5.188 4.244-9.152.486"/><path d="m19.451 10.738c3.843-3.97 9.64-10.052 9.64-10.052s5.762 6.064 9.64 10.052c3.808 3.916.751 7.963-.488 9.151l-7.827 7.506-1.325-21.262-1.325 21.262-7.827-7.506c-1.239-1.188-4.286-5.227-.488-9.151"/><path d="m28.506 44.035-7.05 6.754c.834.842 1.688 1.723 2.509 2.58l4.816-4.924z"/><path d="m19.451 48.816c.542.518 1.116 1.082 1.705 1.672l7.288-7.451-.284-4.557-9.653 9.247c.255.365.566.728.944 1.089"/><path d="m36.727 50.789-7.051-6.754-.275 4.41 4.816 4.924c.822-.857 1.676-1.738 2.51-2.58"/><path d="m29.739 43.035 7.287 7.453c.588-.59 1.163-1.154 1.705-1.672.378-.361.689-.724.944-1.089l-9.653-9.247z"/><path d="m39.977 47.246c1.861-3.297-.665-6.557-1.734-7.582l-7.827-7.504-.311 4.992z"/><path d="m29.396 49.269-.036-.158-.269 4.309-.269-4.309-.036.158-4.563 4.372c2.637 2.766 4.868 5.229 4.868 5.229s2.231-2.463 4.869-5.229z"/><path d="m28.077 37.152-.311-4.992-7.827 7.504c-1.069 1.025-3.595 4.285-1.733 7.582z"/><path d="m36.97 55.414c.304 0 .576-.021.576-.387 0-.293-.267-.347-.517-.347h-.489v.734zm-.43 1.333h-.359v-2.372h.903c.56 0 .837.207.837.676 0 .424-.267.607-.614.652l.674 1.044h-.402l-.626-1.028h-.413zm.435.527c.93 0 1.664-.728 1.664-1.719 0-.973-.734-1.705-1.664-1.705-.94 0-1.675.732-1.675 1.705 0 .991.735 1.719 1.675 1.719zm-2.088-1.719c0-1.18.957-2.049 2.088-2.049 1.12 0 2.077.869 2.077 2.049 0 1.192-.957 2.061-2.077 2.061-1.131 0-2.088-.869-2.088-2.061z"/></g></svg>