<svg height="57" viewBox="0 0 217 57" width="217" xmlns="http://www.w3.org/2000/svg"><g fill="#fffffe" fill-rule="evenodd"><path d="m75.222 31.36c.151 0 .18-.095.151-.189l-2.704-7.813c-.03-.126-.06-.283-.151-.283-.09 0-.149.157-.18.283l-2.763 7.78c-.031.127 0 .222.12.222zm-6.128 1.58c-.15 0-.21.065-.27.254l-1.622 4.522c-.301.791-.451 1.551-.451 1.93 0 .57.27.98 1.202.98h.45c.361 0 .451.064.451.254 0 .254-.181.316-.511.316-.961 0-2.253-.095-3.184-.095-.33 0-1.983.095-3.544.095-.391 0-.571-.062-.571-.316 0-.19.12-.254.36-.254.27 0 .691-.031.932-.064 1.382-.19 1.952-1.264 2.553-2.846l7.539-19.86c.361-.918.541-1.265.842-1.265.27 0 .45.285.751 1.012.72 1.74 5.526 14.644 7.449 19.449 1.141 2.845 2.013 3.291 2.643 3.447.451.096.901.127 1.262.127.24 0 .391.031.391.254 0 .254-.271.316-1.382.316-1.082 0-3.274 0-5.678-.062-.541-.033-.901-.033-.901-.254 0-.19.12-.254.421-.285.21-.063.42-.348.27-.727l-2.403-6.705c-.06-.158-.15-.223-.3-.223z"/><path d="m90.824 32.345c0 .24.053.322.214.4.506.16 1.201.215 1.788.215.935 0 1.255-.08 1.655-.375.721-.506 1.522-1.494 1.522-3.363 0-3.203-2.19-4.031-3.578-4.031-.587 0-1.147.027-1.387.08-.161.053-.214.134-.214.32zm-2.989-1.762c0-3.443 0-4.084-.027-4.805-.054-.773-.267-1.014-1.014-1.228-.188-.053-.588-.08-.935-.08-.24 0-.4-.079-.4-.241 0-.159.187-.212.534-.212 1.228 0 2.722.053 3.203.053.801 0 2.936-.053 3.657-.053 1.495 0 3.203.133 4.458.961.667.454 1.654 1.601 1.654 3.123 0 1.681-.96 3.177-3.256 5.019 2.082 2.563 3.737 4.617 5.152 6.031 1.308 1.309 2.135 1.416 2.509 1.496.24.053.374.053.561.053.186 0 .294.133.294.24 0 .188-.161.241-.454.241h-2.243c-1.308 0-1.948-.133-2.563-.453-1.014-.508-1.895-1.577-3.202-3.338-.935-1.227-1.923-2.748-2.217-3.096-.132-.135-.266-.16-.426-.16l-2.109-.055c-.107 0-.187.055-.187.188v.32c0 2.107.027 3.871.134 4.832.08.668.187 1.094.907 1.201.347.053.854.08 1.148.08.187 0 .294.133.294.24 0 .161-.187.241-.481.241-1.361 0-3.309-.08-3.657-.08-.454 0-1.948.08-2.883.08-.293 0-.454-.08-.454-.241 0-.107.08-.24.374-.24.347 0 .614-.027.827-.08.481-.107.614-.533.695-1.201.107-.961.107-2.748.107-4.832z"/><path d="m109.458 37.632c0 1.494.082 1.947.828 2.242.614.238 1.148.266 1.681.266 1.256 0 2.883-.696 2.883-3.203 0-1.041-.453-2.831-2.215-4.032-.48-.345-1.121-.588-2.029-.588h-1.014c-.08 0-.134.028-.134.161zm0-6.676c0 .188.082.215.161.242.214.053.56.08 1.094.08.774 0 1.442-.08 1.842-.4.613-.481 1.068-1.309 1.068-2.404 0-1.521-.908-3.416-2.937-3.416-.32 0-.773 0-1.014.052-.16.028-.214.135-.214.375zm-3.042-.373c0-3.443 0-4.084-.027-4.805-.054-.773-.267-1.014-1.014-1.228-.187-.053-.588-.08-.935-.08-.24 0-.4-.079-.4-.241 0-.159.187-.212.534-.212 1.228 0 2.722.053 3.176.053 1.175 0 2.723-.053 3.524-.053 4.244 0 4.992 2.189 4.992 3.39 0 1.762-1.308 3.123-2.643 3.977 1.921.615 4.325 2.242 4.325 4.912 0 2.43-1.922 4.939-6.247 4.939-.267 0-1.068-.029-1.868-.08-.802-.027-1.629-.054-2.002-.054-.268 0-.775.027-1.335.027-.561.027-1.148.053-1.629.053-.293 0-.453-.08-.453-.241 0-.107.079-.24.373-.24.347 0 .614-.027.827-.08.481-.107.615-.533.695-1.201.107-.961.107-2.748.107-4.832z"/><path d="m135.568 33.013c0-5.019-3.017-8.116-6.807-8.116-2.616 0-5.686 1.389-5.686 6.995 0 4.671 2.67 8.355 7.1 8.355 1.656 0 5.393-.775 5.393-7.234zm-15.962-.428c0-3.871 2.722-8.889 9.85-8.889 5.925 0 9.609 3.283 9.609 8.489 0 5.205-3.791 9.289-9.85 9.289-6.834 0-9.609-4.858-9.609-8.889z"/><path d="m145.233 32.345c0 .24.054.322.214.4.508.16 1.202.215 1.788.215.934 0 1.256-.08 1.656-.375.721-.506 1.521-1.494 1.521-3.363 0-3.203-2.189-4.031-3.577-4.031-.586 0-1.148.027-1.388.08-.16.053-.214.134-.214.32zm-2.989-1.762c0-3.443 0-4.084-.026-4.805-.055-.773-.267-1.014-1.015-1.228-.187-.053-.587-.08-.935-.08-.24 0-.399-.079-.399-.241 0-.159.186-.212.532-.212 1.229 0 2.723.053 3.204.053.8 0 2.937-.053 3.657-.053 1.494 0 3.203.133 4.458.961.667.454 1.655 1.601 1.655 3.123 0 1.681-.961 3.177-3.257 5.019 2.083 2.563 3.738 4.617 5.152 6.031 1.308 1.309 2.136 1.416 2.509 1.496.241.053.375.053.561.053.187 0 .293.133.293.24 0 .188-.16.241-.454.241h-2.242c-1.308 0-1.948-.133-2.562-.453-1.015-.508-1.895-1.577-3.204-3.338-.934-1.227-1.921-2.748-2.214-3.096-.135-.135-.268-.16-.428-.16l-2.109-.055c-.106 0-.187.055-.187.188v.32c0 2.107.027 3.871.135 4.832.079.668.186 1.094.906 1.201.348.053.855.08 1.148.08.187 0 .294.133.294.24 0 .161-.187.241-.481.241-1.361 0-3.31-.08-3.655-.08-.456 0-1.95.08-2.885.08-.294 0-.453-.08-.453-.241 0-.107.08-.24.374-.24.346 0 .614-.027.827-.08.481-.107.613-.533.694-1.201.107-.961.107-2.748.107-4.832z"/><path d="m177.768 29.843c0-7.084-3.876-11.481-8.802-11.481-3.454 0-7.389 2.025-7.389 9.899 0 6.578 3.454 11.797 9.221 11.797 2.104 0 6.97-1.077 6.97-10.215zm-20.337-.602c0-5.408 3.396-12.396 12.406-12.396 7.481 0 12.136 4.586 12.136 11.827 0 7.243-4.806 12.966-12.435 12.966-8.622 0-12.107-6.799-12.107-12.397z"/><path d="m186.981 38.083c.053 1.764.347 2.299.801 2.457.401.133.853.16 1.228.16.266 0 .4.106.4.24 0 .188-.213.241-.535.241-1.52 0-2.615-.08-3.042-.08-.213 0-1.334.08-2.536.08-.321 0-.533-.026-.533-.241 0-.134.159-.24.373-.24.32 0 .748-.027 1.068-.107.613-.16.694-.774.72-2.75l.214-13.452c0-.455.16-.775.401-.775.293 0 .613.348 1.014.748.293.293 3.818 3.897 7.235 7.233 1.6 1.576 4.723 4.779 5.071 5.097h.107l-.24-10.088c-.027-1.388-.242-1.789-.802-2.002-.346-.134-.907-.134-1.228-.134-.293 0-.373-.106-.373-.241 0-.185.24-.212.588-.212 1.227 0 2.482.053 2.988.053.267 0 1.148-.053 2.296-.053.321 0 .535.027.535.212 0 .135-.135.241-.4.241-.241 0-.429 0-.723.08-.639.187-.827.588-.854 1.869l-.267 14.309c0 .507-.187.72-.373.72-.401 0-.72-.242-.96-.48-1.469-1.362-4.405-4.166-6.862-6.541-2.561-2.455-5.043-5.205-5.498-5.606h-.08z"/><path d="m205.962 30.583c0-3.443 0-4.084-.026-4.805-.054-.773-.268-1.014-1.014-1.228-.188-.053-.588-.08-.934-.08-.24 0-.401-.079-.401-.241 0-.159.187-.212.534-.212 1.228 0 2.722.053 3.39.053.747 0 5.953.027 6.406 0 .428-.026.801-.106.988-.134.133-.027.267-.106.373-.106.135 0 .161.106.161.214 0 .159-.134.426-.187 1.468-.027.24-.08 1.227-.133 1.494-.028.107-.081.374-.268.374-.16 0-.186-.107-.186-.293 0-.16-.026-.561-.161-.828-.186-.401-.373-.721-1.547-.827-.401-.054-3.204-.108-3.685-.108-.105 0-.159.081-.159.214v5.606c0 .134.026.24.159.24.534 0 3.577 0 4.111-.055.562-.051.909-.105 1.121-.346.187-.16.268-.293.375-.293.106 0 .187.108.187.241 0 .132-.054.505-.187 1.654-.053.455-.107 1.361-.107 1.521 0 .188-.027.508-.24.508-.16 0-.214-.08-.214-.187-.026-.24-.026-.533-.08-.828-.134-.452-.428-.801-1.308-.881-.428-.051-3.097-.106-3.684-.106-.107 0-.133.106-.133.241v1.814c0 .773-.028 2.697 0 3.365.054 1.547.774 1.893 3.177 1.893.613 0 1.601-.026 2.214-.293.587-.266.855-.746 1.014-1.682.054-.24.107-.346.268-.346.186 0 .214.293.214.534 0 .508-.188 2.054-.321 2.509-.161.588-.374.588-1.255.588-1.761 0-3.175-.029-4.325-.08-1.146-.027-2.027-.054-2.722-.054-.266 0-.774.027-1.334.027-.561.027-1.148.053-1.628.053-.294 0-.455-.08-.455-.241 0-.107.082-.24.374-.24.348 0 .615-.027.829-.08.48-.107.613-.533.692-1.201.107-.961.107-2.748.107-4.832z"/><path d="m63.325 49.569h3.938v.791h-2.984v2.43h2.756v.781h-2.756v3.31h-.954z"/><path d="m73.538 53.844-.727-2.106c-.163-.477-.271-.911-.38-1.335h-.021c-.109.424-.218.879-.369 1.325l-.717 2.116zm-2.409.737-.759 2.3h-.977l2.496-7.312h1.128l2.496 7.312h-1.01l-.781-2.3z"/><path d="m79.705 52.997h.966c1.008 0 1.649-.554 1.649-1.389 0-.943-.684-1.357-1.682-1.357-.455 0-.77.033-.933.077zm-.943-3.332c.476-.086 1.171-.15 1.811-.15 1.009 0 1.671.195 2.115.595.359.327.576.825.576 1.401 0 .955-.608 1.594-1.367 1.854v.033c.553.195.89.716 1.063 1.476.238 1.02.412 1.725.564 2.007h-.977c-.119-.218-.281-.835-.477-1.746-.216-1.011-.618-1.39-1.475-1.423h-.89v3.169h-.943z"/><path d="m92.935 53.669c-.054-1.02-.119-2.256-.119-3.156h-.022c-.261.846-.553 1.767-.923 2.777l-1.29 3.547h-.716l-1.194-3.483c-.347-1.041-.63-1.974-.835-2.841h-.023c-.02.911-.075 2.127-.14 3.232l-.196 3.136h-.9l.51-7.312h1.203l1.249 3.536c.303.9.542 1.703.738 2.462h.021c.196-.736.456-1.539.782-2.462l1.301-3.536h1.204l.456 7.312h-.933z"/><path d="m107.243 56.653c-.336.174-1.042.347-1.931.347-2.062 0-3.602-1.302-3.602-3.71 0-2.301 1.552-3.84 3.819-3.84.9 0 1.485.194 1.736.324l-.239.77c-.347-.172-.857-.303-1.465-.303-1.714 0-2.853 1.096-2.853 3.016 0 1.801 1.031 2.94 2.798 2.94.586 0 1.173-.119 1.553-.303z"/><path d="m111.554 52.997h.965c1.01 0 1.649-.554 1.649-1.389 0-.943-.683-1.357-1.68-1.357-.457 0-.773.033-.934.077zm-.944-3.332c.477-.086 1.172-.15 1.812-.15 1.009 0 1.67.195 2.116.595.357.327.574.825.574 1.401 0 .955-.607 1.594-1.367 1.854v.033c.553.195.89.716 1.063 1.476.239 1.02.413 1.725.565 2.007h-.976c-.119-.218-.283-.835-.479-1.746-.215-1.011-.618-1.39-1.474-1.423h-.89v3.169h-.944z"/><path d="m122.397 53.452h-2.831v2.637h3.167v.792h-4.122v-7.312h3.96v.791h-3.005v2.311h2.831z"/><path d="m127.076 56.143c.239.034.586.043.954.043 2.03 0 3.115-1.128 3.115-3.103.01-1.724-.966-2.82-2.961-2.82-.49 0-.858.043-1.108.097zm-.944-6.466c.576-.098 1.259-.162 2.007-.162 1.357 0 2.321.324 2.962.91.664.597 1.042 1.443 1.042 2.627 0 1.192-.378 2.168-1.053 2.842-.693.683-1.823 1.052-3.243 1.052-.683 0-1.237-.032-1.715-.086z"/><path d="m135.522 56.881h.957v-7.312h-.957z"/><path d="m141.686 50.372h-2.223v-.803h5.414v.803h-2.233v6.509h-.958z"/><path d="m46.49 38.111c3.858-3.716 9.709-9.31 9.709-9.31s-5.931-5.665-9.709-9.312c-3.796-3.664-7.693-.726-8.84.471l-7.248 7.559 20.535 1.282-20.535 1.279 7.248 7.562c1.132 1.153 5.041 4.127 8.84.469"/><path d="m9.71 38.111c-3.846-3.643-9.71-9.31-9.71-9.31s5.835-5.624 9.71-9.312c3.821-3.636 7.691-.726 8.839.471l7.248 7.559-20.534 1.282 20.534 1.279-7.248 7.562c-1.148 1.195-5.011 4.099-8.839.469"/><path d="m18.788 10.412c3.712-3.837 9.312-9.711 9.312-9.711s5.565 5.858 9.311 9.711c3.677 3.781.725 7.69-.472 8.837l-7.56 7.25-1.279-20.536-1.281 20.536-7.559-7.25c-1.198-1.147-4.141-5.048-.472-8.837"/><path d="m27.534 42.573-6.81 6.522c.806.812 1.631 1.666 2.424 2.493l4.652-4.756z"/><path d="m18.788 47.189c.524.502 1.078 1.047 1.647 1.618l7.04-7.198-.275-4.401-9.324 8.929c.246.352.546.704.912 1.052"/><path d="m35.475 49.095-6.81-6.522-.267 4.259 4.652 4.756c.795-.827 1.619-1.681 2.425-2.493"/><path d="m28.725 41.607 7.039 7.2c.568-.571 1.123-1.116 1.647-1.618.365-.348.666-.7.913-1.052l-9.325-8.929z"/><path d="m38.613 45.675c1.799-3.186-.641-6.335-1.674-7.325l-7.56-7.248-.3 4.821z"/><path d="m28.395 47.63-.037-.155-.258 4.163-.261-4.163-.034.155-4.409 4.221c2.549 2.67 4.704 5.048 4.704 5.048s2.154-2.378 4.701-5.048z"/><path d="m27.12 35.923-.301-4.821-7.559 7.248c-1.034.99-3.474 4.139-1.675 7.325z"/><path d="m35.71 53.563c.292 0 .556-.021.556-.374 0-.282-.258-.335-.499-.335h-.473v.709zm-.416 1.287h-.345v-2.291h.871c.54 0 .808.201.808.652 0 .411-.258.588-.593.631l.651 1.008h-.389l-.604-.991h-.399zm.42.508c.898 0 1.607-.703 1.607-1.658 0-.94-.709-1.648-1.607-1.648-.907 0-1.617.708-1.617 1.648 0 .955.71 1.658 1.617 1.658zm-2.017-1.658c0-1.141.925-1.98 2.017-1.98 1.083 0 2.006.839 2.006 1.98 0 1.15-.923 1.99-2.006 1.99-1.092 0-2.017-.84-2.017-1.99z"/></g></svg>