<svg height="59" viewBox="0 0 281 59" width="281" xmlns="http://www.w3.org/2000/svg" xmlns:xlink="http://www.w3.org/1999/xlink"><mask id="a" fill="#fff"><path d="m.223.292h16.418776v26.648h-16.418776z" fill="#fff" fill-rule="evenodd"/></mask><g fill="#fffffe" fill-rule="evenodd"><path d="m70.137 32.962c0 3.217 0 5.73.166 7.139.101.969.303 1.707 1.308 1.841.469.067 1.204.134 1.674.134.437 0 .57.1.57.268 0 .235-.234.335-.737.335-2.11 0-4.222-.1-5.093-.1s-2.983.1-4.255.1c-.47 0-.704-.067-.704-.335 0-.168.133-.268.502-.268.503 0 .905-.067 1.206-.134.671-.134.838-.872.973-1.841.167-1.409.167-3.922.167-7.139v-5.897c0-5.094 0-6.032-.067-7.104-.067-1.14-.335-1.676-1.441-1.911-.268-.066-.838-.1-1.307-.1-.335 0-.568-.066-.568-.268 0-.268.267-.335.769-.335.872 0 1.844.033 2.714.033.872.034 1.644.068 2.113.068 1.272 0 8.074 0 8.845-.034.637-.034 1.041-.034 1.374-.134.201-.067.368-.201.535-.201.135 0 .236.134.236.301 0 .235-.169.637-.269 1.509-.033.335-.1 2.311-.168 2.714-.032.268-.1.469-.334.469-.235 0-.303-.167-.333-.536 0-.268 0-.805-.202-1.274-.236-.468-.939-.971-2.213-1.007l-5.161-.098c-.199 0-.3.098-.3.469v8.377c0 .2.032.301.234.301l4.289-.033c.569 0 1.038 0 1.508-.034.636-.034 1.105-.167 1.441-.603.167-.2.233-.334.434-.334.136 0 .201.099.201.301 0 .2-.166 1.038-.266 2.077-.066.67-.136 2.212-.136 2.446 0 .302 0 .637-.333.637-.201 0-.269-.236-.269-.47 0-.233-.067-.636-.201-1.038-.167-.469-.67-1.073-1.709-1.205-.838-.1-4.39-.1-4.959-.1-.168 0-.234.065-.234.3z"/><path d="m89.635 33.934c.135 0 .168-.067.135-.168l-2.782-7.238c-.033-.101-.067-.268-.134-.268-.1 0-.134.167-.167.268l-2.848 7.204c-.067.135 0 .202.1.202zm-6.3 1.574c-.167 0-.201.034-.268.201l-1.574 3.82c-.302.703-.436 1.408-.436 1.743 0 .502.268.804 1.173.804h.435c.369 0 .437.134.437.302 0 .234-.169.301-.47.301-.971 0-2.346-.1-3.283-.1-.303 0-1.877.1-3.418.1-.369 0-.536-.067-.536-.301 0-.168.1-.302.334-.302.269 0 .603-.033.872-.033 1.339-.202 1.843-1.073 2.445-2.514l7.708-17.926c.335-.805.57-1.14.872-1.14.434 0 .568.268.87.905.704 1.575 5.628 13.235 7.506 17.558 1.14 2.58 1.977 2.949 2.512 3.05.438.067.771.1 1.107.1.267 0 .402.1.402.302 0 .234-.168.301-1.273.301-1.04 0-3.184 0-5.664-.067-.535-.033-.87-.033-.87-.234 0-.168.066-.269.368-.302.201-.033.402-.302.269-.637l-2.279-5.73c-.067-.167-.168-.201-.302-.201z"/><path d="m106.32 31.588c0 .302.066.402.267.502.637.201 1.51.269 2.245.269 1.174 0 1.575-.1 2.079-.469.904-.637 1.909-1.877 1.909-4.223 0-4.021-2.748-5.059-4.491-5.059-.735 0-1.44.034-1.742.1-.201.067-.267.168-.267.402zm-3.753-2.212c0-4.323 0-5.126-.034-6.031-.066-.971-.335-1.273-1.273-1.541-.235-.068-.738-.101-1.174-.101-.301 0-.501-.1-.501-.302 0-.201.233-.267.669-.267 1.541 0 3.419.066 4.021.066 1.005 0 3.686-.066 4.591-.066 1.877 0 4.021.167 5.596 1.205.837.571 2.077 2.012 2.077 3.921 0 2.111-1.205 3.988-4.088 6.301 2.614 3.216 4.691 5.796 6.468 7.571 1.641 1.642 2.68 1.776 3.15 1.877.301.067.47.067.702.067.235 0 .371.168.371.302 0 .234-.202.301-.572.301h-2.814c-1.641 0-2.445-.167-3.217-.57-1.273-.636-2.379-1.977-4.021-4.188-1.172-1.541-2.411-3.451-2.78-3.887-.169-.167-.336-.201-.537-.201l-2.647-.067c-.134 0-.234.067-.234.235v.402c0 2.646.033 4.859.167 6.066.1.836.234 1.372 1.139 1.507.436.067 1.073.1 1.441.1.234 0 .369.168.369.302 0 .201-.235.301-.604.301-1.708 0-4.155-.1-4.589-.1-.57 0-2.448.1-3.62.1-.369 0-.569-.1-.569-.301 0-.134.1-.302.468-.302.436 0 .771-.033 1.039-.1.605-.135.771-.671.872-1.507.134-1.207.134-3.453.134-6.066z"/><path d="m126.656 21.234c.067-.469.334-.737.569-.737.302 0 .504.134.905.904l7.908 15.884 7.908-16.085c.235-.469.503-.703.77-.703.235 0 .571.301.671.904l2.681 17.592c.268 1.776.536 2.547 1.441 2.815.837.235 1.306.268 1.675.268.268 0 .468.1.468.268 0 .235-.335.335-.77.335-.738 0-4.926-.134-6.098-.201-.704-.033-.87-.167-.87-.335 0-.134.132-.235.333-.302.168-.067.235-.402.135-1.206l-1.643-12.331h-.1l-6.333 12.733c-.67 1.341-.838 1.608-1.172 1.608-.37 0-.704-.569-1.174-1.44-.703-1.306-3.049-5.663-3.383-6.468-.236-.535-1.978-4.121-2.949-6.098h-.101l-1.407 11.126c-.067.502-.1.87-.1 1.339 0 .536.4.737.905.838.501.101.769.134 1.037.134s.47.134.47.268c0 .268-.267.335-.703.335-1.241 0-2.581-.1-3.116-.1-.571 0-1.978.1-2.916.1-.302 0-.536-.067-.536-.335 0-.134.167-.268.469-.268.234 0 .435 0 .904-.067.805-.101 1.073-1.24 1.208-2.178z"/><path d="m167.697 39.496c-3.283-2.881-4.155-6.635-4.155-9.886 0-2.277.705-6.232 3.92-9.18 2.413-2.212 5.597-3.552 10.59-3.552 2.076 0 3.317.134 4.859.335 1.273.167 2.344.469 3.35.57.368.034.502.201.502.402 0 .268-.1.67-.167 1.843-.067 1.106-.033 2.949-.1 3.618-.034.503-.101.771-.402.771-.268 0-.336-.268-.336-.737-.033-1.038-.468-2.212-1.306-3.082-1.106-1.172-3.721-2.078-6.803-2.078-2.915 0-4.825.735-6.299 2.078-2.446 2.244-3.082 5.428-3.082 8.677 0 7.975 6.063 11.93 10.554 11.93 2.982 0 4.792-.335 6.132-1.876.569-.637 1.005-1.609 1.14-2.212.101-.536.167-.67.435-.67.234 0 .301.235.301.502 0 .402-.402 3.318-.736 4.457-.168.57-.302.737-.871.972-1.342.535-3.888.77-6.033.77-4.59 0-8.443-1.005-11.493-3.652"/><path d="m195.07 31.588c0 .302.067.402.268.502.636.201 1.507.269 2.244.269 1.173 0 1.576-.1 2.078-.469.905-.637 1.909-1.877 1.909-4.223 0-4.021-2.747-5.059-4.489-5.059-.737 0-1.441.034-1.742.1-.201.067-.268.168-.268.402zm-3.754-2.212c0-4.323 0-5.126-.032-6.031-.068-.971-.336-1.273-1.274-1.541-.236-.068-.738-.101-1.172-.101-.302 0-.503-.1-.503-.302 0-.201.234-.267.669-.267 1.541 0 3.418.066 4.021.066 1.006 0 3.687-.066 4.591-.066 1.876 0 4.022.167 5.595 1.205.838.571 2.079 2.012 2.079 3.921 0 2.111-1.206 3.988-4.088 6.301 2.613 3.216 4.69 5.796 6.467 7.571 1.642 1.642 2.68 1.776 3.149 1.877.302.067.468.067.703.067.236 0 .369.168.369.302 0 .234-.201.301-.57.301h-2.815c-1.64 0-2.444-.167-3.215-.57-1.274-.636-2.38-1.977-4.021-4.188-1.173-1.541-2.413-3.451-2.781-3.887-.168-.167-.336-.201-.535-.201l-2.649-.067c-.135 0-.234.067-.234.235v.402c0 2.646.033 4.859.168 6.066.1.836.233 1.372 1.138 1.507.436.067 1.073.1 1.441.1.235 0 .369.168.369.302 0 .201-.233.301-.604.301-1.708 0-4.155-.1-4.59-.1-.57 0-2.447.1-3.618.1-.37 0-.571-.1-.571-.301 0-.134.101-.302.469-.302.436 0 .771-.033 1.04-.1.603-.135.77-.671.871-1.507.133-1.207.133-3.453.133-6.066z"/><path d="m212.29 29.376c0-4.323 0-5.126-.033-6.031-.068-.971-.336-1.273-1.273-1.541-.236-.068-.738-.101-1.174-.101-.302 0-.502-.1-.502-.302 0-.201.234-.267.67-.267 1.541 0 3.418.066 4.255.066.939 0 7.472.034 8.042 0 .536-.033 1.005-.134 1.241-.167.167-.033.334-.134.468-.134.167 0 .201.134.201.268 0 .201-.167.536-.234 1.843-.034.301-.101 1.542-.168 1.876-.033.135-.1.47-.336.47-.199 0-.233-.134-.233-.369 0-.201-.034-.703-.202-1.04-.234-.502-.469-.904-1.943-1.037-.503-.068-4.021-.135-4.625-.135-.134 0-.2.101-.2.268v7.036c0 .169.034.302.2.302.671 0 4.492 0 5.161-.066.704-.067 1.14-.135 1.407-.437.236-.2.334-.368.469-.368.134 0 .235.136.235.302s-.067.637-.235 2.078c-.066.569-.135 1.708-.135 1.91 0 .234-.032.636-.299.636-.202 0-.269-.1-.269-.234-.033-.302-.033-.671-.1-1.039-.168-.57-.536-1.005-1.642-1.105-.536-.068-3.888-.135-4.625-.135-.133 0-.167.135-.167.302v2.278c0 .972-.034 3.384 0 4.222.066 1.944.971 2.379 3.988 2.379.77 0 2.01-.034 2.78-.368.738-.337 1.072-.938 1.274-2.112.067-.3.133-.434.335-.434.234 0 .268.368.268.669 0 .637-.234 2.58-.402 3.15-.201.738-.469.738-1.575.738-2.212 0-3.988-.035-5.429-.102-1.441-.033-2.546-.066-3.418-.066-.335 0-.971.033-1.675.033-.703.033-1.44.067-2.044.067-.368 0-.568-.1-.568-.301 0-.134.1-.302.468-.302.436 0 .77-.033 1.038-.1.604-.135.772-.671.872-1.507.134-1.207.134-3.453.134-6.066z"/><path d="m232.55 32.525c0 3.017.033 5.195.067 5.765.034.703.1 1.71.335 2.01.369.537 1.541 1.139 3.854 1.139 2.68 0 4.657-.469 6.434-1.943 1.909-1.575 2.512-4.122 2.512-7.07 0-3.619-1.441-5.965-2.747-7.104-2.714-2.412-5.931-2.714-8.244-2.714-.603 0-1.574.067-1.809.201-.268.101-.369.234-.369.569-.033.973-.033 3.318-.033 5.563zm-3.953-3.149c0-4.323 0-5.126-.035-6.031-.066-.971-.334-1.273-1.273-1.541-.233-.068-.737-.101-1.173-.101-.301 0-.503-.1-.503-.302 0-.201.235-.267.671-.267 1.541 0 3.418.066 4.255.066.906 0 3.016-.066 4.793-.066 3.685 0 8.644 0 11.861 3.249 1.475 1.475 2.781 3.854 2.781 7.239 0 3.584-1.541 6.299-3.216 7.941-1.341 1.34-4.457 3.35-9.885 3.35-1.072 0-2.346-.1-3.519-.166-1.171-.102-2.245-.168-2.982-.168-.335 0-.972.033-1.675.033-.703.033-1.441.067-2.045.067-.368 0-.569-.1-.569-.301 0-.134.101-.302.469-.302.435 0 .77-.033 1.038-.1.604-.135.771-.671.872-1.507.135-1.207.135-3.453.135-6.066z"/><path d="m252.753 29.376c0-4.323 0-5.126-.034-6.031-.066-.971-.368-1.306-1.005-1.508-.336-.101-.704-.134-1.073-.134-.302 0-.469-.067-.469-.335 0-.168.234-.234.704-.234 1.105 0 3.116.066 3.953.066.737 0 2.649-.066 3.788-.066.368 0 .602.066.602.234 0 .268-.168.335-.469.335-.302 0-.537.033-.871.101-.805.134-1.038.535-1.107 1.541-.066.905-.066 1.708-.066 6.031v5.027c0 2.747 0 5.025.135 6.232.101.771.301 1.206 1.171 1.341.403.067 1.073.1 1.508.1.335 0 .471.168.471.302 0 .201-.236.301-.571.301-1.942 0-3.954-.1-4.758-.1-.67 0-2.681.1-3.853.1-.37 0-.57-.1-.57-.301 0-.134.1-.302.469-.302.436 0 .771-.033 1.038-.1.605-.135.772-.537.872-1.375.135-1.173.135-3.451.135-6.198z"/><path d="m268.969 22.876-4.39.101c-1.708.033-2.413.234-2.849.87-.3.403-.435.772-.501.974-.068.232-.135.367-.335.367-.202 0-.269-.167-.269-.468 0-.47.57-3.219.636-3.452.068-.369.169-.537.337-.537.233 0 .535.234 1.273.335.871.101 1.976.134 2.948.134h11.962c.938 0 1.575-.066 2.01-.134.471-.066.705-.133.804-.133.201 0 .236.167.236.603 0 .603-.067 2.714-.067 3.451-.034.302-.101.469-.268.469-.234 0-.302-.134-.336-.57l-.034-.302c-.066-.737-.836-1.607-3.484-1.641l-3.719-.067v11.527c0 2.613.033 4.859.167 6.097.1.805.267 1.341 1.139 1.476.403.067 1.072.1 1.508.1.335 0 .469.168.469.302 0 .201-.234.301-.569.301-1.944 0-3.921-.1-4.758-.1-.67 0-2.681.1-3.854.1-.368 0-.569-.1-.569-.301 0-.134.1-.302.469-.302.436 0 .804-.033 1.038-.1.603-.135.771-.671.871-1.507.135-1.207.135-3.453.135-6.066z"/><path d="m48.13 39.548c3.995-3.848 10.053-9.639 10.053-9.639s-6.141-5.864-10.053-9.64c-3.929-3.793-7.963-.751-9.152.488l-7.504 7.826 21.26 1.326-21.26 1.324 7.504 7.828c1.173 1.195 5.219 4.276 9.152.487"/><path d="m10.052 39.548c-3.98-3.773-10.052-9.639-10.052-9.639s6.041-5.822 10.052-9.64c3.956-3.765 7.964-.751 9.152.488l7.504 7.826-21.26 1.326 21.26 1.324-7.504 7.828c-1.188 1.239-5.188 4.245-9.152.487"/><path d="m19.451 10.87c3.843-3.971 9.64-10.053 9.64-10.053s5.762 6.065 9.64 10.053c3.808 3.915.751 7.963-.488 9.151l-7.827 7.505-1.325-21.261-1.325 21.261-7.827-7.505c-1.239-1.188-4.286-5.227-.488-9.151"/><path d="m28.506 44.167-7.05 6.754c.834.841 1.688 1.723 2.509 2.58l4.816-4.924z"/><path d="m19.451 48.947c.542.519 1.116 1.083 1.705 1.673l7.288-7.451-.284-4.557-9.653 9.245c.255.366.566.73.944 1.09"/><path d="m36.727 50.921-7.051-6.754-.275 4.41 4.816 4.924c.822-.857 1.676-1.739 2.51-2.58"/><path d="m29.739 43.167 7.287 7.453c.588-.59 1.163-1.154 1.705-1.673.378-.36.689-.724.944-1.09l-9.653-9.245z"/><g transform="translate(24 32)"><path d="m15.977 15.378c1.861-3.297-.665-6.557-1.734-7.582l-7.827-7.504-.311 4.992z" mask="url(#a)"/><path d="m5.396 17.401-.036-.158-.269 4.309-.269-4.309-.036.158-4.563 4.371c2.637 2.766 4.868 5.228 4.868 5.228s2.231-2.462 4.869-5.228z" mask="url(#a)"/></g><path d="m28.077 37.284-.311-4.992-7.827 7.504c-1.069 1.025-3.595 4.285-1.733 7.582z"/><path d="m36.97 55.546c.304 0 .576-.022.576-.387 0-.293-.267-.348-.517-.348h-.489v.735zm-.43 1.332h-.359v-2.371h.903c.56 0 .837.207.837.675 0 .424-.267.608-.614.652l.674 1.044h-.402l-.626-1.027h-.413zm.435.527c.93 0 1.664-.728 1.664-1.719 0-.972-.734-1.706-1.664-1.706-.94 0-1.675.734-1.675 1.706 0 .991.735 1.719 1.675 1.719zm-2.088-1.719c0-1.179.957-2.048 2.088-2.048 1.12 0 2.077.869 2.077 2.048 0 1.192-.957 2.061-2.077 2.061-1.131 0-2.088-.869-2.088-2.061z"/></g></svg>