<svg height="84" viewBox="0 0 305 84" width="305" xmlns="http://www.w3.org/2000/svg" xmlns:xlink="http://www.w3.org/1999/xlink"><mask id="a" fill="#fff"><path d="m.035.184h245.923v20.756h-245.923z" fill="#fff" fill-rule="evenodd"/></mask><mask id="b" fill="#fff"><path d="m.368.064h123.971v11.876h-123.971z" fill="#fff" fill-rule="evenodd"/></mask><g fill="none" fill-rule="evenodd"><g fill="#fffffe"><path d="m27.887 44.971.274-3.333 6.506 6.327c-.638.637-1.287 1.287-1.92 1.947z"/><path d="m20.256 47.965 6.506-6.327.271 3.333-4.856 4.941c-.63-.66-1.281-1.31-1.921-1.947"/><path d="m23.025 50.783 4.005-4.166.412 5.336.366-5.322 4.184 4.14-4.506 4.737s-2.032-2.203-4.461-4.725"/><path d="m28.171 39.519.209-3.243 9.078 8.767c-.283.48-1.323 1.547-1.944 2.072z"/><path d="m17.298 45.043 9.079-8.767.21 3.243-7.346 7.596c-.62-.525-1.658-1.592-1.943-2.072"/><path d="m28.574 34.161.251-3.866 7.937 7.594s2.408 2.983 1.35 6.01z"/><path d="m18.206 37.763 7.935-7.601.25 3.86-9.536 9.751c-1.061-3.028 1.351-6.01 1.351-6.01"/><path d="m37.309 37.288-7.593-7.944 20.067-1.467-20.072-1.199s4.776-5.546 8.57-8.346c3.783-2.795 7.736.665 7.736.665l8.912 9.02s-5.928 5.472-9.493 9.209c-1.198 1.259-2.513 1.678-3.728 1.678-2.391 0-4.399-1.616-4.399-1.616"/><path d="m27.48 5.538-1.377 20.038s-5.551-4.779-8.349-8.567c-2.798-3.789.671-7.743.671-7.743l9.017-8.904s5.464 5.927 9.209 9.486c3.74 3.559.058 8.129.058 8.129l-7.942 7.599z"/><path d="m8.906 36.972-8.906-9.017s5.924-5.47 9.483-9.212c3.561-3.741 8.133-.058 8.133-.058l7.594 7.942-20.067 1.254 20.067 1.414s-4.773 5.545-8.56 8.341c-1.09.806-2.194 1.09-3.212 1.09-2.525 0-4.532-1.754-4.532-1.754"/><path d="m37.426 51.496h.336c.379 0 .701-.139.701-.498 0-.252-.183-.506-.701-.506-.152 0-.256.012-.336.026zm0 1.604h-.462v-2.895c.242-.035.472-.064.819-.064.438 0 .726.086.901.216.173.123.263.321.263.6 0 .381-.252.609-.566.705v.02c.254.046.429.275.486.701.071.451.14.629.187.717h-.485c-.07-.088-.139-.356-.196-.739-.07-.371-.252-.506-.623-.506h-.324zm.486-3.696c-1.141 0-2.076.977-2.076 2.188 0 1.236.935 2.199 2.087 2.199 1.154.008 2.075-.963 2.075-2.189 0-1.221-.921-2.198-2.075-2.198zm.011-.41c1.418 0 2.549 1.156 2.549 2.598 0 1.463-1.131 2.603-2.56 2.603-1.421 0-2.574-1.14-2.574-2.603 0-1.442 1.153-2.598 2.574-2.598z"/><path d="m69.303 25.676h1.929c.439 0 .789-.147.965-.515l2.894-5.072c.175-.295.35-.515.614-.515.262 0 .438.147.438.44v15.514c0 .294-.088.442-.351.442s-.351-.222-.526-.515l-3.069-5.367c-.176-.368-.526-.514-.965-.514h-1.929v20.733c0 .882.088 1.617.789 2.058l3.244 2.131c.264.223.615.443.615.662 0 .221-.176.442-.527.442h-14.38c-.351 0-.526-.221-.526-.442 0-.219.438-.365.614-.662l2.63-2.131c.614-.515.789-1.176.789-2.058v-44.556c0-.881-.175-1.543-.789-2.058l-2.63-2.132c-.176-.221-.614-.441-.614-.662 0-.22.175-.441.526-.441h22.71c.439 0 .702.294.702.662v18.381c0 .22-.175.367-.438.367-.264 0-.614-.22-.702-.516l-4.735-13.821c-.351-.956-1.14-1.396-2.28-1.396h-4.998z"/><path d="m98.855 28.838h-.175c-4.823 3.454-6.226 6.029-6.226 13.527 0 8.381.964 10.074 2.894 10.074 1.929 0 3.507-2.279 3.507-4.337zm6.139 21.762c0 .957.35 1.839 1.139 1.839.877 0 1.842-.369 2.544-1.25.175-.148.262-.295.438-.295.175 0 .263.147.263.37-.351 2.13-2.368 4.336-4.561 4.336-2.717 0-4.121-1.471-5.172-2.793-1.403 1.322-3.683 2.793-6.051 2.793-3.42 0-7.629-1.836-7.629-11.911 0-8.234 1.491-10.44 11.136-16.91 1.754-1.176 1.754-1.838 1.754-4.852 0-3.236-.876-4.044-3.683-4.044-2.542 0-6.225 1.691-7.804 3.014-.175.147-.438.221-.701.221-.176 0-.263-.147-.263-.367 0-.883 4.997-6.029 9.908-6.029 3.157 0 8.682 1.616 8.682 9.19z"/><path d="m119.199 51.557c0 .293 0 .513.088.66l2.981 2.576c.263.146.351.365.351.512 0 .22-.176.295-.526.295h-11.75c-.352 0-.527-.075-.527-.295 0-.147.088-.366.351-.512l2.718-2.576c.176-.147.176-.367.176-.66v-33.306c0-.295-.088-.441-.351-.589l-2.543-2.058c-.263-.22-.351-.442-.351-.588 0-.221.175-.294.527-.294h8.418c.262 0 .438.147.438.44v2.5h.175c1.403-1.47 2.894-2.94 4.911-2.94 2.893 0 4.735 3.896 4.735 6.249 0 .368-.088.661-.438.661-.352 0-.527-.293-.702-.661-.965-1.985-2.718-2.795-4.56-2.795-2.543 0-4.121 3.014-4.121 6.765z"/><path d="m132.527 18.251c0-.295-.088-.441-.263-.589l-2.63-2.058c-.176-.22-.352-.442-.352-.588 0-.221.264-.294.527-.294h8.418c.35 0 .438.147.438.44v2.133h.175c1.579-1.397 3.069-2.573 6.051-2.573 2.718 0 4.471 1.176 5.611 2.573 1.58-1.397 3.684-2.573 6.665-2.573 3.946 0 6.927 2.573 6.927 7.499v29.336c0 .293 0 .513.176.66l2.718 2.576c.263.146.349.365.349.512 0 .22-.174.295-.525.295h-11.574c-.264 0-.526-.075-.526-.295 0-.147.176-.366.438-.512l2.63-2.576c.176-.147.176-.367.176-.66v-29.41c0-2.795-.701-4.264-2.456-4.264-1.841 0-4.121 2.426-4.121 6.396v27.278c0 .293 0 .513.176.66l2.104 2.576c.175.146.263.365.263.512 0 .22-.175.295-.525.295h-10.172c-.263 0-.527-.075-.527-.295 0-.147.176-.366.352-.512l2.016-2.576c.176-.147.176-.367.176-.66v-29.41c0-2.795-.702-4.264-2.456-4.264-1.929 0-4.121 2.426-4.121 6.396v27.278c0 .293 0 .513.175.66l2.719 2.576c.175.146.35.365.35.512 0 .22-.175.295-.526.295h-11.574c-.263 0-.527-.075-.527-.295 0-.147.176-.366.352-.512l2.718-2.576c.175-.147.175-.367.175-.66z"/><path d="m201.801 19.206c0 .368-.176.662-.526.662-.438 0-.613-.367-.702-.808-1.052-6.177-3.595-14.925-8.068-14.925-3.856 0-4.558 6.984-4.558 22.497 0 22.055 1.928 25.292 5.874 25.292 4.823 0 6.666-13.528 6.666-14.19 0-.368.262-.588.701-.588.437 0 .613.22.613.662 0 10.879-1.927 17.792-9.647 17.792-10.256 0-11.399-16.764-11.399-29.041 0-9.044.44-26.101 11.399-26.101 1.405 0 2.895.662 4.212 1.544.526.367 1.052.442 1.49.442.437 0 1.053-.295 1.665-.883.528-.515 1.228-1.103 1.667-1.103.526 0 .613.515.613 1.25z"/><path d="m213.727 51.557c0 .293 0 .513.087.66l2.981 2.576c.265.146.351.365.351.512 0 .22-.175.295-.526.295h-11.748c-.351 0-.527-.075-.527-.295 0-.147.087-.366.352-.512l2.716-2.576c.176-.147.176-.367.176-.66v-33.306c0-.295-.087-.441-.351-.589l-2.541-2.058c-.265-.22-.352-.442-.352-.588 0-.221.176-.294.527-.294h8.418c.261 0 .437.147.437.44v2.5h.176c1.401-1.47 2.892-2.94 4.909-2.94 2.896 0 4.735 3.896 4.735 6.249 0 .368-.087.661-.437.661-.353 0-.527-.293-.703-.661-.964-1.985-2.716-2.795-4.559-2.795-2.544 0-4.121 3.014-4.121 6.765z"/><path d="m238.981 31.191v-7.353c0-3.897-1.23-5.955-3.332-5.955-2.28 0-3.157 2.058-3.157 5.955v7.353zm-6.489 8.454c0 9.265 1.49 12.794 5.525 12.794 2.892 0 4.297-1.175 6.136-3.455.176-.222.35-.369.615-.369.262 0 .351.147.262.442-1.05 3.529-3.77 6.543-8.067 6.543-7.98 0-11.31-6.616-11.31-23.086 0-11.175 3.856-17.792 9.996-17.792 5.085 0 9.47 3.088 9.47 13.821v4.559c0 .515-.175.882-.79.882h-11.837z"/><path d="m263.622 23.397c0-3.603-2.63-5.514-3.86-5.514-2.189 0-3.242 1.544-3.242 15.146 0 17.717.877 19.41 3.155 19.41 2.105 0 3.947-2.279 3.947-5.88zm0-19.41c0-.294-.086-.442-.352-.588l-2.54-2.131c-.265-.148-.441-.369-.441-.516 0-.221.265-.294.616-.294h8.329c.35 0 .526.147.526.441v50.658c0 .293 0 .513.087.66l2.72 2.576c.262.146.437.365.437.512 0 .22-.262.295-.613.295h-8.157c-.351 0-.612-.147-.612-.295v-2.498h-.176c-1.49 1.47-3.068 2.793-5.873 2.793-3.86 0-7.892-1.836-7.892-22.571 0-16.396 4.383-18.307 7.978-18.307 2.545 0 4.297 1.176 5.787 2.573h.176z"/><path d="m283.264 4.355c0 1.911-1.402 3.896-3.157 3.896-1.84 0-3.244-1.985-3.244-3.896 0-1.986 1.404-3.897 3.244-3.897 1.755 0 3.157 1.911 3.157 3.897zm-6.137 13.896c0-.295-.088-.441-.264-.589l-2.631-2.058c-.175-.22-.351-.442-.351-.588 0-.221.265-.294.527-.294h8.419c.26 0 .437.147.437.44v36.395c0 .293 0 .513.176.66l2.72 2.576c.174.146.35.365.35.512 0 .22-.176.295-.527.295h-11.575c-.262 0-.527-.075-.527-.295 0-.147.176-.366.351-.512l2.72-2.576c.175-.147.175-.367.175-.66z"/><path d="m296.769 49.791c0 1.547.879 2.648 2.105 2.648 1.052 0 2.193-.808 2.719-1.545.176-.148.351-.294.525-.294s.35.22.263.441c-.612 2.059-2.368 4.559-6.049 4.559-3.684 0-5.701-1.397-5.701-7.426v-29.776c0-.295 0-.736-.261-.957l-2.545-2.057c-.175-.148-.438-.295-.438-.442 0-.22.352-.441 1.227-.515 3.858-.588 4.296-6.176 4.296-9.116 0-.368.264-.663.703-.663h2.63c.35 0 .526.148.526.515v8.456c0 .367.087.662.703.662h2.015c.439 0 .526.514 0 .881l-2.015 1.913c-.265.366-.703.808-.703 1.323z"/></g><g transform="translate(57 63)"><path d="m1.194.684h244.764" mask="url(#a)" stroke="#fffffe"/><g fill="#fffffe"><path d="m9.666 15.5c.326.268.566.56.723.881.155.316.233.689.233 1.111 0 1.006-.503 1.836-1.509 2.488-1.007.653-2.255.981-3.747.981-.688 0-1.375-.082-2.063-.24-.688-.157-1.282-.348-1.781-.573l-.466.586h-.87l-.151-3.9h.879c.181.482.393.918.635 1.305.242.386.563.75.961 1.086.377.314.816.566 1.319.755.503.186 1.088.282 1.755.282.499 0 .935-.049 1.307-.145.374-.097.676-.234.908-.412.231-.176.403-.383.515-.621s.168-.514.168-.824c0-.457-.173-.881-.521-1.274-.347-.394-.865-.695-1.552-.896-.472-.139-1.01-.293-1.618-.461s-1.133-.324-1.575-.475c-.869-.291-1.544-.668-2.025-1.136-.482-.467-.722-1.079-.722-1.834 0-.432.119-.836.359-1.211.238-.375.578-.709 1.02-1.004.42-.276.916-.494 1.487-.655.572-.158 1.17-.236 1.792-.236.71 0 1.345.082 1.906.242.561.158 1.073.348 1.537.561l.445-.545h.868l.087 3.781h-.879c-.16-.433-.339-.849-.538-1.246-.199-.396-.458-.754-.776-1.074-.312-.311-.692-.557-1.14-.744-.45-.182-.999-.276-1.651-.276-.688 0-1.274.164-1.759.489-.485.328-.728.726-.728 1.197 0 .492.156.9.467 1.225.312.324.764.587 1.358.798.528.188 1.048.348 1.558.485.51.138 1.004.283 1.482.437.435.141.852.299 1.254.475.403.177.752.383 1.048.617" mask="url(#a)"/><path d="m23.38 18.76c.405-.488.701-1.039.885-1.655.185-.615.277-1.3.277-2.06 0-.783-.103-1.5-.31-2.154-.206-.653-.508-1.207-.906-1.67-.399-.451-.898-.809-1.499-1.063-.6-.254-1.288-.381-2.062-.381-.87 0-1.608.149-2.215.442-.609.293-1.105.687-1.488 1.181-.362.469-.632 1.022-.81 1.653-.177.632-.265 1.295-.265 1.992 0 .769.094 1.465.282 2.086.187.621.485 1.17.891 1.652.39.473.882.838 1.476 1.106.593.263 1.303.394 2.129.394.774 0 1.472-.133 2.095-.4.623-.266 1.129-.641 1.52-1.123zm1.618-8.075c.68.524 1.212 1.157 1.596 1.897.384.742.576 1.561.576 2.463 0 .904-.196 1.723-.586 2.463-.391.738-.934 1.367-1.629 1.885-.673.513-1.456.91-2.346 1.189s-1.838.418-2.844.418c-1.072 0-2.062-.15-2.971-.445-.908-.297-1.688-.711-2.339-1.239-.652-.523-1.165-1.152-1.537-1.892-.373-.742-.56-1.535-.56-2.379 0-.928.197-1.754.587-2.479.391-.724.93-1.351 1.618-1.881.681-.525 1.471-.927 2.373-1.207.901-.275 1.844-.414 2.829-.414 1.021 0 1.983.141 2.887.424.906.285 1.687.684 2.346 1.197z" mask="url(#a)"/><path d="m44.684 9.906c-.202.006-.499.037-.89.096-.391.061-.71.148-.956.264-.246.127-.416.377-.509.765-.095.385-.142.854-.142 1.412v4.952c0 .63-.177 1.181-.532 1.644-.355.467-.822.85-1.401 1.149-.571.291-1.174.497-1.808.625-.633.124-1.24.187-1.819.187-.927 0-1.751-.09-2.476-.27-.723-.177-1.331-.421-1.824-.726-.485-.303-.85-.656-1.096-1.049-.247-.391-.37-.803-.37-1.23v-6.737c0-.185-.041-.342-.124-.469-.084-.124-.252-.24-.505-.347-.181-.076-.413-.137-.695-.182-.282-.047-.514-.074-.695-.084v-.57h6.417v.57c-.202.006-.458.029-.765.071-.308.045-.534.086-.679.121-.246.064-.411.17-.494.322-.083.15-.124.312-.124.486v6.289c0 .307.045.627.135.959.091.336.269.647.538.936.281.293.665.535 1.15.723.485.187 1.151.279 1.999.279.796 0 1.463-.092 2.003-.279.539-.188.964-.434 1.276-.739.297-.289.506-.592.629-.906s.185-.635.185-.955v-4.668c0-.594-.058-1.08-.174-1.457s-.286-.623-.51-.742c-.253-.133-.599-.239-1.037-.311-.438-.076-.773-.119-1.005-.129v-.57h6.298z" mask="url(#a)"/></g></g><path d="m115.454 75.428h-.749c-.066-.196-.184-.422-.354-.688-.171-.265-.362-.515-.572-.752-.218-.246-.455-.461-.713-.644-.257-.186-.505-.291-.745-.317-.225-.023-.508-.039-.849-.05-.341-.01-.658-.016-.947-.016h-.631v9.113c0 .176.05.338.152.485.101.146.278.261.532.339.13.037.403.09.82.153.416.066.74.099.972.105v.571h-7.276v-.571c.203-.011.512-.031.929-.064.416-.033.704-.072.863-.119.239-.071.414-.17.527-.301.112-.133.168-.307.168-.528v-9.183h-.63c-.224 0-.503.006-.836.014-.333.007-.652.023-.955.052-.24.022-.488.125-.744.317-.257.189-.494.404-.711.644-.218.241-.409.498-.576.77-.167.267-.282.492-.347.67h-.761v-3.092h13.433z" fill="#fffffe"/><path d="m132.631 83.727h-6.396v-.571c.175-.011.426-.025.755-.047.329-.021.556-.054.679-.097.217-.063.376-.162.478-.293.101-.131.151-.303.151-.508v-4.057h-7.241v3.967c0 .186.041.346.124.475.083.127.248.24.494.336.122.048.342.095.657.146.314.047.563.072.743.078v.571h-6.395v-.571c.174-.011.425-.025.755-.047.329-.021.555-.054.678-.097.218-.063.377-.162.478-.293s.153-.303.153-.508v-8.223c0-.17-.048-.328-.142-.469-.094-.14-.257-.253-.489-.332-.195-.07-.432-.13-.711-.185-.278-.053-.519-.086-.722-.096v-.57h6.395v.57c-.202.006-.45.029-.743.071-.293.045-.512.086-.657.121-.246.064-.411.173-.494.322-.083.15-.124.312-.124.49v3.531h7.241v-3.453c0-.17-.047-.328-.14-.469-.095-.14-.258-.253-.489-.332-.196-.07-.433-.13-.711-.185-.279-.053-.52-.086-.723-.096v-.57h6.396v.57c-.202.006-.45.029-.744.071-.293.045-.512.086-.657.121-.245.064-.41.173-.494.322-.083.15-.125.312-.125.49v8.211c0 .186.042.346.125.475.084.127.249.24.494.336.124.048.343.095.657.146.315.047.564.072.744.078z" fill="#fffffe"/><path d="m155.76 72.906c-.18.006-.39.035-.63.092-.239.055-.46.129-.662.221-.254.117-.458.254-.614.406s-.292.363-.407.637c-.514 1.236-1.111 2.679-1.792 4.33-.68 1.654-1.415 3.412-2.204 5.279h-1.001l-3.889-8.775-4.043 8.775h-.959c-.716-1.873-1.459-3.816-2.226-5.832-.768-2.016-1.281-3.363-1.542-4.051-.065-.164-.162-.31-.288-.439-.127-.129-.298-.246-.516-.354-.181-.091-.392-.16-.634-.205-.243-.047-.462-.074-.658-.084v-.57h6.281v.57c-.55.022-1.019.061-1.406.121-.387.057-.58.158-.58.297 0 .053.01.123.031.211.022.09.041.16.055.213.167.471.461 1.25.884 2.336.424 1.088 1.05 2.713 1.882 4.881l3.846-8.469h1.062l3.881 8.649c.523-1.329.973-2.491 1.35-3.487.377-.994.691-1.842.938-2.551.173-.5.283-.839.326-1.027.044-.184.065-.34.065-.469 0-.179-.168-.332-.505-.455-.337-.125-.881-.207-1.633-.25v-.57h5.588z" fill="#fffffe"/><g fill="#fffffe" transform="translate(156 72)"><path d="m13.453 8.371-.294 3.356h-12.791v-.571c.217-.011.506-.033.869-.068.361-.033.597-.07.705-.108.231-.082.393-.185.483-.314.092-.129.136-.291.136-.49v-8.188c0-.174-.039-.332-.12-.469-.079-.134-.246-.246-.499-.332-.196-.07-.458-.13-.787-.185-.328-.053-.592-.086-.787-.096v-.57h11.924v2.746h-.815c-.145-.406-.459-.84-.94-1.299-.482-.457-.939-.705-1.373-.748-.226-.021-.494-.039-.805-.051-.311-.009-.665-.015-1.064-.015h-2.42v4.529h1.737c.557 0 .964-.041 1.221-.115.256-.08.484-.209.678-.391.159-.156.296-.361.408-.621s.187-.506.223-.736h.814v4.463h-.814c-.028-.256-.107-.528-.234-.815-.127-.285-.258-.496-.397-.623-.222-.207-.48-.342-.765-.408-.286-.063-.664-.098-1.134-.098h-1.737v3.416c0 .34.031.612.096.809.066.197.193.348.381.449.188.104.444.168.771.197.326.03.79.045 1.39.045h.945c.391 0 .719-.013.989-.035.274-.021.557-.06.85-.115.294-.057.502-.135.625-.227.333-.259.683-.648 1.047-1.17.366-.521.601-.906.702-1.152z" mask="url(#b)"/><path d="m24.617 6.5c.324.268.565.56.72.881.158.316.233.689.233 1.111 0 1.006-.503 1.836-1.509 2.488-1.006.653-2.253.981-3.747.981-.687 0-1.375-.082-2.062-.24-.689-.157-1.282-.348-1.78-.573l-.468.586h-.869l-.151-3.9h.879c.18.482.392.918.637 1.305.24.386.561.75.958 1.086.378.314.818.566 1.321.755.503.186 1.088.282 1.753.282.501 0 .935-.049 1.31-.145.372-.097.673-.234.907-.412.23-.176.403-.383.515-.621.111-.238.168-.514.168-.824 0-.457-.173-.881-.521-1.274-.349-.394-.865-.695-1.554-.896-.469-.139-1.009-.293-1.616-.461-.609-.168-1.135-.324-1.575-.475-.871-.291-1.543-.668-2.026-1.136-.482-.467-.723-1.079-.723-1.834 0-.432.121-.836.359-1.211s.579-.709 1.021-1.004c.42-.276.916-.494 1.487-.655.574-.158 1.172-.236 1.792-.236.71 0 1.344.082 1.907.242.561.158 1.072.348 1.536.561l.445-.545h.87l.086 3.781h-.88c-.16-.433-.338-.849-.538-1.246-.198-.396-.458-.754-.775-1.074-.311-.311-.691-.557-1.142-.744-.448-.182-.998-.276-1.65-.276-.686 0-1.274.164-1.759.489-.484.328-.728.726-.728 1.197 0 .492.157.9.467 1.225.311.324.765.587 1.36.798.526.188 1.045.348 1.556.485.51.138 1.005.283 1.482.437.436.141.852.299 1.255.475.401.177.75.383 1.049.617" mask="url(#b)"/><path d="m40.035 3.428h-.749c-.066-.196-.184-.422-.354-.688-.171-.265-.362-.515-.572-.752-.216-.246-.455-.461-.712-.644-.26-.186-.506-.291-.746-.317-.226-.023-.508-.039-.849-.05-.341-.01-.659-.016-.946-.016h-.632v9.113c0 .176.05.338.152.485.102.146.278.261.533.339.131.037.403.09.819.153.417.066.739.099.972.105v.571h-7.276v-.571c.202-.011.511-.031.928-.064s.705-.072.864-.119c.24-.071.414-.17.528-.301.112-.133.167-.307.167-.528v-9.183h-.629c-.225 0-.503.006-.835.014-.336.007-.653.023-.957.052-.239.022-.488.125-.744.317-.256.189-.496.404-.713.644-.214.241-.409.498-.574.77-.168.267-.282.492-.347.67h-.761v-3.092h13.433z" mask="url(#b)"/><path d="m61.534 7.184c-.172.015-.406.039-.7.076-.292.033-.531.084-.711.146-.218.082-.37.194-.462.344-.091.146-.136.32-.136.516v.882c0 .643.005 1.077.015 1.303.013.223.024.408.04.553-.964.322-1.923.568-2.877.74-.956.168-1.894.256-2.815.256-.984 0-1.93-.137-2.845-.41-.911-.274-1.708-.662-2.386-1.164-.689-.51-1.237-1.127-1.64-1.856-.405-.728-.608-1.543-.608-2.441 0-.867.194-1.674.58-2.416.387-.742.935-1.383 1.645-1.932.688-.533 1.508-.951 2.459-1.25.952-.295 1.971-.445 3.058-.445.868 0 1.625.078 2.269.234.644.155 1.212.342 1.705.561l.447-.545h.867l.097 3.982h-.889c-.154-.439-.341-.873-.565-1.297-.226-.425-.517-.806-.871-1.144-.357-.336-.789-.606-1.298-.807-.512-.199-1.123-.299-1.833-.299-.775 0-1.466.116-2.077.348-.609.233-1.137.58-1.585 1.039-.443.446-.784.998-1.022 1.664-.241.664-.358 1.405-.358 2.225 0 .722.117 1.404.35 2.043.236.642.579 1.195 1.03 1.662.448.477 1.011.852 1.684 1.125.674.271 1.44.406 2.296.406.636 0 1.218-.07 1.744-.213.525-.148.896-.298 1.113-.459.059-.277.089-.56.093-.843.004-.284.004-.524.004-.723v-.627c0-.223-.041-.422-.123-.598-.083-.172-.256-.301-.516-.379-.238-.082-.563-.142-.971-.181-.409-.041-.731-.065-.962-.076v-.586h6.754z" mask="url(#b)"/><path d="m75.706 8.371-.293 3.356h-12.791v-.571c.214-.011.504-.033.867-.068.361-.033.597-.07.708-.108.229-.082.389-.185.481-.314.089-.129.136-.291.136-.49v-8.188c0-.174-.039-.332-.121-.469-.077-.134-.246-.246-.496-.332-.197-.07-.459-.13-.79-.185-.329-.053-.591-.086-.785-.096v-.57h11.92v2.746h-.815c-.144-.406-.455-.84-.937-1.299-.482-.457-.942-.705-1.373-.748-.226-.021-.493-.039-.804-.051-.313-.009-.666-.015-1.065-.015h-2.42v4.529h1.737c.555 0 .964-.041 1.22-.115.257-.08.483-.209.679-.391.16-.156.296-.361.406-.621.114-.26.186-.506.223-.736h.815v4.463h-.815c-.028-.256-.105-.528-.232-.815-.127-.285-.26-.496-.397-.623-.224-.207-.478-.342-.764-.408-.287-.063-.667-.098-1.135-.098h-1.737v3.416c0 .34.031.612.097.809.065.197.192.348.379.449.189.104.446.168.771.197.325.03.788.045 1.391.045h.943c.391 0 .72-.013.988-.035.274-.021.56-.06.854-.115.293-.057.5-.135.623-.227.333-.259.682-.648 1.049-1.17.363-.521.599-.906.699-1.152z" mask="url(#b)"/><path d="m88.106 9.76c.406-.488.7-1.039.886-1.655.183-.615.274-1.3.274-2.06 0-.783-.101-1.5-.308-2.154-.208-.653-.509-1.207-.908-1.67-.397-.451-.895-.809-1.498-1.063-.6-.254-1.289-.381-2.062-.381-.869 0-1.609.149-2.216.442-.608.293-1.104.687-1.488 1.181-.362.469-.631 1.022-.807 1.653-.179.632-.268 1.295-.268 1.992 0 .769.095 1.465.283 2.086.189.621.485 1.17.891 1.652.391.473.883.838 1.476 1.106.595.263 1.304.394 2.129.394.773 0 1.473-.133 2.096-.4.622-.266 1.129-.641 1.52-1.123zm1.616-8.075c.681.524 1.213 1.157 1.599 1.897.383.742.574 1.561.574 2.463 0 .904-.194 1.723-.585 2.463-.393.738-.935 1.367-1.629 1.885-.674.513-1.458.91-2.345 1.189-.891.279-1.84.418-2.846.418-1.072 0-2.061-.15-2.971-.445-.909-.297-1.686-.711-2.34-1.239-.651-.523-1.163-1.152-1.535-1.892-.374-.742-.561-1.535-.561-2.379 0-.928.197-1.754.587-2.479.39-.724.93-1.351 1.62-1.881.677-.525 1.469-.927 2.371-1.207.901-.275 1.844-.414 2.829-.414 1.019 0 1.983.141 2.887.424.907.285 1.687.684 2.345 1.197z" mask="url(#b)"/><path d="m103.124 3.238c0-.689-.267-1.236-.805-1.64-.534-.403-1.291-.604-2.269-.604h-1.846v4.881h1.421c1.001 0 1.833-.236 2.498-.711.668-.471 1.001-1.113 1.001-1.926zm5.71 8.489h-4.149c-.917-1.067-1.748-1.985-2.489-2.762-.742-.774-1.546-1.576-2.413-2.399h-1.579v3.61c0 .189.038.353.12.496.079.141.249.248.51.324.129.037.357.074.684.104.325.033.601.05.825.056v.571h-6.515v-.571c.172-.011.423-.029.755-.056.33-.026.56-.063.689-.104.218-.07.373-.17.474-.303.096-.136.147-.306.147-.517v-8.235c0-.187-.038-.353-.111-.498-.073-.144-.243-.254-.51-.33-.182-.047-.417-.091-.705-.131-.291-.041-.537-.066-.739-.076v-.57h7.113c.649 0 1.263.049 1.834.148.571.1 1.09.258 1.554.477.447.215.806.494 1.074.84.266.345.401.762.401 1.248 0 .437-.09.826-.27 1.164-.181.338-.451.629-.804.875-.325.23-.716.43-1.172.597-.459.17-.961.313-1.512.43.763.744 1.394 1.369 1.898 1.879.502.508 1.118 1.127 1.848 1.854.321.32.609.558.866.711.257.152.511.277.765.373.188.07.424.123.704.16.284.039.519.058.707.064z" mask="url(#b)"/><path d="m124.339 7.184c-.172.015-.405.039-.699.076-.293.033-.531.084-.713.146-.215.082-.369.194-.461.344-.089.146-.135.32-.135.516v.882c0 .643.007 1.077.018 1.303.01.223.023.408.036.553-.962.322-1.921.568-2.877.74-.956.168-1.893.256-2.814.256-.982 0-1.93-.137-2.841-.41-.915-.274-1.712-.662-2.391-1.164-.688-.51-1.234-1.127-1.639-1.856-.406-.728-.609-1.543-.609-2.441 0-.867.195-1.674.582-2.416.385-.742.936-1.383 1.646-1.932.685-.533 1.506-.951 2.457-1.25.954-.295 1.971-.445 3.058-.445.87 0 1.624.078 2.269.234.644.155 1.212.342 1.705.561l.445-.545h.868l.099 3.982h-.89c-.153-.439-.341-.873-.566-1.297-.225-.425-.513-.806-.871-1.144-.352-.336-.788-.606-1.299-.807-.51-.199-1.121-.299-1.832-.299-.774 0-1.466.116-2.074.348-.611.233-1.14.58-1.587 1.039-.443.446-.784.998-1.022 1.664-.242.664-.36 1.405-.36 2.225 0 .722.118 1.404.354 2.043.236.642.576 1.195 1.028 1.662.447.477 1.01.852 1.684 1.125.673.271 1.438.406 2.296.406.635 0 1.217-.07 1.744-.213.524-.148.895-.298 1.113-.459.058-.277.09-.56.095-.843.002-.284.006-.524.006-.723v-.627c0-.223-.043-.422-.127-.598-.083-.172-.254-.301-.516-.379-.238-.082-.563-.142-.973-.181-.407-.041-.727-.065-.961-.076v-.586h6.754z" mask="url(#b)"/></g><path d="m288.289 83.727h-6.938v-.571c.193-.011.477-.025.847-.047.369-.021.629-.054.78-.097.24-.069.414-.166.522-.285.109-.122.164-.286.164-.502v-8.252c0-.186-.041-.342-.12-.469-.079-.125-.267-.231-.566-.317-.215-.066-.49-.124-.818-.181-.329-.057-.599-.09-.809-.1v-.57h6.938v.57c-.226.006-.493.024-.805.061-.309.035-.581.078-.812.131-.275.064-.462.168-.555.314-.094.145-.141.305-.141.481v8.244c0 .179.051.332.156.468.105.137.285.247.54.327.153.043.399.089.744.14.343.051.634.078.873.084z" fill="#fffffe"/><path d="m298.388 79.072-2.334-4.42-2.3 4.42zm6.199 4.655h-6.405v-.571c.565-.025 1.034-.078 1.407-.16.371-.082.561-.178.561-.295 0-.051-.008-.109-.025-.18-.013-.068-.036-.13-.066-.183l-1.274-2.555h-5.408c-.205.375-.367.703-.496.981-.125.277-.241.535-.342.769-.095.233-.161.42-.194.565-.038.144-.056.261-.056.353 0 .211.228.381.683.498.457.117.97.186 1.544.207v.571h-5.804v-.571c.19-.011.423-.043.705-.092.284-.05.515-.117.695-.205.292-.144.513-.295.673-.453.161-.156.314-.377.469-.654.773-1.428 1.627-3.035 2.563-4.815.932-1.783 1.766-3.369 2.496-4.761h.867l5.139 9.826c.107.209.23.377.369.504.136.129.327.254.573.377.169.076.385.138.653.189s.492.078.673.084z" fill="#fffffe"/></g></svg>