<?xml version="1.0" encoding="UTF-8"?>
<svg width="281px" height="59px" viewBox="0 0 281 59" version="1.1" xmlns="http://www.w3.org/2000/svg"
     xmlns:xlink="http://www.w3.org/1999/xlink">
    <!-- Generator: Sketch 55.2 (78181) - https://sketchapp.com -->
    <title>NWFL-White LARGE</title>
    <desc>Created with Sketch.</desc>
    <defs>
        <polygon id="path-1" points="0.708 0.653 8.096 0.653 8.096 8.94 0.708 8.94"></polygon>
        <polygon id="path-3" points="0.684 0.653 17.768 0.653 17.768 8.94 0.684 8.94"></polygon>
        <polygon id="path-5" points="0.971 0.653 13.64 0.653 13.64 8.94 0.971 8.94"></polygon>
        <polygon id="path-7" points="0.543 0.653 14.939 0.653 14.939 8.94 0.543 8.94"></polygon>
    </defs>
    <g id="NWFL-White-LARGE" stroke="none" stroke-width="1" fill="none" fill-rule="evenodd">
        <g id="Group-3" transform="translate(84.000000, 50.000000)">
            <mask id="mask-2" fill="white">
                <use xlink:href="#path-1"></use>
            </mask>
            <g id="Clip-2"></g>
            <path d="M4.39,8.148 C6.045,8.148 6.98,6.626 6.98,4.791 C6.98,3.184 6.141,1.505 4.402,1.505 C2.663,1.505 1.799,3.124 1.799,4.875 C1.799,6.578 2.735,8.148 4.378,8.148 L4.39,8.148 Z M4.342,9 C2.195,9 0.708,7.346 0.708,4.898 C0.708,2.332 2.291,0.653 4.45,0.653 C6.669,0.653 8.096,2.344 8.096,4.743 C8.096,7.514 6.405,9 4.354,9 L4.342,9 L4.342,9 Z"
                  id="Fill-1" fill="#FFFFFF" mask="url(#mask-2)"></path>
        </g>
        <polyline id="Fill-4" fill="#FFFFFF"
                  points="95.724 50.785 100.077 50.785 100.077 51.66 96.779 51.66 96.779 54.348 99.826 54.348 99.826 55.211 96.779 55.211 96.779 58.869 95.724 58.869 95.724 50.785"></polyline>
        <g id="Group-8" transform="translate(108.000000, 50.000000)">
            <mask id="mask-4" fill="white">
                <use xlink:href="#path-3"></use>
            </mask>
            <g id="Clip-6"></g>
            <path d="M0.684,8.869 L0.684,0.785 L1.835,0.785 L4.414,4.875 C5.001,5.822 5.481,6.662 5.853,7.502 L5.889,7.489 C5.792,6.41 5.769,5.427 5.769,4.18 L5.769,0.785 L6.752,0.785 L6.752,8.869 L5.697,8.869 L3.13,4.768 C2.566,3.867 2.027,2.943 1.631,2.068 L1.595,2.08 C1.655,3.1 1.667,4.071 1.667,5.414 L1.667,8.869 L0.684,8.869"
                  id="Fill-5" fill="#FFFFFF" mask="url(#mask-4)"></path>
            <path d="M14.062,8.148 C15.717,8.148 16.652,6.626 16.652,4.791 C16.652,3.184 15.813,1.505 14.074,1.505 C12.335,1.505 11.471,3.124 11.471,4.875 C11.471,6.578 12.407,8.148 14.05,8.148 L14.062,8.148 Z M14.014,9 C11.867,9 10.38,7.346 10.38,4.898 C10.38,2.332 11.963,0.653 14.122,0.653 C16.341,0.653 17.768,2.344 17.768,4.743 C17.768,7.514 16.077,9 14.026,9 L14.014,9 L14.014,9 Z"
                  id="Fill-7" fill="#FFFFFF" mask="url(#mask-4)"></path>
        </g>
        <path d="M130.451,54.575 L131.519,54.575 C132.634,54.575 133.341,53.963 133.341,53.04 C133.341,51.996 132.586,51.541 131.482,51.541 C130.979,51.541 130.631,51.589 130.451,51.637 L130.451,54.575 Z M129.408,50.905 C129.935,50.797 130.703,50.725 131.411,50.725 C132.526,50.725 133.257,50.941 133.761,51.396 C134.157,51.744 134.397,52.297 134.397,52.932 C134.397,53.987 133.713,54.695 132.874,54.982 L132.874,55.019 C133.485,55.234 133.857,55.81 134.061,56.65 C134.325,57.777 134.517,58.557 134.673,58.869 L133.593,58.869 C133.461,58.641 133.281,57.945 133.065,56.937 C132.826,55.822 132.382,55.402 131.435,55.367 L130.451,55.367 L130.451,58.869 L129.408,58.869 L129.408,50.905 L129.408,50.905 Z"
              id="Fill-9" fill="#FFFFFF"></path>
        <polyline id="Fill-10" fill="#FFFFFF"
                  points="139.74 51.673 137.281 51.673 137.281 50.785 143.265 50.785 143.265 51.673 140.794 51.673 140.794 58.869 139.74 58.869 139.74 51.673"></polyline>
        <polyline id="Fill-11" fill="#FFFFFF"
                  points="147.492 50.785 147.492 54.167 151.401 54.167 151.401 50.785 152.457 50.785 152.457 58.869 151.401 58.869 151.401 55.078 147.492 55.078 147.492 58.869 146.435 58.869 146.435 50.785 147.492 50.785"></polyline>
        <path d="M157.871,58.869 L155.82,50.785 L156.923,50.785 L157.882,54.875 C158.123,55.895 158.339,56.89 158.482,57.67 L158.506,57.67 C158.638,56.865 158.89,55.906 159.166,54.863 L160.246,50.785 L161.337,50.785 L162.32,54.887 C162.548,55.858 162.764,56.806 162.884,57.657 L162.908,57.657 C163.076,56.77 163.304,55.87 163.556,54.863 L164.623,50.785 L165.691,50.785 L163.4,58.869 L162.308,58.869 L161.289,54.671 C161.037,53.627 160.869,52.836 160.761,52.021 L160.738,52.021 C160.605,52.836 160.414,53.615 160.114,54.659 L158.962,58.869 L157.871,58.869"
              id="Fill-12" fill="#FFFFFF"></path>
        <g id="Group-16" transform="translate(168.000000, 50.000000)">
            <mask id="mask-6" fill="white">
                <use xlink:href="#path-5"></use>
            </mask>
            <g id="Clip-14"></g>
            <polyline id="Fill-13" fill="#FFFFFF" mask="url(#mask-6)"
                      points="5.157 5.078 2.027 5.078 2.027 7.993 5.529 7.993 5.529 8.869 0.971 8.869 0.971 0.785 5.349 0.785 5.349 1.66 2.027 1.66 2.027 4.215 5.157 4.215 5.157 5.078"></polyline>
            <path d="M9.035,7.598 C9.502,7.896 10.174,8.125 10.894,8.125 C11.961,8.125 12.585,7.573 12.585,6.746 C12.585,6.002 12.154,5.559 11.062,5.15 C9.743,4.671 8.927,3.976 8.927,2.848 C8.927,1.589 9.97,0.653 11.542,0.653 C12.357,0.653 12.968,0.846 13.316,1.049 L13.029,1.9 C12.777,1.744 12.238,1.517 11.505,1.517 C10.402,1.517 9.982,2.176 9.982,2.729 C9.982,3.483 10.474,3.855 11.589,4.287 C12.957,4.826 13.64,5.475 13.64,6.662 C13.64,7.909 12.729,9 10.822,9 C10.042,9 9.191,8.761 8.759,8.473 L9.035,7.598"
                  id="Fill-15" fill="#FFFFFF" mask="url(#mask-6)"></path>
        </g>
        <polyline id="Fill-17" fill="#FFFFFF"
                  points="186.898 51.673 184.439 51.673 184.439 50.785 190.424 50.785 190.424 51.673 187.954 51.673 187.954 58.869 186.898 58.869 186.898 51.673"></polyline>
        <polyline id="Fill-18" fill="#FFFFFF"
                  points="198.418 50.785 202.772 50.785 202.772 51.66 199.474 51.66 199.474 54.348 202.52 54.348 202.52 55.211 199.474 55.211 199.474 58.869 198.418 58.869 198.418 50.785"></polyline>
        <g id="Group-22" transform="translate(206.000000, 50.000000)">
            <mask id="mask-8" fill="white">
                <use xlink:href="#path-7"></use>
            </mask>
            <g id="Clip-20"></g>
            <polyline id="Fill-19" fill="#FFFFFF" mask="url(#mask-8)"
                      points="0.543 0.785 1.599 0.785 1.599 7.993 5.053 7.993 5.053 8.869 0.543 8.869 0.543 0.785"></polyline>
            <path d="M11.233,8.148 C12.888,8.148 13.824,6.626 13.824,4.791 C13.824,3.184 12.985,1.505 11.246,1.505 C9.506,1.505 8.643,3.124 8.643,4.875 C8.643,6.578 9.579,8.148 11.221,8.148 L11.233,8.148 Z M11.185,9 C9.039,9 7.551,7.346 7.551,4.898 C7.551,2.332 9.134,0.653 11.293,0.653 C13.512,0.653 14.939,2.344 14.939,4.743 C14.939,7.514 13.249,9 11.198,9 L11.185,9 L11.185,9 Z"
                  id="Fill-21" fill="#FFFFFF" mask="url(#mask-8)"></path>
        </g>
        <path d="M225.624,54.575 L226.691,54.575 C227.806,54.575 228.514,53.963 228.514,53.04 C228.514,51.996 227.758,51.541 226.655,51.541 C226.151,51.541 225.803,51.589 225.624,51.637 L225.624,54.575 Z M224.58,50.905 C225.108,50.797 225.875,50.725 226.583,50.725 C227.699,50.725 228.43,50.941 228.933,51.396 C229.33,51.744 229.569,52.297 229.569,52.932 C229.569,53.987 228.885,54.695 228.046,54.982 L228.046,55.019 C228.658,55.234 229.03,55.81 229.234,56.65 C229.498,57.777 229.689,58.557 229.845,58.869 L228.766,58.869 C228.633,58.641 228.454,57.945 228.238,56.937 C227.999,55.822 227.554,55.402 226.607,55.367 L225.624,55.367 L225.624,58.869 L224.58,58.869 L224.58,50.905 L224.58,50.905 Z"
              id="Fill-23" fill="#FFFFFF"></path>
        <g id="Group-27" transform="translate(233.000000, 50.000000)" fill="#FFFFFF">
            <polygon id="Fill-24" points="0.303 8.869 1.359 8.869 1.359 0.785 0.303 0.785"></polygon>
            <path d="M6.506,8.053 C6.77,8.102 7.154,8.102 7.562,8.102 C9.792,8.113 11.003,6.854 11.003,4.671 C11.016,2.74 9.936,1.553 7.73,1.553 C7.19,1.553 6.782,1.601 6.506,1.66 L6.506,8.053 Z M5.451,0.893 C6.098,0.797 6.854,0.725 7.681,0.725 C9.181,0.725 10.249,1.061 10.956,1.721 C11.687,2.381 12.107,3.328 12.107,4.635 C12.107,5.954 11.687,7.033 10.944,7.777 C10.176,8.533 8.929,8.94 7.358,8.94 C6.602,8.94 5.991,8.916 5.451,8.845 L5.451,0.893 L5.451,0.893 Z"
                  id="Fill-26"></path>
        </g>
        <path d="M252.693,55.511 L251.889,53.184 C251.721,52.656 251.602,52.176 251.482,51.709 L251.446,51.709 C251.337,52.176 251.206,52.68 251.05,53.172 L250.258,55.511 L252.693,55.511 Z M250.042,56.326 L249.203,58.869 L248.124,58.869 L250.87,50.785 L252.129,50.785 L254.888,58.869 L253.773,58.869 L252.909,56.326 L250.042,56.326 L250.042,56.326 Z"
              id="Fill-28" fill="#FFFFFF"></path>
        <path d="M70.144,32.83 C70.144,36.047 70.144,38.561 70.313,39.97 C70.412,40.939 70.613,41.677 71.62,41.811 C72.088,41.877 72.825,41.945 73.294,41.945 C73.73,41.945 73.864,42.045 73.864,42.213 C73.864,42.447 73.629,42.547 73.127,42.547 C71.016,42.547 68.905,42.447 68.033,42.447 C67.163,42.447 65.052,42.547 63.777,42.547 C63.309,42.547 63.074,42.48 63.074,42.213 C63.074,42.045 63.208,41.945 63.577,41.945 C64.08,41.945 64.482,41.877 64.783,41.811 C65.454,41.677 65.621,40.939 65.755,39.97 C65.922,38.561 65.922,36.047 65.922,32.83 L65.922,26.934 C65.922,21.84 65.922,20.901 65.856,19.829 C65.789,18.689 65.52,18.153 64.415,17.919 C64.147,17.853 63.577,17.818 63.108,17.818 C62.772,17.818 62.539,17.752 62.539,17.551 C62.539,17.283 62.807,17.216 63.309,17.216 C64.181,17.216 65.152,17.249 66.023,17.249 C66.894,17.283 67.664,17.316 68.134,17.316 C69.408,17.316 76.21,17.316 76.98,17.283 C77.616,17.249 78.018,17.249 78.355,17.148 C78.555,17.082 78.724,16.947 78.891,16.947 C79.024,16.947 79.125,17.082 79.125,17.249 C79.125,17.484 78.957,17.885 78.857,18.758 C78.823,19.093 78.755,21.068 78.689,21.471 C78.655,21.739 78.588,21.941 78.355,21.941 C78.119,21.941 78.053,21.773 78.018,21.404 C78.018,21.136 78.018,20.6 77.817,20.131 C77.584,19.662 76.879,19.159 75.607,19.124 L70.446,19.025 C70.245,19.025 70.144,19.124 70.144,19.494 L70.144,27.871 C70.144,28.072 70.178,28.173 70.379,28.173 L74.669,28.14 C75.238,28.14 75.707,28.14 76.176,28.105 C76.812,28.072 77.283,27.938 77.616,27.502 C77.786,27.303 77.851,27.168 78.053,27.168 C78.186,27.168 78.254,27.268 78.254,27.469 C78.254,27.67 78.088,28.508 77.987,29.547 C77.917,30.217 77.851,31.758 77.851,31.992 C77.851,32.294 77.851,32.629 77.516,32.629 C77.314,32.629 77.248,32.394 77.248,32.16 C77.248,31.926 77.182,31.523 77.047,31.121 C76.879,30.652 76.377,30.049 75.338,29.916 C74.5,29.816 70.948,29.816 70.379,29.816 C70.212,29.816 70.144,29.882 70.144,30.116 L70.144,32.83"
              id="Fill-29" fill="#FFFFFF"></path>
        <path d="M89.643,33.803 C89.778,33.803 89.811,33.735 89.778,33.635 L86.997,26.396 C86.962,26.296 86.929,26.129 86.863,26.129 C86.763,26.129 86.728,26.296 86.695,26.396 L83.848,33.602 C83.779,33.735 83.848,33.803 83.947,33.803 L89.643,33.803 Z M83.344,35.377 C83.177,35.377 83.142,35.41 83.077,35.578 L81.501,39.398 C81.2,40.101 81.065,40.805 81.065,41.141 C81.065,41.643 81.334,41.945 82.238,41.945 L82.674,41.945 C83.042,41.945 83.109,42.078 83.109,42.246 C83.109,42.48 82.941,42.547 82.64,42.547 C81.669,42.547 80.295,42.447 79.357,42.447 C79.056,42.447 77.481,42.547 75.938,42.547 C75.57,42.547 75.402,42.48 75.402,42.246 C75.402,42.078 75.504,41.945 75.738,41.945 C76.006,41.945 76.342,41.911 76.609,41.911 C77.95,41.709 78.452,40.838 79.056,39.398 L86.763,21.471 C87.098,20.667 87.331,20.332 87.633,20.332 C88.068,20.332 88.204,20.6 88.506,21.236 C89.208,22.812 94.133,34.473 96.01,38.795 C97.149,41.375 97.986,41.744 98.523,41.844 C98.959,41.911 99.295,41.945 99.629,41.945 C99.897,41.945 100.032,42.045 100.032,42.246 C100.032,42.48 99.863,42.547 98.758,42.547 C97.719,42.547 95.574,42.547 93.095,42.48 C92.559,42.447 92.225,42.447 92.225,42.246 C92.225,42.078 92.291,41.978 92.592,41.945 C92.793,41.911 92.995,41.643 92.86,41.309 L90.582,35.578 C90.515,35.41 90.414,35.377 90.281,35.377 L83.344,35.377 L83.344,35.377 Z"
              id="Fill-30" fill="#FFFFFF"></path>
        <path d="M106.328,31.457 C106.328,31.758 106.395,31.858 106.596,31.959 C107.232,32.16 108.104,32.227 108.841,32.227 C110.014,32.227 110.415,32.127 110.918,31.758 C111.823,31.121 112.828,29.882 112.828,27.535 C112.828,23.515 110.082,22.477 108.338,22.477 C107.601,22.477 106.897,22.51 106.596,22.576 C106.395,22.645 106.328,22.744 106.328,22.979 L106.328,31.457 Z M102.575,29.245 C102.575,24.922 102.575,24.119 102.542,23.213 C102.474,22.242 102.207,21.941 101.268,21.672 C101.033,21.604 100.531,21.572 100.096,21.572 C99.794,21.572 99.592,21.471 99.592,21.27 C99.592,21.068 99.828,21.002 100.263,21.002 C101.804,21.002 103.68,21.068 104.283,21.068 C105.289,21.068 107.97,21.002 108.875,21.002 C110.75,21.002 112.896,21.17 114.47,22.207 C115.309,22.778 116.548,24.219 116.548,26.129 C116.548,28.24 115.341,30.116 112.46,32.43 C115.073,35.646 117.15,38.226 118.926,40 C120.568,41.643 121.608,41.777 122.077,41.877 C122.378,41.945 122.545,41.945 122.78,41.945 C123.015,41.945 123.148,42.113 123.148,42.246 C123.148,42.48 122.947,42.547 122.58,42.547 L119.765,42.547 C118.123,42.547 117.318,42.381 116.548,41.978 C115.274,41.342 114.169,40 112.526,37.789 C111.354,36.248 110.114,34.338 109.745,33.902 C109.578,33.735 109.41,33.701 109.209,33.701 L106.562,33.635 C106.428,33.635 106.328,33.701 106.328,33.869 L106.328,34.271 C106.328,36.918 106.361,39.131 106.496,40.338 C106.596,41.174 106.73,41.709 107.635,41.844 C108.071,41.911 108.706,41.945 109.075,41.945 C109.31,41.945 109.445,42.113 109.445,42.246 C109.445,42.447 109.209,42.547 108.841,42.547 C107.132,42.547 104.687,42.447 104.25,42.447 C103.68,42.447 101.804,42.547 100.631,42.547 C100.263,42.547 100.061,42.447 100.061,42.246 C100.061,42.113 100.162,41.945 100.531,41.945 C100.966,41.945 101.301,41.911 101.569,41.844 C102.173,41.709 102.34,41.174 102.441,40.338 C102.575,39.131 102.575,36.885 102.575,34.271 L102.575,29.245 L102.575,29.245 Z"
              id="Fill-31" fill="#FFFFFF"></path>
        <path d="M126.664,21.102 C126.731,20.634 127,20.365 127.233,20.365 C127.537,20.365 127.737,20.499 128.14,21.27 L136.046,37.152 L143.955,21.068 C144.189,20.6 144.458,20.365 144.724,20.365 C144.959,20.365 145.295,20.667 145.395,21.27 L148.075,38.861 C148.344,40.637 148.612,41.408 149.516,41.677 C150.355,41.911 150.823,41.945 151.192,41.945 C151.46,41.945 151.661,42.045 151.661,42.213 C151.661,42.447 151.327,42.547 150.891,42.547 C150.154,42.547 145.963,42.414 144.792,42.347 C144.088,42.313 143.92,42.179 143.92,42.012 C143.92,41.877 144.055,41.777 144.256,41.709 C144.423,41.643 144.491,41.309 144.39,40.504 L142.749,28.173 L142.649,28.173 L136.315,40.905 C135.644,42.246 135.477,42.514 135.141,42.514 C134.772,42.514 134.439,41.945 133.968,41.073 C133.266,39.768 130.919,35.41 130.584,34.605 C130.351,34.07 128.607,30.484 127.636,28.508 L127.537,28.508 L126.127,39.633 C126.061,40.136 126.027,40.504 126.027,40.973 C126.027,41.509 126.43,41.709 126.932,41.811 C127.436,41.911 127.703,41.945 127.971,41.945 C128.24,41.945 128.441,42.078 128.441,42.213 C128.441,42.48 128.171,42.547 127.737,42.547 C126.496,42.547 125.157,42.447 124.62,42.447 C124.05,42.447 122.643,42.547 121.705,42.547 C121.404,42.547 121.168,42.48 121.168,42.213 C121.168,42.078 121.337,41.945 121.637,41.945 C121.873,41.945 122.073,41.945 122.542,41.877 C123.347,41.777 123.616,40.637 123.748,39.699 L126.664,21.102"
              id="Fill-32" fill="#FFFFFF"></path>
        <path d="M167.706,39.363 C164.421,36.482 163.55,32.73 163.55,29.479 C163.55,27.201 164.253,23.247 167.47,20.298 C169.884,18.087 173.068,16.746 178.06,16.746 C180.138,16.746 181.376,16.881 182.917,17.082 C184.192,17.249 185.265,17.551 186.27,17.651 C186.638,17.686 186.772,17.853 186.772,18.053 C186.772,18.321 186.671,18.725 186.604,19.896 C186.537,21.002 186.572,22.845 186.503,23.515 C186.47,24.018 186.403,24.286 186.101,24.286 C185.833,24.286 185.767,24.018 185.767,23.549 C185.733,22.51 185.297,21.336 184.459,20.466 C183.353,19.295 180.74,18.389 177.658,18.389 C174.744,18.389 172.832,19.124 171.358,20.466 C168.912,22.711 168.275,25.894 168.275,29.145 C168.275,37.119 174.34,41.073 178.831,41.073 C181.812,41.073 183.623,40.738 184.962,39.197 C185.533,38.561 185.968,37.589 186.101,36.986 C186.201,36.449 186.27,36.314 186.537,36.314 C186.772,36.314 186.839,36.55 186.839,36.817 C186.839,37.22 186.437,40.136 186.101,41.274 C185.933,41.844 185.8,42.012 185.23,42.246 C183.89,42.781 181.343,43.016 179.199,43.016 C174.608,43.016 170.755,42.012 167.706,39.363"
              id="Fill-33" fill="#FFFFFF"></path>
        <path d="M195.078,31.457 C195.078,31.758 195.145,31.858 195.345,31.959 C195.982,32.16 196.854,32.227 197.59,32.227 C198.764,32.227 199.167,32.127 199.667,31.758 C200.573,31.121 201.578,29.882 201.578,27.535 C201.578,23.515 198.831,22.477 197.088,22.477 C196.351,22.477 195.647,22.51 195.345,22.576 C195.145,22.645 195.078,22.744 195.078,22.979 L195.078,31.457 Z M191.325,29.245 C191.325,24.922 191.325,24.119 191.292,23.213 C191.224,22.242 190.957,21.941 190.019,21.672 C189.783,21.604 189.281,21.572 188.845,21.572 C188.544,21.572 188.343,21.471 188.343,21.27 C188.343,21.068 188.578,21.002 189.013,21.002 C190.554,21.002 192.431,21.068 193.034,21.068 C194.041,21.068 196.718,21.002 197.625,21.002 C199.5,21.002 201.644,21.17 203.22,22.207 C204.058,22.778 205.298,24.219 205.298,26.129 C205.298,28.24 204.091,30.116 201.209,32.43 C203.824,35.646 205.9,38.226 207.677,40 C209.318,41.643 210.357,41.777 210.826,41.877 C211.128,41.945 211.295,41.945 211.531,41.945 C211.765,41.945 211.899,42.113 211.899,42.246 C211.899,42.48 211.699,42.547 211.33,42.547 L208.515,42.547 C206.873,42.547 206.068,42.381 205.298,41.978 C204.025,41.342 202.918,40 201.277,37.789 C200.104,36.248 198.865,34.338 198.496,33.902 C198.328,33.735 198.161,33.701 197.958,33.701 L195.313,33.635 C195.178,33.635 195.078,33.701 195.078,33.869 L195.078,34.271 C195.078,36.918 195.111,39.131 195.246,40.338 C195.345,41.174 195.48,41.709 196.385,41.844 C196.82,41.911 197.457,41.945 197.826,41.945 C198.06,41.945 198.195,42.113 198.195,42.246 C198.195,42.447 197.958,42.547 197.59,42.547 C195.882,42.547 193.437,42.447 193,42.447 C192.431,42.447 190.554,42.547 189.381,42.547 C189.013,42.547 188.813,42.447 188.813,42.246 C188.813,42.113 188.914,41.945 189.281,41.945 C189.716,41.945 190.051,41.911 190.32,41.844 C190.923,41.709 191.091,41.174 191.192,40.338 C191.325,39.131 191.325,36.885 191.325,34.271 L191.325,29.245 L191.325,29.245 Z"
              id="Fill-34" fill="#FFFFFF"></path>
        <path d="M212.298,29.245 C212.298,24.922 212.298,24.119 212.265,23.213 C212.197,22.242 211.93,21.941 210.991,21.672 C210.757,21.604 210.253,21.572 209.818,21.572 C209.517,21.572 209.316,21.471 209.316,21.27 C209.316,21.068 209.55,21.002 209.986,21.002 C211.528,21.002 213.404,21.068 214.242,21.068 C215.179,21.068 221.714,21.102 222.284,21.068 C222.82,21.035 223.289,20.936 223.524,20.901 C223.691,20.868 223.858,20.768 223.993,20.768 C224.16,20.768 224.194,20.901 224.194,21.035 C224.194,21.236 224.027,21.572 223.958,22.878 C223.925,23.18 223.858,24.421 223.792,24.755 C223.758,24.889 223.691,25.225 223.457,25.225 C223.255,25.225 223.223,25.09 223.223,24.855 C223.223,24.654 223.189,24.152 223.022,23.816 C222.787,23.314 222.552,22.912 221.078,22.778 C220.575,22.711 217.056,22.645 216.454,22.645 C216.319,22.645 216.253,22.744 216.253,22.912 L216.253,29.947 C216.253,30.116 216.285,30.25 216.454,30.25 C217.123,30.25 220.943,30.25 221.613,30.184 C222.316,30.116 222.753,30.049 223.022,29.746 C223.255,29.547 223.355,29.379 223.49,29.379 C223.625,29.379 223.725,29.514 223.725,29.68 C223.725,29.847 223.658,30.317 223.49,31.758 C223.423,32.328 223.355,33.467 223.355,33.668 C223.355,33.902 223.323,34.305 223.053,34.305 C222.853,34.305 222.787,34.204 222.787,34.07 C222.753,33.769 222.753,33.4 222.685,33.031 C222.518,32.462 222.15,32.026 221.044,31.926 C220.508,31.858 217.158,31.791 216.419,31.791 C216.285,31.791 216.253,31.926 216.253,32.094 L216.253,34.371 C216.253,35.344 216.218,37.756 216.253,38.594 C216.319,40.537 217.223,40.973 220.24,40.973 C221.011,40.973 222.25,40.939 223.022,40.604 C223.758,40.268 224.093,39.666 224.294,38.493 C224.361,38.191 224.428,38.059 224.63,38.059 C224.864,38.059 224.898,38.426 224.898,38.729 C224.898,39.363 224.662,41.309 224.495,41.877 C224.294,42.615 224.027,42.615 222.921,42.615 C220.708,42.615 218.933,42.581 217.492,42.514 C216.051,42.48 214.945,42.447 214.074,42.447 C213.74,42.447 213.102,42.48 212.398,42.48 C211.695,42.514 210.958,42.547 210.355,42.547 C209.986,42.547 209.785,42.447 209.785,42.246 C209.785,42.113 209.884,41.945 210.253,41.945 C210.689,41.945 211.025,41.911 211.292,41.844 C211.896,41.709 212.064,41.174 212.164,40.338 C212.298,39.131 212.298,36.885 212.298,34.271 L212.298,29.245"
              id="Fill-35" fill="#FFFFFF"></path>
        <path d="M232.559,32.394 C232.559,35.41 232.591,37.589 232.625,38.158 C232.66,38.861 232.726,39.869 232.96,40.168 C233.33,40.706 234.501,41.309 236.814,41.309 C239.496,41.309 241.472,40.838 243.248,39.363 C245.158,37.789 245.761,35.242 245.761,32.294 C245.761,28.676 244.32,26.33 243.013,25.191 C240.298,22.778 237.083,22.477 234.77,22.477 C234.167,22.477 233.195,22.543 232.96,22.678 C232.693,22.778 232.591,22.912 232.591,23.247 C232.559,24.219 232.559,26.564 232.559,28.809 L232.559,32.394 Z M228.605,29.245 C228.605,24.922 228.605,24.119 228.572,23.213 C228.505,22.242 228.236,21.941 227.297,21.672 C227.062,21.604 226.56,21.572 226.125,21.572 C225.824,21.572 225.623,21.471 225.623,21.27 C225.623,21.068 225.857,21.002 226.292,21.002 C227.833,21.002 229.71,21.068 230.547,21.068 C231.453,21.068 233.563,21.002 235.339,21.002 C239.027,21.002 243.984,21.002 247.201,24.251 C248.675,25.727 249.982,28.105 249.982,31.49 C249.982,35.074 248.441,37.789 246.765,39.432 C245.425,40.771 242.31,42.781 236.881,42.781 C235.809,42.781 234.536,42.682 233.363,42.615 C232.189,42.514 231.117,42.447 230.381,42.447 C230.044,42.447 229.41,42.48 228.705,42.48 C228.001,42.514 227.263,42.547 226.662,42.547 C226.292,42.547 226.091,42.447 226.091,42.246 C226.091,42.113 226.193,41.945 226.56,41.945 C226.996,41.945 227.332,41.911 227.599,41.844 C228.203,41.709 228.37,41.174 228.47,40.338 C228.605,39.131 228.605,36.885 228.605,34.271 L228.605,29.245 L228.605,29.245 Z"
              id="Fill-36" fill="#FFFFFF"></path>
        <path d="M252.761,29.245 C252.761,24.922 252.761,24.119 252.728,23.213 C252.66,22.242 252.357,21.906 251.722,21.705 C251.386,21.604 251.017,21.572 250.65,21.572 C250.349,21.572 250.179,21.504 250.179,21.236 C250.179,21.068 250.414,21.002 250.884,21.002 C251.99,21.002 254.001,21.068 254.839,21.068 C255.576,21.068 257.486,21.002 258.625,21.002 C258.994,21.002 259.228,21.068 259.228,21.236 C259.228,21.504 259.06,21.572 258.757,21.572 C258.457,21.572 258.222,21.604 257.886,21.672 C257.083,21.807 256.847,22.207 256.781,23.213 C256.714,24.119 256.714,24.922 256.714,29.245 L256.714,34.271 C256.714,37.02 256.714,39.297 256.847,40.504 C256.949,41.274 257.15,41.709 258.021,41.844 C258.423,41.911 259.093,41.945 259.529,41.945 C259.865,41.945 259.998,42.113 259.998,42.246 C259.998,42.447 259.763,42.547 259.427,42.547 C257.486,42.547 255.476,42.447 254.669,42.447 C254.001,42.447 251.99,42.547 250.816,42.547 C250.449,42.547 250.248,42.447 250.248,42.246 C250.248,42.113 250.349,41.945 250.716,41.945 C251.154,41.945 251.486,41.911 251.755,41.844 C252.357,41.709 252.527,41.309 252.626,40.47 C252.761,39.297 252.761,37.02 252.761,34.271 L252.761,29.245"
              id="Fill-37" fill="#FFFFFF"></path>
        <path d="M268.976,22.744 L264.587,22.845 C262.878,22.878 262.173,23.08 261.74,23.716 C261.437,24.119 261.302,24.488 261.236,24.689 C261.169,24.922 261.103,25.057 260.902,25.057 C260.701,25.057 260.632,24.889 260.632,24.588 C260.632,24.119 261.203,21.37 261.269,21.136 C261.337,20.768 261.437,20.6 261.605,20.6 C261.839,20.6 262.142,20.834 262.878,20.936 C263.75,21.035 264.855,21.068 265.826,21.068 L277.789,21.068 C278.728,21.068 279.365,21.002 279.8,20.936 C280.269,20.868 280.503,20.801 280.603,20.801 C280.806,20.801 280.839,20.969 280.839,21.404 C280.839,22.008 280.771,24.119 280.771,24.855 C280.738,25.157 280.669,25.324 280.503,25.324 C280.269,25.324 280.201,25.191 280.167,24.755 L280.134,24.453 C280.068,23.716 279.298,22.845 276.65,22.812 L272.931,22.744 L272.931,34.271 C272.931,36.885 272.962,39.131 273.099,40.369 C273.199,41.174 273.367,41.709 274.238,41.844 C274.64,41.911 275.31,41.945 275.746,41.945 C276.08,41.945 276.214,42.113 276.214,42.246 C276.214,42.447 275.98,42.547 275.644,42.547 C273.701,42.547 271.724,42.447 270.886,42.447 C270.216,42.447 268.207,42.547 267.033,42.547 C266.664,42.547 266.462,42.447 266.462,42.246 C266.462,42.113 266.564,41.945 266.931,41.945 C267.369,41.945 267.736,41.911 267.972,41.844 C268.574,41.709 268.744,41.174 268.843,40.338 C268.976,39.131 268.976,36.885 268.976,34.271 L268.976,22.744"
              id="Fill-38" fill="#FFFFFF"></path>
        <path d="M48.13,39.416 C52.125,35.568 58.183,29.777 58.183,29.777 C58.183,29.777 52.042,23.914 48.13,20.137 C44.201,16.344 40.167,19.387 38.978,20.625 L31.474,28.451 L52.734,29.777 L31.474,31.102 L38.978,38.93 C40.151,40.125 44.197,43.205 48.13,39.416"
              id="Fill-39" fill="#FFFFFF"></path>
        <path d="M10.052,39.416 C6.072,35.645 0,29.777 0,29.777 C0,29.777 6.041,23.955 10.052,20.137 C14.008,16.373 18.016,19.387 19.204,20.625 L26.708,28.451 L5.448,29.777 L26.708,31.102 L19.204,38.93 C18.016,40.168 14.016,43.174 10.052,39.416"
              id="Fill-40" fill="#FFFFFF"></path>
        <path d="M19.451,10.738 C23.294,6.768 29.091,0.686 29.091,0.686 C29.091,0.686 34.853,6.75 38.731,10.738 C42.539,14.654 39.482,18.701 38.243,19.889 L30.416,27.395 L29.091,6.133 L27.766,27.395 L19.939,19.889 C18.7,18.701 15.653,14.662 19.451,10.738"
              id="Fill-41" fill="#FFFFFF"></path>
        <path d="M28.506,44.035 L21.456,50.789 C22.29,51.631 23.144,52.512 23.965,53.369 L28.781,48.445 L28.506,44.035"
              id="Fill-42" fill="#FFFFFF"></path>
        <path d="M19.451,48.816 C19.993,49.334 20.567,49.898 21.156,50.488 L28.444,43.037 L28.16,38.48 L18.507,47.727 C18.762,48.092 19.073,48.455 19.451,48.816"
              id="Fill-43" fill="#FFFFFF"></path>
        <path d="M36.727,50.789 L29.676,44.035 L29.401,48.445 L34.217,53.369 C35.039,52.512 35.893,51.631 36.727,50.789"
              id="Fill-44" fill="#FFFFFF"></path>
        <path d="M29.739,43.035 L37.026,50.488 C37.614,49.898 38.189,49.334 38.731,48.816 C39.109,48.455 39.42,48.092 39.675,47.727 L30.022,38.48 L29.739,43.035"
              id="Fill-45" fill="#FFFFFF"></path>
        <path d="M39.977,47.246 C41.838,43.949 39.312,40.689 38.243,39.664 L30.416,32.16 L30.105,37.152 L39.977,47.246"
              id="Fill-46" fill="#FFFFFF"></path>
        <path d="M29.396,49.269 L29.36,49.111 L29.091,53.42 L28.822,49.111 L28.786,49.269 L24.223,53.641 C26.86,56.407 29.091,58.87 29.091,58.87 C29.091,58.87 31.322,56.407 33.96,53.641 L29.396,49.269"
              id="Fill-47" fill="#FFFFFF"></path>
        <path d="M28.077,37.152 L27.766,32.16 L19.939,39.664 C18.87,40.689 16.344,43.949 18.206,47.246 L28.077,37.152"
              id="Fill-48" fill="#FFFFFF"></path>
        <path d="M36.97,55.414 C37.274,55.414 37.546,55.393 37.546,55.027 C37.546,54.734 37.279,54.68 37.029,54.68 L36.54,54.68 L36.54,55.414 L36.97,55.414 Z M36.54,56.747 L36.181,56.747 L36.181,54.375 L37.084,54.375 C37.644,54.375 37.921,54.582 37.921,55.051 C37.921,55.475 37.654,55.658 37.307,55.703 L37.981,56.747 L37.579,56.747 L36.953,55.719 L36.54,55.719 L36.54,56.747 Z M36.975,57.274 C37.905,57.274 38.639,56.546 38.639,55.555 C38.639,54.582 37.905,53.85 36.975,53.85 C36.035,53.85 35.3,54.582 35.3,55.555 C35.3,56.546 36.035,57.274 36.975,57.274 Z M34.887,55.555 C34.887,54.375 35.844,53.506 36.975,53.506 C38.095,53.506 39.052,54.375 39.052,55.555 C39.052,56.747 38.095,57.616 36.975,57.616 C35.844,57.616 34.887,56.747 34.887,55.555 L34.887,55.555 Z"
              id="Fill-49" fill="#FFFFFF"></path>
    </g>
</svg>