<?xml version="1.0" encoding="UTF-8"?>
<svg width="275px" height="58px" viewBox="0 0 275 58" version="1.1" xmlns="http://www.w3.org/2000/svg" xmlns:xlink="http://www.w3.org/1999/xlink">
    <!-- Generator: Sketch 55.2 (78181) - https://sketchapp.com -->
    <title>Brand</title>
    <desc>Created with Sketch.</desc>
    <defs>
        <polygon id="path-1" points="1.06881443 1.28994845 13.1759021 1.28994845 13.1759021 15.507732 1.06881443 15.507732"></polygon>
        <polygon id="path-3" points="0.0850515464 1.20347938 39.5629075 1.20347938 39.5629075 40.8067293 0.0850515464 40.8067293"></polygon>
    </defs>
    <g id="Landing---Main" stroke="none" stroke-width="1" fill="none" fill-rule="evenodd">
        <g id="LandingMain" transform="translate(-583.000000, -81.000000)">
            <g id="Header" transform="translate(1.000000, -664.000000)">
                <g id="Brand" transform="translate(582.000000, 744.000000)">
                    <path d="M68.3346649,32.5832474 C68.3346649,35.723067 68.3346649,38.1768041 68.4990979,39.5503866 C68.5997423,40.4987113 68.7939433,41.2188144 69.7762887,41.3478093 C70.232732,41.414433 70.9542526,41.4796392 71.4106959,41.4796392 C71.8359536,41.4796392 71.9677835,41.578866 71.9677835,41.7418814 C71.9677835,41.9715206 71.7381443,42.0693299 71.2476804,42.0693299 C69.1880155,42.0693299 67.1255155,41.9715206 66.2764175,41.9715206 C65.4259021,41.9715206 63.3648196,42.0693299 62.1216495,42.0693299 C61.6623711,42.0693299 61.432732,42.0027062 61.432732,41.7418814 C61.432732,41.578866 61.5645619,41.4796392 61.9246134,41.4796392 C62.4150773,41.4796392 62.8091495,41.414433 63.1039948,41.3478093 C63.7574742,41.2188144 63.9204897,40.4987113 64.0509021,39.5503866 C64.2153351,38.1768041 64.2153351,35.723067 64.2153351,32.5832474 L64.2153351,26.8266753 C64.2153351,21.8554124 64.2153351,20.9382732 64.1487113,19.8921392 C64.0835052,18.7793814 63.8226804,18.2563144 62.7439433,18.0266753 C62.481701,17.9628866 61.9246134,17.928866 61.4681701,17.928866 C61.1378866,17.928866 60.9096649,17.8636598 60.9096649,17.6680412 C60.9096649,17.405799 61.1747423,17.3405928 61.6623711,17.3405928 C62.5157216,17.3405928 63.4626289,17.3731959 64.3131443,17.3731959 C65.1650773,17.405799 65.916366,17.4398196 66.3742268,17.4398196 C67.6159794,17.4398196 74.2570876,17.4398196 75.0097938,17.405799 C75.6306701,17.3731959 76.0233247,17.3731959 76.3493557,17.2753866 C76.5463918,17.2115979 76.7094072,17.0783505 76.8724227,17.0783505 C77.0042526,17.0783505 77.1020619,17.2115979 77.1020619,17.3731959 C77.1020619,17.6014175 76.9376289,17.9940722 76.8412371,18.8460052 C76.8072165,19.1720361 76.7420103,21.1027062 76.6782216,21.4939433 C76.644201,21.7561856 76.5775773,21.9532216 76.3493557,21.9532216 C76.118299,21.9532216 76.0530928,21.7887887 76.0233247,21.4287371 C76.0233247,21.1679124 76.0233247,20.6434278 75.8248711,20.1869845 C75.5966495,19.7277062 74.910567,19.2386598 73.6673969,19.2046392 L68.6295103,19.1068299 C68.4367268,19.1068299 68.3346649,19.2046392 68.3346649,19.5646907 L68.3346649,27.7423969 C68.3346649,27.9380155 68.3701031,28.0372423 68.5628866,28.0372423 L72.7516753,28.0032216 C73.3087629,28.0032216 73.7666237,28.0032216 74.223067,27.9706186 C74.8453608,27.9380155 75.3032216,27.8076031 75.6306701,27.3823454 C75.7951031,27.1867268 75.8617268,27.0563144 76.0530928,27.0563144 C76.1849227,27.0563144 76.2515464,27.1527062 76.2515464,27.3497423 C76.2515464,27.5453608 76.0899485,28.3632732 75.9893041,29.3768041 C75.926933,30.031701 75.8617268,31.5356959 75.8617268,31.7653351 C75.8617268,32.0601804 75.8617268,32.3876289 75.5314433,32.3876289 C75.3358247,32.3876289 75.2706186,32.1594072 75.2706186,31.9283505 C75.2706186,31.7001289 75.2054124,31.3074742 75.075,30.9148196 C74.910567,30.4569588 74.4201031,29.8701031 73.4065722,29.7368557 C72.5886598,29.6418814 69.1213918,29.6418814 68.5628866,29.6418814 C68.3998711,29.6418814 68.3346649,29.7070876 68.3346649,29.9353093 L68.3346649,32.5832474" id="Fill-1" fill="#FFFFFE"></path>
                    <path d="M87.3720361,33.5315722 C87.5052835,33.5315722 87.5378866,33.466366 87.5052835,33.3671392 L84.7893041,26.3036082 C84.756701,26.2029639 84.7240979,26.041366 84.6588918,26.041366 C84.5610825,26.041366 84.5270619,26.2029639 84.4944588,26.3036082 L81.7146907,33.3345361 C81.6494845,33.466366 81.7146907,33.5315722 81.8125,33.5315722 L87.3720361,33.5315722 Z M81.2242268,35.0695876 C81.0612113,35.0695876 81.0271907,35.1021907 80.9619845,35.2652062 L79.4253866,38.9947165 C79.1319588,39.680799 79.0001289,40.368299 79.0001289,40.6957474 C79.0001289,41.1862113 79.2609536,41.4796392 80.1440722,41.4796392 L80.5707474,41.4796392 C80.9293814,41.4796392 80.9960052,41.6100515 80.9960052,41.773067 C80.9960052,42.0027062 80.8315722,42.0693299 80.5381443,42.0693299 C79.5884021,42.0693299 78.2474227,41.9715206 77.331701,41.9715206 C77.0368557,41.9715206 75.5016753,42.0693299 73.9962629,42.0693299 C73.6347938,42.0693299 73.4731959,42.0027062 73.4731959,41.773067 C73.4731959,41.6100515 73.5695876,41.4796392 73.7992268,41.4796392 C74.0600515,41.4796392 74.3889175,41.4484536 74.6497423,41.4484536 C75.956701,41.2514175 76.45,40.4009021 77.0368557,38.9947165 L84.5610825,21.4939433 C84.8885309,20.7100515 85.1153351,20.3826031 85.4101804,20.3826031 C85.8354381,20.3826031 85.967268,20.6434278 86.2621134,21.2657216 C86.9481959,22.8037371 91.7564433,34.1864691 93.5878866,38.4064433 C94.7006443,40.9239691 95.5185567,41.2840206 96.0416237,41.3818299 C96.4668814,41.4484536 96.7929124,41.4796392 97.1217784,41.4796392 C97.3826031,41.4796392 97.5115979,41.578866 97.5115979,41.773067 C97.5115979,42.0027062 97.3485825,42.0693299 96.2712629,42.0693299 C95.2563144,42.0693299 93.1626289,42.0693299 90.7414948,42.0027062 C90.2184278,41.9715206 89.8909794,41.9715206 89.8909794,41.773067 C89.8909794,41.6100515 89.9561856,41.5122423 90.2524485,41.4796392 C90.448067,41.4484536 90.6436856,41.1862113 90.5118557,40.8573454 L88.2891753,35.2652062 C88.2239691,35.1021907 88.1247423,35.0695876 87.9957474,35.0695876 L81.2242268,35.0695876 L81.2242268,35.0695876 Z" id="Fill-2" fill="#FFFFFE"></path>
                    <path d="M103.665077,31.242268 C103.665077,31.5356959 103.728866,31.6349227 103.924485,31.732732 C104.545361,31.9283505 105.397294,31.9949742 106.117397,31.9949742 C107.262758,31.9949742 107.653995,31.8957474 108.143041,31.5356959 C109.027577,30.9148196 110.008505,29.7070876 110.008505,27.4149485 C110.008505,23.4898196 107.326546,22.4748711 105.626933,22.4748711 C104.90683,22.4748711 104.217912,22.5103093 103.924485,22.5740979 C103.728866,22.6364691 103.665077,22.7385309 103.665077,22.9667526 L103.665077,31.242268 Z M99.9993557,29.0833763 C99.9993557,24.8634021 99.9993557,24.0795103 99.9681701,23.1949742 C99.9015464,22.2466495 99.6407216,21.9532216 98.725,21.6923969 C98.4967784,21.6257732 98.0048969,21.5917526 97.5782216,21.5917526 C97.2847938,21.5917526 97.0877577,21.4939433 97.0877577,21.2983247 C97.0877577,21.1027062 97.3188144,21.0375 97.7440722,21.0375 C99.248067,21.0375 101.07951,21.1027062 101.667784,21.1027062 C102.650129,21.1027062 105.265464,21.0375 106.148582,21.0375 C107.981443,21.0375 110.073711,21.1990979 111.611727,22.2154639 C112.428222,22.768299 113.640206,24.1773196 113.640206,26.041366 C113.640206,28.1024485 112.462242,29.9353093 109.649871,32.1891753 C112.2,35.3304124 114.229897,37.8493557 115.962113,39.5829897 C117.563918,41.1862113 118.578866,41.3152062 119.036727,41.414433 C119.330155,41.4796392 119.494588,41.4796392 119.724227,41.4796392 C119.953866,41.4796392 120.084278,41.6426546 120.084278,41.773067 C120.084278,42.0027062 119.887242,42.0693299 119.527191,42.0693299 L116.778608,42.0693299 C115.176804,42.0693299 114.391495,41.9048969 113.640206,41.5122423 C112.395619,40.891366 111.316881,39.5829897 109.71366,37.4255155 C108.569716,35.9186856 107.359149,34.0546392 106.999098,33.630799 C106.836082,33.466366 106.673067,33.4323454 106.474613,33.4323454 L103.891881,33.3671392 C103.761469,33.3671392 103.665077,33.4323454 103.665077,33.5967784 L103.665077,33.989433 C103.665077,36.5735825 103.696263,38.7324742 103.828093,39.9104381 C103.924485,40.7283505 104.054897,41.2514175 104.938015,41.3818299 C105.364691,41.4484536 105.986985,41.4796392 106.345619,41.4796392 C106.576675,41.4796392 106.704253,41.6426546 106.704253,41.773067 C106.704253,41.9715206 106.474613,42.0693299 106.117397,42.0693299 C104.450387,42.0693299 102.060438,41.9715206 101.63518,41.9715206 C101.07951,41.9715206 99.248067,42.0693299 98.1027062,42.0693299 C97.7440722,42.0693299 97.5470361,41.9715206 97.5470361,41.773067 C97.5470361,41.6426546 97.6434278,41.4796392 98.0048969,41.4796392 C98.4301546,41.4796392 98.7561856,41.4484536 99.0198454,41.3818299 C99.6081186,41.2514175 99.771134,40.7283505 99.8689433,39.9104381 C99.9993557,38.7324742 99.9993557,36.5409794 99.9993557,33.989433 L99.9993557,29.0833763 L99.9993557,29.0833763 Z" id="Fill-3" fill="#FFFFFE"></path>
                    <path d="M123.518943,21.1338918 C123.584149,20.6760309 123.846392,20.4152062 124.074613,20.4152062 C124.369459,20.4152062 124.566495,20.5470361 124.957732,21.2983247 L132.67616,36.8018041 L140.397423,21.1027062 C140.625644,20.6434278 140.887887,20.4152062 141.147294,20.4152062 C141.376933,20.4152062 141.705799,20.7100515 141.802191,21.2983247 L144.420361,38.470232 C144.681186,40.203866 144.94201,40.9565722 145.826546,41.2188144 C146.644459,41.4484536 147.10232,41.4796392 147.462371,41.4796392 C147.723196,41.4796392 147.918814,41.578866 147.918814,41.7418814 C147.918814,41.9715206 147.592784,42.0693299 147.168943,42.0693299 C146.44884,42.0693299 142.359278,41.9375 141.213918,41.8737113 C140.527835,41.8396907 140.363402,41.7092784 140.363402,41.5462629 C140.363402,41.414433 140.493814,41.3152062 140.690851,41.2514175 C140.853866,41.1862113 140.919072,40.8573454 140.82268,40.0734536 L139.218041,28.0372423 L139.121649,28.0372423 L132.938402,40.4646907 C132.284923,41.773067 132.121907,42.0353093 131.794459,42.0353093 C131.434407,42.0353093 131.106959,41.4796392 130.650515,40.6291237 C129.963015,39.354768 127.672294,35.1021907 127.344845,34.3168814 C127.115206,33.7938144 125.41701,30.2939433 124.467268,28.3632732 L124.369459,28.3632732 L122.995876,39.2229381 C122.93067,39.7134021 122.896649,40.0734536 122.896649,40.5313144 C122.896649,41.055799 123.289304,41.2514175 123.779768,41.3478093 C124.271649,41.4484536 124.533892,41.4796392 124.794716,41.4796392 C125.056959,41.4796392 125.25116,41.6100515 125.25116,41.7418814 C125.25116,42.0027062 124.990335,42.0693299 124.566495,42.0693299 C123.35451,42.0693299 122.046134,41.9715206 121.523067,41.9715206 C120.968814,41.9715206 119.593814,42.0693299 118.676675,42.0693299 C118.383247,42.0693299 118.155026,42.0027062 118.155026,41.7418814 C118.155026,41.6100515 118.318041,41.4796392 118.611469,41.4796392 C118.841108,41.4796392 119.036727,41.4796392 119.496005,41.414433 C120.279897,41.3152062 120.542139,40.203866 120.673969,39.2881443 L123.518943,21.1338918" id="Fill-4" fill="#FFFFFE"></path>
                    <path d="M163.589562,38.9621134 C160.383119,36.1483247 159.532603,32.4840206 159.532603,29.3115979 C159.532603,27.0875 160.218686,23.2289948 163.359923,20.35 C165.715851,18.1896907 168.823067,16.882732 173.696521,16.882732 C175.723582,16.882732 176.934149,17.0145619 178.439562,17.2115979 C179.682732,17.3731959 180.728866,17.6680412 181.709794,17.7658505 C182.069845,17.7998711 182.201675,17.9628866 182.201675,18.1585052 C182.201675,18.4207474 182.101031,18.8119845 182.035825,19.9573454 C181.973454,21.0375 182.004639,22.8349227 181.938015,23.4898196 C181.90683,23.9802835 181.841624,24.2411082 181.546778,24.2411082 C181.284536,24.2411082 181.21933,23.9802835 181.21933,23.5224227 C181.185309,22.5103093 180.761469,21.3635309 179.942139,20.5130155 C178.866237,19.3676546 176.313273,18.4859536 173.303866,18.4859536 C170.457474,18.4859536 168.593428,19.2046392 167.154639,20.5130155 C164.767526,22.7030928 164.145232,25.8131443 164.145232,28.985567 C164.145232,36.7720361 170.066237,40.6291237 174.446392,40.6291237 C177.359407,40.6291237 179.125644,40.3030928 180.435438,38.7990979 C180.991108,38.1768041 181.414948,37.2284794 181.546778,36.6402062 C181.64317,36.1143041 181.709794,35.9853093 181.973454,35.9853093 C182.201675,35.9853093 182.266881,36.2135309 182.266881,36.4757732 C182.266881,36.8670103 181.872809,39.7134021 181.546778,40.8247423 C181.383763,41.3818299 181.251933,41.5462629 180.694845,41.773067 C179.387887,42.2975515 176.902964,42.5257732 174.807861,42.5257732 C170.327062,42.5257732 166.564948,41.5462629 163.589562,38.9621134" id="Fill-5" fill="#FFFFFE"></path>
                    <path d="M190.314175,31.242268 C190.314175,31.5356959 190.380799,31.6349227 190.573582,31.732732 C191.195876,31.9283505 192.046392,31.9949742 192.766495,31.9949742 C193.910438,31.9949742 194.303093,31.8957474 194.793557,31.5356959 C195.678093,30.9148196 196.660438,29.7070876 196.660438,27.4149485 C196.660438,23.4898196 193.977062,22.4748711 192.276031,22.4748711 C191.555928,22.4748711 190.868428,22.5103093 190.573582,22.5740979 C190.380799,22.6364691 190.314175,22.7385309 190.314175,22.9667526 L190.314175,31.242268 Z M186.649871,29.0833763 C186.649871,24.8634021 186.649871,24.0795103 186.615851,23.1949742 C186.550644,22.2466495 186.28982,21.9532216 185.37268,21.6923969 C185.144459,21.6257732 184.653995,21.5917526 184.228737,21.5917526 C183.933892,21.5917526 183.738273,21.4939433 183.738273,21.2983247 C183.738273,21.1027062 183.967912,21.0375 184.394588,21.0375 C185.897165,21.0375 187.728608,21.1027062 188.316881,21.1027062 C189.299227,21.1027062 191.915979,21.0375 192.799098,21.0375 C194.630541,21.0375 196.724227,21.1990979 198.262242,22.2154639 C199.078737,22.768299 200.289304,24.1773196 200.289304,26.041366 C200.289304,28.1024485 199.11134,29.9353093 196.300387,32.1891753 C198.850515,35.3304124 200.87616,37.8493557 202.612629,39.5829897 C204.214433,41.1862113 205.227964,41.3152062 205.685825,41.414433 C205.98067,41.4796392 206.145103,41.4796392 206.373325,41.4796392 C206.602964,41.4796392 206.733376,41.6426546 206.733376,41.773067 C206.733376,42.0027062 206.53634,42.0693299 206.176289,42.0693299 L203.429124,42.0693299 C201.825902,42.0693299 201.040593,41.9048969 200.289304,41.5122423 C199.046134,40.891366 197.967397,39.5829897 196.365593,37.4255155 C195.218814,35.9186856 194.009665,34.0546392 193.649613,33.630799 C193.486598,33.466366 193.320747,33.4323454 193.126546,33.4323454 L190.542397,33.3671392 C190.410567,33.3671392 190.314175,33.4323454 190.314175,33.5967784 L190.314175,33.989433 C190.314175,36.5735825 190.343943,38.7324742 190.477191,39.9104381 C190.573582,40.7283505 190.705412,41.2514175 191.589948,41.3818299 C192.013789,41.4484536 192.634665,41.4796392 192.994716,41.4796392 C193.224356,41.4796392 193.356186,41.6426546 193.356186,41.773067 C193.356186,41.9715206 193.126546,42.0693299 192.766495,42.0693299 C191.099485,42.0693299 188.709536,41.9715206 188.285696,41.9715206 C187.728608,41.9715206 185.897165,42.0693299 184.753222,42.0693299 C184.394588,42.0693299 184.197552,41.9715206 184.197552,41.773067 C184.197552,41.6426546 184.292526,41.4796392 184.653995,41.4796392 C185.079253,41.4796392 185.408119,41.4484536 185.667526,41.3818299 C186.257216,41.2514175 186.420232,40.7283505 186.519459,39.9104381 C186.649871,38.7324742 186.649871,36.5409794 186.649871,33.989433 L186.649871,29.0833763 L186.649871,29.0833763 Z" id="Fill-6" fill="#FFFFFE"></path>
                    <path d="M207.127448,29.0833763 C207.127448,24.8634021 207.127448,24.0795103 207.094845,23.1949742 C207.028222,22.2466495 206.765979,21.9532216 205.851675,21.6923969 C205.622036,21.6257732 205.13299,21.5917526 204.707732,21.5917526 C204.411469,21.5917526 204.215851,21.4939433 204.215851,21.2983247 C204.215851,21.1027062 204.444072,21.0375 204.870747,21.0375 C206.374742,21.0375 208.206186,21.1027062 209.024098,21.1027062 C209.941237,21.1027062 216.317268,21.1338918 216.874356,21.1027062 C217.397423,21.0701031 217.856701,20.9708763 218.083505,20.9382732 C218.247938,20.9056701 218.412371,20.8078608 218.542784,20.8078608 C218.707216,20.8078608 218.738402,20.9382732 218.738402,21.0701031 C218.738402,21.2657216 218.575387,21.5917526 218.508763,22.8689433 C218.478995,23.1637887 218.412371,24.3729381 218.347165,24.7003866 C218.313144,24.8322165 218.247938,25.1568299 218.018299,25.1568299 C217.824098,25.1568299 217.790077,25.0278351 217.790077,24.7981959 C217.790077,24.6011598 217.757474,24.1106959 217.594459,23.7846649 C217.366237,23.294201 217.136598,22.9015464 215.696392,22.768299 C215.20451,22.7030928 211.77268,22.6364691 211.181572,22.6364691 C211.05116,22.6364691 210.988789,22.7385309 210.988789,22.9015464 L210.988789,29.7680412 C210.988789,29.9353093 211.018557,30.0643041 211.181572,30.0643041 C211.836469,30.0643041 215.564562,30.0643041 216.220876,29.9990979 C216.906959,29.9353093 217.330799,29.8701031 217.594459,29.5752577 C217.824098,29.3768041 217.92049,29.2152062 218.05232,29.2152062 C218.182732,29.2152062 218.280541,29.3456186 218.280541,29.508634 C218.280541,29.6716495 218.215335,30.1280928 218.05232,31.5356959 C217.987113,32.0927835 217.92049,33.2055412 217.92049,33.3997423 C217.92049,33.630799 217.889304,34.0220361 217.627062,34.0220361 C217.431443,34.0220361 217.366237,33.9242268 217.366237,33.7938144 C217.330799,33.4989691 217.330799,33.1389175 217.265593,32.778866 C217.102577,32.2246134 216.742526,31.7979381 215.663789,31.7001289 C215.140722,31.6349227 211.87049,31.568299 211.150387,31.568299 C211.018557,31.568299 210.988789,31.7001289 210.988789,31.8645619 L210.988789,34.0872423 C210.988789,35.035567 210.953351,37.3900773 210.988789,38.2094072 C211.05116,40.1060567 211.934278,40.5313144 214.879897,40.5313144 C215.631186,40.5313144 216.841753,40.4987113 217.594459,40.1712629 C218.313144,39.845232 218.640593,39.2555412 218.837629,38.1115979 C218.902835,37.8167526 218.968041,37.6849227 219.16366,37.6849227 C219.391881,37.6849227 219.424485,38.0463918 219.424485,38.3398196 C219.424485,38.9621134 219.19768,40.8573454 219.033247,41.414433 C218.837629,42.1345361 218.575387,42.1345361 217.495232,42.1345361 C215.337758,42.1345361 213.602706,42.101933 212.197938,42.0353093 C210.790335,42.0027062 209.71018,41.9715206 208.859665,41.9715206 C208.533634,41.9715206 207.91134,42.0027062 207.225258,42.0027062 C206.537758,42.0353093 205.819072,42.0693299 205.229381,42.0693299 C204.870747,42.0693299 204.673711,41.9715206 204.673711,41.773067 C204.673711,41.6426546 204.771521,41.4796392 205.13299,41.4796392 C205.55683,41.4796392 205.884278,41.4484536 206.146521,41.3818299 C206.734794,41.2514175 206.899227,40.7283505 206.995619,39.9104381 C207.127448,38.7324742 207.127448,36.5409794 207.127448,33.989433 L207.127448,29.0833763" id="Fill-7" fill="#FFFFFE"></path>
                    <path d="M227.064948,32.1594072 C227.064948,35.1021907 227.097552,37.2284794 227.130155,37.7841495 C227.162758,38.470232 227.229381,39.4525773 227.457603,39.7474227 C227.817655,40.2704897 228.963015,40.8573454 231.218299,40.8573454 C233.835052,40.8573454 235.765722,40.4009021 237.499356,38.9621134 C239.361985,37.4255155 239.953093,34.9377577 239.953093,32.0601804 C239.953093,28.5277062 238.546907,26.2369845 237.269716,25.1256443 C234.621778,22.768299 231.481959,22.4748711 229.22384,22.4748711 C228.635567,22.4748711 227.68866,22.5414948 227.457603,22.6733247 C227.195361,22.768299 227.097552,22.9015464 227.097552,23.2289948 C227.064948,24.1773196 227.064948,26.4666237 227.064948,28.6581186 L227.064948,32.1594072 Z M223.205026,29.0833763 C223.205026,24.8634021 223.205026,24.0795103 223.172423,23.1949742 C223.107216,22.2466495 222.846392,21.9532216 221.93067,21.6923969 C221.701031,21.6257732 221.210567,21.5917526 220.786727,21.5917526 C220.491881,21.5917526 220.294845,21.4939433 220.294845,21.2983247 C220.294845,21.1027062 220.521649,21.0375 220.948325,21.0375 C222.453737,21.0375 224.28518,21.1027062 225.101675,21.1027062 C225.986211,21.1027062 228.045876,21.0375 229.780928,21.0375 C233.377191,21.0375 238.219459,21.0375 241.357861,24.2099227 C242.796649,25.6487113 244.07384,27.9706186 244.07384,31.2748711 C244.07384,34.7747423 242.568428,37.4255155 240.932603,39.0273196 C239.625644,40.3356959 236.582216,42.2975515 231.283505,42.2975515 C230.237371,42.2975515 228.994201,42.1997423 227.850258,42.1345361 C226.706314,42.0353093 225.658763,41.9715206 224.93866,41.9715206 C224.611211,41.9715206 223.990335,42.0027062 223.304253,42.0027062 C222.615335,42.0353093 221.895232,42.0693299 221.308376,42.0693299 C220.948325,42.0693299 220.751289,41.9715206 220.751289,41.773067 C220.751289,41.6426546 220.850515,41.4796392 221.210567,41.4796392 C221.635825,41.4796392 221.961856,41.4484536 222.225515,41.3818299 C222.813789,41.2514175 222.976804,40.7283505 223.074613,39.9104381 C223.205026,38.7324742 223.205026,36.5409794 223.205026,33.989433 L223.205026,29.0833763 L223.205026,29.0833763 Z" id="Fill-8" fill="#FFFFFE"></path>
                    <path d="M246.78982,29.0833763 C246.78982,24.8634021 246.78982,24.0795103 246.757216,23.1949742 C246.69201,22.2466495 246.397165,21.9206186 245.776289,21.7235825 C245.447423,21.6257732 245.088789,21.5917526 244.728737,21.5917526 C244.433892,21.5917526 244.272294,21.5279639 244.272294,21.2657216 C244.272294,21.1027062 244.500515,21.0375 244.958376,21.0375 C246.037113,21.0375 248.001804,21.1027062 248.818299,21.1027062 C249.536985,21.1027062 251.402448,21.0375 252.513789,21.0375 C252.87384,21.0375 253.102062,21.1027062 253.102062,21.2657216 C253.102062,21.5279639 252.939046,21.5917526 252.644201,21.5917526 C252.350773,21.5917526 252.122552,21.6257732 251.793686,21.6923969 C251.009794,21.8199742 250.780155,22.2154639 250.714948,23.1949742 C250.649742,24.0795103 250.649742,24.8634021 250.649742,29.0833763 L250.649742,33.989433 C250.649742,36.6713918 250.649742,38.8954897 250.780155,40.0734536 C250.877964,40.8247423 251.075,41.2514175 251.924098,41.3818299 C252.31817,41.4484536 252.971649,41.4796392 253.39549,41.4796392 C253.725773,41.4796392 253.854768,41.6426546 253.854768,41.773067 C253.854768,41.9715206 253.625129,42.0693299 253.299098,42.0693299 C251.402448,42.0693299 249.440593,41.9715206 248.655284,41.9715206 C248.001804,41.9715206 246.037113,42.0693299 244.891753,42.0693299 C244.531701,42.0693299 244.338918,41.9715206 244.338918,41.773067 C244.338918,41.6426546 244.433892,41.4796392 244.793943,41.4796392 C245.219201,41.4796392 245.548067,41.4484536 245.808892,41.3818299 C246.397165,41.2514175 246.56018,40.8573454 246.659407,40.0408505 C246.78982,38.8954897 246.78982,36.6713918 246.78982,33.989433 L246.78982,29.0833763" id="Fill-9" fill="#FFFFFE"></path>
                    <path d="M262.622165,22.7385309 L258.336985,22.8349227 C256.668557,22.8689433 255.981057,23.0631443 255.555799,23.6854381 C255.260954,24.0795103 255.131959,24.4381443 255.065335,24.6351804 C255.001546,24.8634021 254.934923,24.9938144 254.739304,24.9938144 C254.540851,24.9938144 254.475644,24.8322165 254.475644,24.5373711 C254.475644,24.0795103 255.034149,21.3975515 255.097938,21.1679124 C255.163144,20.8078608 255.260954,20.6434278 255.426804,20.6434278 C255.655026,20.6434278 255.949871,20.873067 256.668557,20.9708763 C257.519072,21.0701031 258.599227,21.1027062 259.547552,21.1027062 L271.222294,21.1027062 C272.139433,21.1027062 272.760309,21.0375 273.185567,20.9708763 C273.644845,20.9056701 273.874485,20.8404639 273.969459,20.8404639 C274.167912,20.8404639 274.200515,21.0034794 274.200515,21.4287371 C274.200515,22.0184278 274.135309,24.0795103 274.135309,24.7981959 C274.101289,25.0930412 274.036082,25.2560567 273.874485,25.2560567 C273.644845,25.2560567 273.579639,25.1256443 273.547036,24.7003866 L273.513015,24.4055412 C273.447809,23.6854381 272.695103,22.8349227 270.112371,22.8037371 L266.48067,22.7385309 L266.48067,33.989433 C266.48067,36.5409794 266.514691,38.7324742 266.643686,39.9430412 C266.742912,40.7283505 266.905928,41.2514175 267.757861,41.3818299 C268.149098,41.4484536 268.802577,41.4796392 269.229253,41.4796392 C269.556701,41.4796392 269.687113,41.6426546 269.687113,41.773067 C269.687113,41.9715206 269.457474,42.0693299 269.130026,42.0693299 C267.233376,42.0693299 265.304124,41.9715206 264.486211,41.9715206 C263.831314,41.9715206 261.868041,42.0693299 260.724098,42.0693299 C260.364046,42.0693299 260.16701,41.9715206 260.16701,41.773067 C260.16701,41.6426546 260.266237,41.4796392 260.626289,41.4796392 C261.050129,41.4796392 261.41018,41.4484536 261.63982,41.3818299 C262.22951,41.2514175 262.391108,40.7283505 262.490335,39.9104381 C262.622165,38.7324742 262.622165,36.5409794 262.622165,33.989433 L262.622165,22.7385309" id="Fill-10" fill="#FFFFFE"></path>
                    <path d="M35.9824742,54.6356959 C36.2787371,54.6356959 36.5466495,54.6186856 36.5466495,54.258634 C36.5466495,53.9722938 36.2844072,53.9170103 36.0434278,53.9170103 L35.5628866,53.9170103 L35.5628866,54.6356959 L35.9824742,54.6356959 Z M35.5628866,55.9369845 L35.2113402,55.9369845 L35.2113402,53.6207474 L36.0958763,53.6207474 C36.6416237,53.6207474 36.9137887,53.8262887 36.9137887,54.2798969 C36.9137887,54.695232 36.6515464,54.8752577 36.3155928,54.9177835 L36.9719072,55.9369845 L36.575,55.9369845 L35.968299,54.9333763 L35.5628866,54.9333763 L35.5628866,55.9369845 Z M35.9867268,56.4529639 C36.8967784,56.4529639 37.6126289,55.7385309 37.6126289,54.7746134 C37.6126289,53.8262887 36.8967784,53.1061856 35.9867268,53.1061856 C35.0681701,53.1061856 34.3537371,53.8262887 34.3537371,54.7746134 C34.3537371,55.7385309 35.0681701,56.4529639 35.9867268,56.4529639 Z M33.9511598,54.7746134 C33.9511598,53.6207474 34.8867268,52.7759021 35.9867268,52.7759021 C37.0810567,52.7759021 38.0152062,53.6207474 38.0152062,54.7746134 C38.0152062,55.9369845 37.0810567,56.7846649 35.9867268,56.7846649 C34.8867268,56.7846649 33.9511598,55.9369845 33.9511598,54.7746134 L33.9511598,54.7746134 Z" id="Fill-11" fill="#FFFFFE"></path>
                    <path d="M29.0677835,43.8157216 L35.776933,50.3320876 C35.1248711,50.9884021 34.4572165,51.6688144 33.8023196,52.3421392 L28.7871134,47.2489691 L29.0677835,43.8157216" id="Fill-12" fill="#FFFFFE"></path>
                    <g id="Group-16" transform="translate(19.845361, 42.525773)">
                        <mask id="mask-2" fill="white">
                            <use xlink:href="#path-1"></use>
                        </mask>
                        <g id="Clip-14"></g>
                        <path d="M7.77938144,1.28994845 L1.06881443,7.80631443 C1.72796392,8.46262887 2.39420103,9.14304124 3.04909794,9.81636598 L8.0628866,4.72319588 L7.77938144,1.28994845" id="Fill-13" fill="#FFFFFE" mask="url(#mask-2)"></path>
                        <path d="M8.48389175,11.9213918 L8.05863402,6.41572165 L3.92229381,10.7164948 C6.42989691,13.3219072 8.52216495,15.5927835 8.52216495,15.5927835 L13.1759021,10.7094072 L8.85953608,6.43131443 L8.48389175,11.9213918" id="Fill-15" fill="#FFFFFE" mask="url(#mask-2)"></path>
                    </g>
                    <path d="M29.2945876,38.2689433 L38.6658505,47.3255155 C38.3695876,47.8131443 37.2993557,48.9159794 36.655799,49.4617268 L29.0791237,41.6199742 L29.2945876,38.2689433" id="Fill-17" fill="#FFFFFE"></path>
                    <path d="M27.2278351,38.2689433 L17.8565722,47.3255155 C18.1542526,47.8131443 19.2244845,48.9159794 19.8609536,49.4617268 L27.4404639,41.6199742 L27.2278351,38.2689433" id="Fill-18" fill="#FFFFFE"></path>
                    <path d="M29.7581186,31.9637887 L37.9471649,39.9387887 C37.9471649,39.9387887 40.4306701,43.0162371 39.3405928,46.1376289 L29.5100515,35.9654639 L29.7581186,31.9637887" id="Fill-19" fill="#FFFFFE"></path>
                    <path d="M26.9811856,31.9652062 L18.7907216,39.8055412 C18.7907216,39.8055412 16.3114691,42.8844072 17.3987113,46.0100515 L27.2405928,35.9512887 L26.9811856,31.9652062" id="Fill-20" fill="#FFFFFE"></path>
                    <path d="M56.6953608,29.7467784 L47.4998711,20.4393041 C47.4998711,20.4393041 43.423067,16.8657216 39.5121134,19.7518041 C35.5997423,22.6421392 30.6724227,28.3675258 30.6724227,28.3675258 L51.3881443,29.5993557 L30.6752577,31.1217784 L38.5141753,39.3136598 C38.5141753,39.3136598 43.228866,43.118299 46.8988402,39.2569588 C50.5801546,35.391366 56.6953608,29.7467784 56.6953608,29.7467784" id="Fill-21" fill="#FFFFFE"></path>
                    <g id="Group-25">
                        <mask id="mask-4" fill="white">
                            <use xlink:href="#path-3"></use>
                        </mask>
                        <g id="Clip-23"></g>
                        <path d="M28.3264175,1.20347938 L19.0203608,10.3947165 C19.0203608,10.3947165 15.4411082,14.4771907 18.3286082,18.3867268 C21.2161082,22.3005155 26.9443299,27.2264175 26.9443299,27.2264175 L28.3618557,6.54896907 L29.6985825,27.2235825 L37.8890464,19.3832474 C37.8890464,19.3832474 41.6936856,14.6713918 37.8309278,10.9985825 C33.9667526,7.32293814 28.3264175,1.20347938 28.3264175,1.20347938" id="Fill-22" fill="#FFFFFE" mask="url(#mask-4)"></path>
                        <path d="M0,29.6787371 L9.19407216,38.9904639 C9.19407216,38.9904639 13.2722938,42.568299 17.1832474,39.680799 C21.094201,36.7904639 26.0257732,31.0636598 26.0257732,31.0636598 L5.30863402,29.6050258 L26.0257732,28.3136598 L18.1826031,20.1189433 C18.1826031,20.1189433 13.4707474,16.3143041 9.79510309,20.1770619 C6.11520619,24.0384021 0,29.6787371 0,29.6787371" id="Fill-24" fill="#FFFFFE" mask="url(#mask-4)"></path>
                    </g>
                </g>
            </g>
        </g>
    </g>
</svg>